<svg width="64" height="67" viewBox="0 0 64 67" fill="none" xmlns="http://www.w3.org/2000/svg">
<path d="M39.6406 10.4654C39.2893 10.4654 38.9995 10.7596 38.9995 11.1364C38.9995 11.164 38.9995 11.1824 38.9995 11.2099C38.9995 11.2651 38.9995 11.3019 39.0346 11.3754C37.9016 11.5776 36.7335 11.789 36.7335 11.789C36.7335 11.789 36.9618 10.2724 37.0936 9.49116C37.199 9.56469 37.3131 9.60146 37.4449 9.60146C37.7962 9.60146 38.086 9.30733 38.086 8.93049C38.086 8.55364 37.7962 8.25952 37.4449 8.25952C37.0936 8.25952 36.8037 8.55364 36.8037 8.93049C36.8037 9.06836 36.8389 9.19704 36.9091 9.29814C36.2328 9.69337 34.9593 10.4011 34.9593 10.4011C34.9593 10.4746 34.8188 9.11431 34.7309 8.22275H34.7573C35.1086 8.22275 35.3985 7.92863 35.3985 7.56098C35.3985 7.19332 35.1086 6.89001 34.7573 6.89001C34.6958 6.89001 34.6343 6.89001 34.5816 6.91758C34.3972 6.96354 34.2567 7.09222 34.1864 7.25766C34.1425 7.34958 34.1161 7.45068 34.1161 7.55179C34.1161 7.78157 34.2303 7.98378 34.3972 8.10327C33.8175 8.76504 32.9919 9.66579 32.9919 9.66579C32.9919 9.66579 32.342 8.53526 31.8765 7.754C32.1048 7.65289 32.2717 7.41392 32.2717 7.13818C32.2717 6.77052 31.9819 6.46721 31.6306 6.46721C31.2793 6.46721 30.9894 6.76133 30.9894 7.13818C30.9894 7.41392 31.1475 7.6437 31.3759 7.7448C30.9104 8.52607 30.2604 9.6566 30.2604 9.6566C30.2604 9.6566 29.4348 8.75585 28.8552 8.09408C29.022 7.97459 29.1362 7.77238 29.1362 7.5426C29.1362 7.4323 29.1099 7.33119 29.0659 7.24847C28.9869 7.07384 28.8464 6.95435 28.6707 6.90839C28.618 6.89001 28.5565 6.88082 28.4951 6.88082C28.1437 6.88082 27.8539 7.17494 27.8539 7.55179C27.8539 7.92863 28.1437 8.22275 28.4951 8.22275H28.5214C28.4336 9.10512 28.2843 10.4654 28.293 10.3919C28.293 10.3919 27.0195 9.68418 26.3432 9.28895C26.4135 9.18784 26.4486 9.05917 26.4486 8.9213C26.4486 8.55364 26.1588 8.25033 25.8075 8.25033C25.4562 8.25033 25.1663 8.54445 25.1663 8.9213C25.1663 9.29814 25.4562 9.59226 25.8075 9.59226C25.9392 9.59226 26.0622 9.54631 26.1588 9.48197C26.2905 10.2724 26.5189 11.7798 26.5189 11.7798C26.5189 11.7798 25.3508 11.5684 24.2178 11.3662C24.2441 11.2927 24.2441 11.2559 24.2529 11.2007C24.2529 11.1732 24.2529 11.1548 24.2529 11.1272C24.2529 10.7596 23.9631 10.4562 23.6117 10.4562C23.2604 10.4562 22.9706 10.7504 22.9706 11.1272C22.9706 11.5041 23.2604 11.7982 23.6117 11.7982C23.7523 11.7982 23.8928 11.7522 23.9982 11.6603C24.8677 12.5611 26.2291 13.9949 26.5716 14.3442C27.8715 13.085 29.6544 12.3129 31.613 12.3129C33.5716 12.3129 35.3545 13.085 36.6544 14.3442C36.997 13.9949 38.3583 12.5611 39.2278 11.6603C39.3332 11.743 39.465 11.7982 39.6143 11.7982C39.9656 11.7982 40.2554 11.5041 40.2554 11.1272C40.2554 10.7504 39.9656 10.4562 39.6143 10.4562L39.6406 10.4654Z" fill="white"/>
<path fill-rule="evenodd" clip-rule="evenodd" d="M30.7962 58.1777H32.4298V60.0803H34.1601V61.7807H32.4298V66.1925H30.7962V61.7807H29.1011V60.0803H30.7962V58.1777Z" fill="white"/>
<path fill-rule="evenodd" clip-rule="evenodd" d="M21.4687 7.34958C21.6883 5.80544 23.7699 6.19147 24.6657 6.5867C25.7372 7.05546 26.8 7.13818 27.933 6.66023C31.4813 5.25396 28.6532 1.63257 26.9581 1.33845C26.6067 1.27411 26.9229 0.888071 27.5992 1.21896C28.1965 1.51308 28.6356 1.77044 28.6005 1.69691C27.608 -0.178125 26.2993 -0.343569 25.6494 0.446886C25.4035 0.7502 25.4913 1.08109 26.0271 1.57742C28.5566 3.90283 26.0359 4.72086 23.9367 4.68409C21.2052 4.92307 19.273 6.24662 19.6419 10.4838C18.1751 7.63451 11.4474 6.32015 9.91914 12.1475C9.71714 13.3975 9.58539 14.3718 9.95428 16.3847C10.1826 17.0464 9.38338 17.7909 8.45239 17.9104C9.08476 18.5906 9.7874 18.4987 10.4198 17.6715C10.2178 19.0593 10.49 20.7689 8.52266 21.1734C4.08727 21.7248 7.35452 25.1624 11.2893 22.7359C12.6243 21.8903 14.0471 19.9877 13.3269 17.5979C17.6921 18.2229 17.4198 12.9839 16.4888 13.8203C15.3909 14.8313 13.0547 14.9416 12.6243 13.4434C16.6996 15.5299 16.7962 10.9342 15.5841 12.2669C13.8188 14.2063 11.5176 11.2191 13.9242 9.94154C12.9932 11.2191 13.406 11.9453 14.091 12.2302C14.8288 12.5335 15.9882 11.9544 15.3207 11.0813C14.3897 9.89558 16.2429 9.59227 17.288 10.1437C18.0873 10.6677 18.4562 11.118 19.554 13.0942C20.1688 11.6327 21.1965 11.2375 22.549 11.2927C20.9857 8.93049 22.9179 8.24114 23.5151 9.06836C23.9894 9.69337 24.5955 9.31653 24.5428 8.61799C24.5779 6.53155 22.6456 6.29258 21.4775 7.36796L21.4687 7.34958Z" fill="white"/>
<path fill-rule="evenodd" clip-rule="evenodd" d="M22.3733 21.4307C23.7698 20.4564 25.1663 19.5189 26.5716 18.5538C24.2704 16.8902 22.5753 15.4288 21.0734 13.9765C20.8714 13.7284 21.0032 13.5262 21.3018 13.7008C22.6017 14.7394 23.6644 15.6494 24.9643 16.688H25.7635C25.7284 16.0997 25.7635 15.4747 25.7635 15.0243C24.7974 14.9232 23.1023 14.5004 22.5929 13.8754C22.0923 13.2596 23.9367 13.4618 23.357 12.6989C21.7761 10.6952 19.027 13.085 20.2918 14.3993C21.0998 15.199 21.7849 15.7505 22.5578 16.4122C20.8539 15.5391 19.1236 14.5372 17.4197 13.2137C17.49 13.8019 17.5866 14.4269 17.6569 15.0519C19.2202 15.8516 20.8187 16.5409 22.4172 17.2027C22.6544 17.2395 22.6192 17.6898 22.4172 17.6898C20.8802 16.6145 19.2202 16.2652 18.1839 16.5777C16.9455 16.927 17.1123 18.3148 18.0872 18.7652C18.1839 19.1513 17.6217 19.0042 16.9806 18.802C17.2177 20.291 18.8162 19.7763 18.7196 20.052C18.6494 20.291 17.5866 20.1899 17.4197 20.1164C17.8501 21.4031 19.2202 21.0171 19.2202 21.2285C19.2202 21.4767 18.8162 21.541 18.5527 21.5778C18.8162 21.8903 19.2554 22.2396 20.081 22.0373C20.1512 22.0006 20.3445 22.0373 20.2127 22.1384C20.1512 22.2396 19.9844 22.3498 19.7121 22.3866C20.4411 22.6624 21.1086 22.451 21.5126 22.1384C21.9166 21.8259 21.9781 21.2745 21.943 21.302C21.5741 21.6513 21.214 21.6881 21.2403 21.6513C21.7673 21.2377 22.3031 20.1255 21.0383 19.3627C21.0032 19.4638 20.9066 19.8866 20.7046 20.0152C20.5377 20.1164 20.4674 20.1531 20.5377 19.9509C20.6431 19.5005 20.7397 18.7744 20.0371 18.4895C20.0985 18.6641 19.9404 19.2248 19.7384 19.2891C19.6418 19.3259 19.5364 19.3259 19.5716 19.2616C19.6682 18.9766 20.1425 17.9748 19.3696 17.8001C19.2642 17.9748 19.2993 18.3884 18.702 18.4251C17.1299 16.5501 20.968 16.5869 20.766 17.5244C20.5992 17.5979 20.4323 17.6715 20.2654 17.7358C20.7309 18.2597 21.2315 18.8479 21.697 19.3994C22.4348 19.1237 23.1374 18.7744 23.8576 18.4987C23.9279 18.5998 24.1914 18.8847 24.2968 18.9858C23.6908 19.3351 22.9969 19.7119 22.3645 20.0612C22.3997 20.5851 22.3294 20.9344 22.3294 21.4491L22.3733 21.4307Z" fill="white"/>
<path fill-rule="evenodd" clip-rule="evenodd" d="M17.209 31.6974C17.4725 30.2728 17.7448 28.7838 18.342 27.5981C18.0082 27.3224 17.5691 27.0834 17.2441 26.7985C17.7448 26.872 18.14 26.9271 18.6406 26.9915C18.9744 25.9896 19.6331 24.951 20.6168 23.7837C20.6168 23.7469 19.0973 23.5631 15.3207 24.5466C17.8501 23.5723 17.8062 21.9087 17.2178 21.1826C16.2341 19.9693 14.5565 21.3572 14.5565 21.3572C14.5565 21.3572 14.4863 20.9436 14.9079 20.6586C15.5929 20.1807 16.357 20.5483 16.2604 20.484C15.4261 19.7211 14.1613 19.9693 13.6256 21.0447C13.1249 22.0833 13.9505 23.7929 15.4612 22.8094C14.9518 21.9087 15.5841 21.5042 16.0584 21.5962C16.5678 21.6881 16.884 22.2396 16.3922 22.9197C15.5929 24.0962 13.5114 24.1697 11.7284 24.3719C6.93294 25.0337 4.63181 33.1864 12.1324 33.9493C9.83132 32.6993 9.83132 28.8849 12.3345 28.8114C13.7046 28.7838 14.5741 30.6496 12.9668 31.2103C13.5114 30.6864 13.3621 29.657 12.6594 29.611C9.91915 29.5375 11.3244 34.8685 14.4248 32.9107C19.352 29.1331 11.3859 23.1955 9.35704 29.4456C8.99694 25.9896 16.4537 23.1679 17.2178 31.6974H17.209Z" fill="white"/>
<path fill-rule="evenodd" clip-rule="evenodd" d="M3.0157 45.7142C2.14618 44.262 2.77856 41.863 4.37705 41.863C5.98433 41.8906 5.87015 44.2528 4.7108 44.0873C3.77103 43.9495 2.68194 44.6756 3.0157 45.7142Z" fill="white"/>
<path fill-rule="evenodd" clip-rule="evenodd" d="M3.87646 38.8115C4.57909 37.0744 5.73844 36.385 7.17006 36.385C8.36455 36.385 8.97057 36.9457 9.33945 37.4972C10.9292 40.0615 7.91662 42.534 6.03706 38.7748C5.57157 37.9935 4.70206 38.3244 3.86768 38.8115H3.87646Z" fill="white"/>
<path fill-rule="evenodd" clip-rule="evenodd" d="M2.77854 41.5229C2.74341 39.9972 3.68319 39.1975 4.4473 39.0597C5.21142 38.931 5.61544 39.2251 5.85258 39.5376C6.88018 40.9255 5.08846 42.6259 4.14868 40.7141C3.87641 40.1626 3.14743 40.613 2.77854 41.5138V41.5229Z" fill="white"/>
<path fill-rule="evenodd" clip-rule="evenodd" d="M13.3445 38.9862C12.7824 37.9108 12.0007 37.5431 11.3156 37.6626C10.8501 37.7637 10.5164 37.92 10.3144 38.4255C9.88401 39.8501 11.4825 40.2638 11.8777 39.0597C12.0446 38.5082 12.8175 38.4623 13.3445 38.9862Z" fill="white"/>
<path fill-rule="evenodd" clip-rule="evenodd" d="M27.8363 60.0251C29.5666 50.7235 21.3018 53.389 18.2717 43.9219C17.9028 45.4109 17.9731 46.7712 18.5352 47.9109C18.3683 47.7363 18.2717 47.8006 18.0697 47.387C17.3056 45.5855 16.7083 42.6351 16.3658 39.7582C16.032 39.3446 14.3633 38.931 14.495 39.795C14.9957 42.9568 15.2679 44.6756 15.3821 45.7877C15.426 46.1921 14.5214 42.6167 13.9856 40.3465C13.6167 38.9402 11.3595 39.0597 11.8514 40.7693C12.352 42.295 12.7209 42.9476 13.2215 44.4458C12.475 43.1866 11.6581 42.0652 11.2893 40.5211C10.815 40.7049 10.288 40.567 10.0245 40.42C9.8752 40.3373 9.95424 40.8336 10.1738 41.5229C10.6569 42.9568 11.4473 43.7105 12.3871 44.887C11.2893 44.0873 9.89276 42.488 9.55901 41.0358C8.7949 41.5229 7.92538 41.4862 7.091 41.3115C7.81999 43.2601 9.26039 44.2803 10.9994 45.5947C11.298 45.8337 12.0973 46.4863 12.3608 46.7528C10.1299 45.6407 7.8639 44.3539 6.46741 41.0266C6.30054 41.4127 6.09853 41.9641 5.56277 42.1388C5.99314 42.8005 5.89652 43.7013 5.72965 44.5285C6.80117 46.2289 10.5251 47.0929 12.1324 47.4422C12.2378 47.4789 7.89904 47.4789 5.26415 44.7399C4.38586 43.9035 2.83127 45.2454 3.63052 46.4771C4.66691 48.1039 7.17005 48.3705 11.8338 48.2418C11.8514 48.4165 1.20643 48.8484 0.301784 48.8301C-0.392069 48.8301 0.117343 51.4864 1.75975 51.275C5.92287 50.7878 6.28297 50.4845 7.63555 50.1812C8.33818 50.0249 5.29928 51.2198 2.49752 51.7713C2.56779 52.7088 4.50003 53.4073 6.19514 52.7456C8.32062 51.9459 11.4034 49.2988 12.8614 50.0433C13.0634 50.1444 11.9919 49.8595 10.2968 51.0084C8.51384 52.2217 6.39715 53.5452 6.26541 53.6463C8.30305 56.946 10.2002 52.8099 13.5289 51.1463C14.3633 50.7143 15.0835 50.5764 14.6619 50.7602C5.56277 55.4846 13.5289 61.9369 16.0233 56.4129C12.9317 57.8651 11.7635 55.4111 13.1952 53.3246C12.3256 56.6519 15.1098 56.9092 16.2165 55.696C12.8878 54.1702 15.8125 50.9257 18.3771 50.7694C20.5114 50.7051 21.3545 52.9937 20.0019 54.0691C19.8175 54.2621 21.0559 52.4974 19.6331 51.8356C18.4034 51.2841 17.8413 51.5783 17.1826 52.1757C15.3909 53.8026 17.4022 58.481 20.362 56.8633C22.224 55.7787 23.5327 55.1261 25.1575 55.9625C22.83 55.8614 21.3457 56.7714 20.5289 57.5618C19.6243 58.481 20.5553 60.3192 22.3646 58.8854C23.3746 58.0306 27.687 55.4846 26.8263 58.9497C26.6594 59.6483 25.0873 60.1722 26.554 60.8891C27.4762 61.2843 27.7222 60.6225 27.8188 59.9975L27.8363 60.0251Z" fill="white"/>
<path fill-rule="evenodd" clip-rule="evenodd" d="M29.4348 18.8296C29.9003 18.8296 30.2692 19.2156 30.2692 19.6935C30.2692 20.1715 29.9003 20.5575 29.4348 20.5575C28.9693 20.5575 28.5653 20.1807 28.5653 19.6935C28.5653 19.2064 28.9693 18.8296 29.4348 18.8296Z" fill="white"/>
<path fill-rule="evenodd" clip-rule="evenodd" d="M27.2742 19.5281C27.7397 19.5281 28.1086 19.9417 28.1086 20.4289C28.1086 20.916 27.7397 21.2928 27.2742 21.2928C26.8087 21.2928 26.4047 20.916 26.4047 20.4289C26.4047 19.9417 26.8087 19.5281 27.2742 19.5281Z" fill="white"/>
<path fill-rule="evenodd" clip-rule="evenodd" d="M25.2717 20.6678C25.7021 20.6678 26.1061 21.0539 26.1061 21.5318C26.1061 22.0098 25.7021 22.4326 25.2717 22.4326C24.8062 22.4326 24.4022 22.019 24.4022 21.5318C24.4022 21.0447 24.7975 20.6678 25.2717 20.6678Z" fill="white"/>
<path fill-rule="evenodd" clip-rule="evenodd" d="M23.5064 22.1292C23.9718 22.1292 24.3407 22.552 24.3407 23.03C24.3407 23.5079 23.9718 23.894 23.5064 23.894C23.0409 23.894 22.6368 23.5171 22.6368 23.03C22.6368 22.5429 23.0409 22.1292 23.5064 22.1292Z" fill="white"/>
<path fill-rule="evenodd" clip-rule="evenodd" d="M22.0044 23.8572C22.4699 23.8572 22.8652 24.2709 22.8652 24.758C22.8652 25.2451 22.4699 25.622 22.0044 25.622C21.5389 25.622 21.17 25.2451 21.17 24.758C21.17 24.2709 21.5389 23.8572 22.0044 23.8572Z" fill="white"/>
<path fill-rule="evenodd" clip-rule="evenodd" d="M20.7748 25.8701C21.2052 25.8701 21.6092 26.2929 21.6092 26.7709C21.6092 27.2212 21.2139 27.6349 20.7748 27.6349C20.3093 27.6349 19.9141 27.2212 19.9141 26.7709C19.9141 26.2837 20.3181 25.8701 20.7748 25.8701Z" fill="white"/>
<path fill-rule="evenodd" clip-rule="evenodd" d="M19.8087 27.9933C20.2742 27.9933 20.6783 28.4069 20.6783 28.8941C20.6783 29.3812 20.2742 29.7581 19.8087 29.7581C19.3432 29.7581 18.9744 29.3812 18.9744 28.8941C18.9744 28.4069 19.3432 27.9933 19.8087 27.9933Z" fill="white"/>
<path fill-rule="evenodd" clip-rule="evenodd" d="M19.1061 30.2452C19.5716 30.2452 19.9405 30.6588 19.9405 31.146C19.9405 31.6331 19.5716 32.0099 19.1061 32.0099C18.6406 32.0099 18.2366 31.6239 18.2366 31.146C18.2366 30.668 18.6406 30.2452 19.1061 30.2452Z" fill="white"/>
<path fill-rule="evenodd" clip-rule="evenodd" d="M18.7108 32.5982C19.1763 32.5982 19.5452 32.9842 19.5452 33.4714C19.5452 33.9585 19.1763 34.3353 18.7108 34.3353C18.2453 34.3353 17.8765 33.9585 17.8765 33.4714C17.8765 32.9842 18.2453 32.5982 18.7108 32.5982Z" fill="white"/>
<path fill-rule="evenodd" clip-rule="evenodd" d="M29.4348 51.2014C29.9003 51.2014 30.2692 51.5875 30.2692 52.0654C30.2692 52.5434 29.9003 52.9662 29.4348 52.9662C28.9693 52.9662 28.5653 52.5526 28.5653 52.0654C28.5653 51.5783 28.9693 51.2014 29.4348 51.2014Z" fill="white"/>
<path fill-rule="evenodd" clip-rule="evenodd" d="M27.2742 50.4753C27.7397 50.4753 28.1086 50.8522 28.1086 51.3393C28.1086 51.8265 27.7397 52.2033 27.2742 52.2033C26.8087 52.2033 26.4047 51.8265 26.4047 51.3393C26.4047 50.8522 26.8087 50.4753 27.2742 50.4753Z" fill="white"/>
<path fill-rule="evenodd" clip-rule="evenodd" d="M25.2717 49.3264C25.7021 49.3264 26.1061 49.7401 26.1061 50.2272C26.1061 50.7143 25.7021 51.0912 25.2717 51.0912C24.8062 51.0912 24.4022 50.7143 24.4022 50.2272C24.4022 49.7401 24.7975 49.3264 25.2717 49.3264Z" fill="white"/>
<path fill-rule="evenodd" clip-rule="evenodd" d="M23.5064 47.8374C23.9718 47.8374 24.3407 48.2143 24.3407 48.7014C24.3407 49.1886 23.9718 49.6022 23.5064 49.6022C23.0409 49.6022 22.6368 49.1886 22.6368 48.7014C22.6368 48.2143 23.0409 47.8374 23.5064 47.8374Z" fill="white"/>
<path fill-rule="evenodd" clip-rule="evenodd" d="M22.0044 45.9624C22.4699 45.9624 22.8388 46.376 22.8388 46.8632C22.8388 47.3503 22.4787 47.7271 22.0044 47.7271C21.5301 47.7271 21.1349 47.3503 21.1349 46.8632C21.1349 46.376 21.5301 45.9624 22.0044 45.9624Z" fill="white"/>
<path fill-rule="evenodd" clip-rule="evenodd" d="M20.7748 43.9863C21.2052 43.9863 21.6092 44.3631 21.6092 44.8503C21.6092 45.3374 21.2139 45.7142 20.7748 45.7142C20.3093 45.7142 19.9141 45.3282 19.9141 44.8503C19.9141 44.3723 20.3181 43.9863 20.7748 43.9863Z" fill="white"/>
<path fill-rule="evenodd" clip-rule="evenodd" d="M19.8087 41.9734C20.2742 41.9734 20.6783 42.3594 20.6783 42.8373C20.6783 43.3153 20.2742 43.6738 19.8087 43.6738C19.3432 43.6738 18.9744 43.3245 18.9744 42.8373C18.9744 42.3502 19.3432 41.9734 19.8087 41.9734Z" fill="white"/>
<path fill-rule="evenodd" clip-rule="evenodd" d="M19.1061 39.6847C19.5716 39.6847 19.9405 40.0708 19.9405 40.5579C19.9405 41.045 19.5716 41.4587 19.1061 41.4587C18.6406 41.4587 18.2366 41.045 18.2366 40.5579C18.2366 40.0708 18.6406 39.6847 19.1061 39.6847Z" fill="white"/>
<path fill-rule="evenodd" clip-rule="evenodd" d="M18.7108 37.3225C19.1763 37.3225 19.5452 37.7362 19.5452 38.2233C19.5452 38.7104 19.1763 39.0873 18.7108 39.0873C18.2453 39.0873 17.8765 38.7104 17.8765 38.2233C17.8765 37.7362 18.2453 37.3225 18.7108 37.3225Z" fill="white"/>
<path fill-rule="evenodd" clip-rule="evenodd" d="M33.7033 18.8296C33.2378 18.8296 32.8777 19.2156 32.8777 19.6935C32.8777 20.1715 33.2378 20.5575 33.7033 20.5575C34.1688 20.5575 34.5377 20.1807 34.5377 19.6935C34.5377 19.2064 34.1688 18.8296 33.7033 18.8296Z" fill="white"/>
<path fill-rule="evenodd" clip-rule="evenodd" d="M35.8727 19.5281C35.4072 19.5281 35.0383 19.9417 35.0383 20.4289C35.0383 20.916 35.4072 21.2928 35.8727 21.2928C36.3382 21.2928 36.7071 20.916 36.7071 20.4289C36.7071 19.9417 36.3382 19.5281 35.8727 19.5281Z" fill="white"/>
<path fill-rule="evenodd" clip-rule="evenodd" d="M37.8664 20.6678C37.4009 20.6678 37.032 21.0539 37.032 21.5318C37.032 22.0098 37.4009 22.4326 37.8664 22.4326C38.3319 22.4326 38.7007 22.019 38.7007 21.5318C38.7007 21.0447 38.3319 20.6678 37.8664 20.6678Z" fill="white"/>
<path fill-rule="evenodd" clip-rule="evenodd" d="M39.6317 22.1292C39.1662 22.1292 38.7974 22.552 38.7974 23.03C38.7974 23.5079 39.1662 23.894 39.6317 23.894C40.0972 23.894 40.4661 23.5171 40.4661 23.03C40.4661 22.5429 40.0972 22.1292 39.6317 22.1292Z" fill="white"/>
<path fill-rule="evenodd" clip-rule="evenodd" d="M41.0985 23.8572C40.633 23.8572 40.2642 24.2709 40.2642 24.758C40.2642 25.2451 40.633 25.622 41.0985 25.622C41.564 25.622 41.9593 25.2451 41.9593 24.758C41.9593 24.2709 41.5553 23.8572 41.0985 23.8572Z" fill="white"/>
<path fill-rule="evenodd" clip-rule="evenodd" d="M42.3633 25.8701C41.8978 25.8701 41.5289 26.2929 41.5289 26.7709C41.5289 27.2212 41.8978 27.6349 42.3633 27.6349C42.8288 27.6349 43.1977 27.2212 43.1977 26.7709C43.1977 26.2837 42.8288 25.8701 42.3633 25.8701Z" fill="white"/>
<path fill-rule="evenodd" clip-rule="evenodd" d="M43.2942 27.9933C42.8287 27.9933 42.4598 28.4069 42.4598 28.8941C42.4598 29.3812 42.8287 29.7581 43.2942 29.7581C43.7597 29.7581 44.1637 29.3812 44.1637 28.8941C44.1637 28.4069 43.7685 27.9933 43.2942 27.9933Z" fill="white"/>
<path fill-rule="evenodd" clip-rule="evenodd" d="M44.032 30.2452C43.5665 30.2452 43.1976 30.6588 43.1976 31.146C43.1976 31.6331 43.5665 32.0099 44.032 32.0099C44.4975 32.0099 44.8664 31.6239 44.8664 31.146C44.8664 30.668 44.4975 30.2452 44.032 30.2452Z" fill="white"/>
<path fill-rule="evenodd" clip-rule="evenodd" d="M44.436 32.5982C43.9705 32.5982 43.5665 32.9842 43.5665 33.4714C43.5665 33.9585 43.9705 34.3353 44.436 34.3353C44.9015 34.3353 45.2704 33.9585 45.2704 33.4714C45.2704 32.9842 44.9015 32.5982 44.436 32.5982Z" fill="white"/>
<path fill-rule="evenodd" clip-rule="evenodd" d="M33.7033 51.2014C33.2378 51.2014 32.8777 51.5875 32.8777 52.0654C32.8777 52.5434 33.2378 52.9662 33.7033 52.9662C34.1688 52.9662 34.5377 52.5526 34.5377 52.0654C34.5377 51.5783 34.1688 51.2014 33.7033 51.2014Z" fill="white"/>
<path fill-rule="evenodd" clip-rule="evenodd" d="M35.8727 50.4753C35.4072 50.4753 35.0383 50.8522 35.0383 51.3393C35.0383 51.8265 35.4072 52.2033 35.8727 52.2033C36.3382 52.2033 36.7071 51.8265 36.7071 51.3393C36.7071 50.8522 36.3382 50.4753 35.8727 50.4753Z" fill="white"/>
<path fill-rule="evenodd" clip-rule="evenodd" d="M37.8664 49.3264C37.4009 49.3264 37.032 49.7401 37.032 50.2272C37.032 50.7143 37.4009 51.0912 37.8664 51.0912C38.3319 51.0912 38.7007 50.7143 38.7007 50.2272C38.7007 49.7401 38.3319 49.3264 37.8664 49.3264Z" fill="white"/>
<path fill-rule="evenodd" clip-rule="evenodd" d="M39.6317 47.8374C39.1662 47.8374 38.7974 48.2143 38.7974 48.7014C38.7974 49.1886 39.1662 49.6022 39.6317 49.6022C40.0972 49.6022 40.4661 49.1886 40.4661 48.7014C40.4661 48.2143 40.0972 47.8374 39.6317 47.8374Z" fill="white"/>
<path fill-rule="evenodd" clip-rule="evenodd" d="M41.1337 45.9624C40.6682 45.9624 40.2993 46.376 40.2993 46.8632C40.2993 47.3503 40.6682 47.7271 41.1337 47.7271C41.5992 47.7271 41.9681 47.3503 41.9681 46.8632C41.9681 46.376 41.5992 45.9624 41.1337 45.9624Z" fill="white"/>
<path fill-rule="evenodd" clip-rule="evenodd" d="M42.3633 43.9863C41.8978 43.9863 41.5289 44.3631 41.5289 44.8503C41.5289 45.3374 41.8978 45.7142 42.3633 45.7142C42.8288 45.7142 43.1977 45.3282 43.1977 44.8503C43.1977 44.3723 42.8288 43.9863 42.3633 43.9863Z" fill="white"/>
<path fill-rule="evenodd" clip-rule="evenodd" d="M43.2942 41.9734C42.8287 41.9734 42.4598 42.3594 42.4598 42.8373C42.4598 43.3153 42.8287 43.6738 43.2942 43.6738C43.7597 43.6738 44.1637 43.3245 44.1637 42.8373C44.1637 42.3502 43.7685 41.9734 43.2942 41.9734Z" fill="white"/>
<path fill-rule="evenodd" clip-rule="evenodd" d="M44.032 39.6847C43.5665 39.6847 43.1976 40.0708 43.1976 40.5579C43.1976 41.045 43.5665 41.4587 44.032 41.4587C44.4975 41.4587 44.8664 41.045 44.8664 40.5579C44.8664 40.0708 44.4975 39.6847 44.032 39.6847Z" fill="white"/>
<path fill-rule="evenodd" clip-rule="evenodd" d="M44.436 37.3225C43.9705 37.3225 43.5665 37.7362 43.5665 38.2233C43.5665 38.7104 43.9705 39.0873 44.436 39.0873C44.9015 39.0873 45.2704 38.7104 45.2704 38.2233C45.2704 37.7362 44.9015 37.3225 44.436 37.3225Z" fill="white"/>
<path d="M30.928 30.3647C30.8051 29.6845 30.3308 29.5283 30.12 29.5191C29.2153 29.4639 29.4876 30.8978 28.987 29.7581C28.46 28.554 28.785 26.4492 30.7699 26.9455V26.9179C29.3295 24.5925 30.1902 22.3039 31.534 21.1366C31.5604 21.109 31.5955 21.0814 31.6306 21.0539C27.529 21.0906 24.9995 23.6918 23.4362 25.7047L30.9631 35.0982V30.8518C30.9631 30.7232 30.9456 30.5577 30.9368 30.3647H30.928Z" fill="white"/>
<path fill-rule="evenodd" clip-rule="evenodd" d="M30.9631 35.0982H27.6959C25.9481 35.0982 26.6068 33.2324 27.3006 32.8464C26.7649 31.771 24.3935 31.9824 24.9644 34.8225C22.9004 32.7728 20.8364 34.2986 20.2391 35.7968H30.9719V35.0982H30.9631Z" fill="white"/>
<path d="M27.3006 38.7564C26.7649 39.8318 24.3935 39.6204 24.9644 36.7802C22.9004 38.8299 20.8364 37.3042 20.2391 35.806C20.0371 39.6571 22.0396 44.455 23.4976 45.9808L30.9631 36.5045H27.6959C25.9481 36.5045 26.6068 38.3704 27.3006 38.7564Z" fill="white"/>
<path fill-rule="evenodd" clip-rule="evenodd" d="M32.2981 35.7968V30.6864C32.2981 29.7305 32.8954 29.5191 33.1325 29.5099C34.0371 29.4547 33.7649 30.8886 34.2655 29.7489C34.8013 28.5356 34.4675 26.4216 32.465 26.9455C33.9669 24.5466 33.0271 22.1936 31.6306 21.0539V35.806H32.3069L32.2981 35.7968Z" fill="white"/>
<path d="M32.3333 41.2381C32.4562 41.9182 32.9305 42.0745 33.1413 42.0837C34.0459 42.1388 33.7737 40.705 34.2743 41.8447C34.8013 43.0488 34.4763 45.1536 32.4913 44.6572V44.6848C33.9317 47.0102 33.071 49.2989 31.7272 50.4662C31.7009 50.4937 31.6657 50.5213 31.6306 50.5489C35.7323 50.5121 38.2617 47.911 39.8251 45.8981L32.2981 36.5045V40.7509C32.2981 40.8796 32.3157 41.045 32.3245 41.2381H32.3333Z" fill="white"/>
<path fill-rule="evenodd" clip-rule="evenodd" d="M32.2981 36.4953H35.5653C37.3132 36.4953 36.6544 38.3612 35.9606 38.7472C36.4963 39.8226 38.8677 39.6112 38.2968 36.7711C40.3608 38.8207 42.4248 37.295 43.0221 35.7968H32.2893V36.4953H32.2981Z" fill="white"/>
<path d="M35.9694 32.8463C36.5051 31.771 38.8765 31.9824 38.3056 34.8225C40.3696 32.7728 42.4336 34.2986 43.0309 35.7968C43.2329 31.9456 41.2304 27.1477 39.7724 25.6219L32.3069 35.0982H35.5741C37.3219 35.0982 36.6632 33.2324 35.9694 32.8463Z" fill="white"/>
<path fill-rule="evenodd" clip-rule="evenodd" d="M30.9631 35.7968V40.9071C30.9631 41.863 30.3658 42.0744 30.1287 42.0836C29.2241 42.1388 29.4963 40.7049 28.9957 41.8447C28.4599 43.0579 28.7937 45.1719 30.7962 44.648C29.2943 47.047 30.2341 49.3999 31.6306 50.5397V35.7876H30.9543L30.9631 35.7968Z" fill="white"/>
<path d="M32.5176 15.8975C32.544 14.8957 32.2278 14.1512 31.6305 13.8846C31.0333 14.1512 30.7259 14.8957 30.7435 15.8975C29.6807 15.8608 28.5038 16.9545 29.3645 18.4619C29.9266 17.506 30.7435 17.7358 30.7435 18.5538C30.7435 19.3535 30.7435 19.6752 30.7435 20.4013H32.5088C32.5088 19.6752 32.5088 19.3627 32.5088 18.5538C32.5088 17.7358 33.3256 17.506 33.8877 18.4619C34.7397 16.9545 33.5716 15.8608 32.5088 15.8975H32.5176Z" fill="white"/>
<path d="M14.7761 34.9144C13.81 34.8868 13.1074 35.2085 12.8439 35.8335C13.1074 36.4585 13.81 36.7802 14.7761 36.7527C14.741 37.8648 15.7862 39.0873 17.2353 38.1957C16.3219 37.6075 16.5415 36.7343 17.3232 36.7343C18.0961 36.7343 18.6758 36.7343 19.3696 36.7343V34.9052C18.6758 34.9052 18.0873 34.9052 17.3232 34.9052C16.5327 34.9052 16.3131 34.0504 17.2353 33.4622C15.7862 32.5706 14.741 33.7931 14.7761 34.9052V34.9144Z" fill="white"/>
<path d="M48.3358 36.7618C49.3019 36.7894 50.0046 36.4677 50.268 35.8427C50.0046 35.2177 49.3019 34.896 48.3358 34.9236C48.3709 33.8114 47.317 32.589 45.8766 33.4805C46.79 34.0688 46.5704 34.942 45.7887 34.942C45.0158 34.942 44.4362 34.942 43.7423 34.942V36.771C44.4362 36.771 45.0246 36.771 45.7887 36.771C46.5792 36.771 46.7988 37.6258 45.8766 38.2141C47.3258 39.1056 48.3709 37.8832 48.3358 36.771V36.7618Z" fill="white"/>
<path d="M30.7435 55.8431C30.7171 56.8449 31.0333 57.5894 31.6305 57.856C32.2278 57.5894 32.5352 56.8449 32.5176 55.8431C33.5803 55.8798 34.7573 54.7861 33.8965 53.2787C33.3344 54.2346 32.5 54.0048 32.5 53.1868C32.5 52.3871 32.5 52.0654 32.5 51.3393H30.7435C30.7435 52.0654 30.7435 52.3779 30.7435 53.1868C30.7435 54.0048 29.9266 54.2346 29.3645 53.2787C28.5126 54.7861 29.6807 55.8798 30.7435 55.8431Z" fill="white"/>
<path fill-rule="evenodd" clip-rule="evenodd" d="M31.6394 13.4802C33.2906 13.4802 34.7837 14.1328 35.8728 15.1898L36.3734 14.6751C35.1526 13.4986 33.4838 12.7633 31.6394 12.7633C29.795 12.7633 28.1262 13.4894 26.9054 14.6659L27.406 15.1806C28.4951 14.1236 29.997 13.471 31.6394 13.471V13.4802Z" fill="white"/>
<path fill-rule="evenodd" clip-rule="evenodd" d="M31.6305 13.4802C29.9793 13.4802 28.4862 14.1328 27.3971 15.1898L26.8965 14.6751C28.1173 13.4986 29.7861 12.7633 31.6305 12.7633C33.4749 12.7633 35.1437 13.4894 36.3645 14.6659L35.8639 15.1806C34.7748 14.1236 33.2729 13.471 31.6305 13.471V13.4802Z" fill="white"/>
<path fill-rule="evenodd" clip-rule="evenodd" d="M41.8012 7.34958C41.5816 5.80544 39.5 6.19147 38.6042 6.5867C37.5327 7.05546 36.4699 7.13818 35.3369 6.66023C31.7886 5.25396 34.6167 1.63257 36.3118 1.33845C36.6632 1.27411 36.347 0.888071 35.6707 1.21896C35.0734 1.51308 34.6343 1.77044 34.6694 1.69691C35.6619 -0.178125 36.9706 -0.343569 37.6205 0.446886C37.8664 0.7502 37.7786 1.08109 37.2428 1.57742C34.7133 3.90283 37.234 4.72086 39.3332 4.68409C42.0647 4.92307 43.9969 6.24662 43.628 10.4838C45.0948 7.63451 51.8225 6.32015 53.3508 12.1475C53.5528 13.3975 53.6845 14.3718 53.3156 16.3847C53.0873 17.0464 53.8865 17.7909 54.8175 17.9104C54.1851 18.5906 53.4825 18.4987 52.8501 17.6715C53.0521 19.0593 52.7799 20.7689 54.7472 21.1734C59.1826 21.7248 55.9154 25.1624 51.9806 22.7359C50.6456 21.8903 49.2228 19.9877 49.943 17.5979C45.5778 18.2229 45.8501 12.9839 46.7811 13.8203C47.879 14.8313 50.2152 14.9416 50.6456 13.4434C46.5703 15.5299 46.4737 10.9342 47.6858 12.2669C49.4511 14.2063 51.7523 11.2191 49.3457 9.94154C50.2767 11.2191 49.8639 11.9453 49.1789 12.2302C48.4411 12.5335 47.2817 11.9544 47.9492 11.0813C48.8802 9.89558 47.027 9.59227 45.9819 10.1437C45.1826 10.6677 44.8137 11.118 43.7159 13.0942C43.1011 11.6327 42.0735 11.2375 40.7209 11.2927C42.2842 8.93049 40.352 8.24114 39.7548 9.06836C39.2805 9.69337 38.6745 9.31653 38.7271 8.61799C38.692 6.53155 40.6243 6.29258 41.7924 7.36796L41.8012 7.34958Z" fill="white"/>
<path fill-rule="evenodd" clip-rule="evenodd" d="M40.8965 21.4307C39.5 20.4564 38.1035 19.5189 36.6982 18.5538C38.9994 16.8902 40.6945 15.4288 42.1964 13.9765C42.3984 13.7284 42.2666 13.5262 41.968 13.7008C40.6681 14.7394 39.6054 15.6494 38.3055 16.688H37.5063C37.5414 16.0997 37.5063 15.4747 37.5063 15.0243C38.4724 14.9232 40.1675 14.5004 40.6769 13.8754C41.1775 13.2596 39.3331 13.4618 39.9128 12.6989C41.4937 10.6952 44.2428 13.085 42.978 14.3993C42.17 15.199 41.4849 15.7505 40.712 16.4122C42.4159 15.5391 44.1462 14.5372 45.8501 13.2137C45.7798 13.8019 45.6832 14.4269 45.6129 15.0519C44.0496 15.8516 42.4511 16.5409 40.8526 17.2027C40.6154 17.2395 40.6506 17.6898 40.8526 17.6898C42.3896 16.6145 44.0496 16.2652 45.086 16.5777C46.3244 16.927 46.1575 18.3148 45.1826 18.7652C45.086 19.1513 45.6481 19.0042 46.2892 18.802C46.0521 20.291 44.4536 19.7763 44.5502 20.052C44.6205 20.291 45.6832 20.1899 45.8501 20.1164C45.4197 21.4031 44.0496 21.0171 44.0496 21.2285C44.0496 21.4767 44.4536 21.541 44.7171 21.5778C44.4536 21.8903 44.0144 22.2396 43.1888 22.0373C43.1186 22.0006 42.9254 22.0373 43.0571 22.1384C43.1186 22.2396 43.2855 22.3498 43.5577 22.3866C42.8287 22.6624 42.1612 22.451 41.7572 22.1384C41.3532 21.8259 41.2917 21.2745 41.3269 21.302C41.6957 21.6513 42.0558 21.6881 42.0295 21.6513C41.5025 21.2377 40.9668 20.1255 42.2315 19.3627C42.2666 19.4638 42.3632 19.8866 42.5653 20.0152C42.7321 20.1164 42.8024 20.1531 42.7321 19.9509C42.6267 19.5005 42.5301 18.7744 43.2328 18.4895C43.1713 18.6641 43.3294 19.2248 43.5314 19.2891C43.628 19.3259 43.7334 19.3259 43.6983 19.2616C43.6016 18.9766 43.1274 17.9748 43.8915 17.8001C43.9969 17.9748 43.9617 18.3884 44.559 18.4251C46.1311 16.5501 42.293 16.5869 42.495 17.5244C42.6619 17.5979 42.8287 17.6715 42.9956 17.7358C42.5301 18.2597 42.0295 18.8479 41.564 19.3994C40.8262 19.1237 40.1236 18.7744 39.4034 18.4987C39.3331 18.5998 39.0696 18.8847 38.9642 18.9858C39.5703 19.3351 40.2641 19.7119 40.8965 20.0612C40.8614 20.5851 40.9316 20.9344 40.9316 21.4491L40.8965 21.4307Z" fill="white"/>
<path fill-rule="evenodd" clip-rule="evenodd" d="M46.0609 31.6974C45.7974 30.2728 45.5251 28.7838 44.9279 27.5981C45.2616 27.3224 45.7008 27.0834 46.0257 26.7985C45.5251 26.872 45.1299 26.9271 44.6292 26.9915C44.2955 25.9896 43.6368 24.951 42.6531 23.7837C42.6531 23.7469 44.1725 23.5631 47.9492 24.5466C45.4197 23.5723 45.4636 21.9087 46.0521 21.1826C47.0358 19.9693 48.7133 21.3572 48.7133 21.3572C48.7133 21.3572 48.7836 20.9436 48.362 20.6586C47.6769 20.1807 46.9128 20.5483 47.0094 20.484C47.8438 19.7211 49.1085 19.9693 49.6443 21.0447C50.1449 22.0833 49.3193 23.7929 47.8087 22.8094C48.3181 21.9087 47.6857 21.5042 47.2114 21.5962C46.702 21.6881 46.3858 22.2396 46.8777 22.9197C47.6769 24.0962 49.7585 24.1697 51.5414 24.3719C56.3369 25.0337 58.638 33.1864 51.1374 33.9493C53.4385 32.6993 53.4385 28.8849 50.9354 28.8114C49.5653 28.7838 48.6957 30.6496 50.303 31.2103C49.7585 30.6864 49.9078 29.657 50.6104 29.611C53.3507 29.5375 51.9454 34.8685 48.8451 32.9107C43.9178 29.1331 51.884 23.1955 53.9128 29.4456C54.2729 25.9896 46.8162 23.1679 46.0521 31.6974H46.0609Z" fill="white"/>
<path fill-rule="evenodd" clip-rule="evenodd" d="M60.2541 45.7142C61.1236 44.262 60.4913 41.863 58.8928 41.863C57.2855 41.8906 57.3997 44.2528 58.559 44.0873C59.4988 43.9495 60.5879 44.6756 60.2541 45.7142Z" fill="white"/>
<path fill-rule="evenodd" clip-rule="evenodd" d="M59.3934 38.8115C58.6908 37.0744 57.5315 36.385 56.0998 36.385C54.9054 36.385 54.2993 36.9457 53.9305 37.4972C52.3407 40.0615 55.3533 42.534 57.2328 38.7748C57.6983 37.9935 58.5679 38.3244 59.4022 38.8115H59.3934Z" fill="white"/>
<path fill-rule="evenodd" clip-rule="evenodd" d="M60.4912 41.5229C60.5263 39.9972 59.5866 39.1975 58.8224 39.0597C58.0583 38.931 57.6543 39.2251 57.4172 39.5376C56.3896 40.9255 58.1813 42.6259 59.1211 40.7141C59.3933 40.1626 60.1223 40.613 60.4912 41.5138V41.5229Z" fill="white"/>
<path fill-rule="evenodd" clip-rule="evenodd" d="M49.9254 38.9862C50.4875 37.9108 51.2692 37.5431 51.9543 37.6626C52.4198 37.7637 52.7535 37.92 52.9555 38.4255C53.3859 39.8501 51.7874 40.2638 51.3922 39.0597C51.2253 38.5082 50.4524 38.4623 49.9254 38.9862Z" fill="white"/>
<path fill-rule="evenodd" clip-rule="evenodd" d="M35.4335 60.0251C33.7033 50.7235 41.968 53.389 44.9982 43.9219C45.367 45.4109 45.2968 46.7712 44.7347 47.9109C44.9015 47.7363 44.9982 47.8006 45.2002 47.387C45.9643 45.5855 46.5615 42.6351 46.9041 39.7582C47.2378 39.3446 48.9066 38.931 48.7748 39.795C48.2742 42.9568 48.0019 44.6756 47.8877 45.7877C47.8438 46.1921 48.7485 42.6167 49.2842 40.3465C49.6531 38.9402 51.9103 39.0597 51.4185 40.7693C50.9179 42.295 50.549 42.9476 50.0483 44.4458C50.7949 43.1866 51.6117 42.0652 51.9806 40.5211C52.4549 40.7049 52.9819 40.567 53.2453 40.42C53.3947 40.3373 53.3156 40.8336 53.096 41.5229C52.613 42.9568 51.8225 43.7105 50.8827 44.887C51.9806 44.0873 53.3771 42.488 53.7108 41.0358C54.475 41.5229 55.3445 41.4862 56.1788 41.3115C55.4499 43.2601 54.0095 44.2803 52.2704 45.5947C51.9718 45.8337 51.1726 46.4863 50.9091 46.7528C53.1399 45.6407 55.406 44.3539 56.8024 41.0266C56.9693 41.4127 57.1713 41.9641 57.7071 42.1388C57.2767 42.8005 57.3733 43.7013 57.5402 44.5285C56.4687 46.2289 52.7447 47.0929 51.1374 47.4422C51.032 47.4789 55.3708 47.4789 58.0057 44.7399C58.884 43.9035 60.4386 45.2454 59.6393 46.4771C58.6029 48.1039 56.0998 48.3705 51.4361 48.2418C51.4185 48.4165 62.0634 48.8484 62.9681 48.8301C63.6619 48.8301 63.1525 51.4864 61.5101 51.275C57.347 50.7878 56.9869 50.4845 55.6343 50.1812C54.9317 50.0249 57.9706 51.2198 60.7723 51.7713C60.7021 52.7088 58.7698 53.4073 57.0747 52.7456C54.9492 51.9459 51.8664 49.2988 50.4085 50.0433C50.2064 50.1444 51.278 49.8595 52.9731 51.0084C54.756 52.2217 56.8727 53.5452 57.0044 53.6463C54.9668 56.946 53.0697 52.8099 49.7409 51.1463C48.9066 50.7143 48.1864 50.5764 48.6079 50.7602C57.7071 55.4846 49.7409 61.9369 47.2466 56.4129C50.3382 57.8651 51.5063 55.4111 50.0747 53.3246C50.9442 56.6519 48.16 56.9092 47.0534 55.696C50.3821 54.1702 47.4574 50.9257 44.8928 50.7694C42.7585 50.7051 41.9153 52.9937 43.2679 54.0691C43.4524 54.2621 42.214 52.4974 43.6368 51.8356C44.8664 51.2841 45.4285 51.5783 46.0872 52.1757C47.879 53.8026 45.8677 58.481 42.9078 56.8633C41.0458 55.7787 39.7372 55.1261 38.1123 55.9625C40.4398 55.8614 41.9241 56.7714 42.7409 57.5618C43.6456 58.481 42.7146 60.3192 40.9053 58.8854C39.8953 58.0306 35.5828 55.4846 36.4436 58.9497C36.6104 59.6483 38.1826 60.1722 36.7158 60.8891C35.7936 61.2843 35.5477 60.6225 35.4511 59.9975L35.4335 60.0251Z" fill="white"/>
</svg>
