<svg width="389" height="67" viewBox="0 0 389 67" fill="none" xmlns="http://www.w3.org/2000/svg">
<path d="M178.903 13.7375H177.919V52.4423H178.903V13.7375Z" fill="white"/>
<path d="M39.6406 10.4654C39.2893 10.4654 38.9995 10.7596 38.9995 11.1364C38.9995 11.164 38.9995 11.1824 38.9995 11.2099C38.9995 11.2651 38.9995 11.3019 39.0346 11.3754C37.9016 11.5776 36.7335 11.789 36.7335 11.789C36.7335 11.789 36.9618 10.2724 37.0936 9.49116C37.199 9.56469 37.3131 9.60146 37.4449 9.60146C37.7962 9.60146 38.086 9.30733 38.086 8.93049C38.086 8.55364 37.7962 8.25952 37.4449 8.25952C37.0936 8.25952 36.8037 8.55364 36.8037 8.93049C36.8037 9.06836 36.8389 9.19704 36.9091 9.29814C36.2328 9.69337 34.9593 10.4011 34.9593 10.4011C34.9593 10.4746 34.8188 9.11431 34.7309 8.22275H34.7573C35.1086 8.22275 35.3985 7.92863 35.3985 7.56098C35.3985 7.19332 35.1086 6.89001 34.7573 6.89001C34.6958 6.89001 34.6343 6.89001 34.5816 6.91758C34.3972 6.96354 34.2567 7.09222 34.1864 7.25766C34.1425 7.34958 34.1161 7.45068 34.1161 7.55179C34.1161 7.78157 34.2303 7.98378 34.3972 8.10327C33.8175 8.76504 32.9919 9.66579 32.9919 9.66579C32.9919 9.66579 32.342 8.53526 31.8765 7.754C32.1048 7.65289 32.2717 7.41392 32.2717 7.13818C32.2717 6.77052 31.9819 6.46721 31.6306 6.46721C31.2793 6.46721 30.9894 6.76133 30.9894 7.13818C30.9894 7.41392 31.1475 7.6437 31.3759 7.7448C30.9104 8.52607 30.2604 9.6566 30.2604 9.6566C30.2604 9.6566 29.4348 8.75585 28.8552 8.09408C29.022 7.97459 29.1362 7.77238 29.1362 7.5426C29.1362 7.4323 29.1099 7.33119 29.0659 7.24847C28.9869 7.07384 28.8464 6.95435 28.6707 6.90839C28.618 6.89001 28.5565 6.88082 28.4951 6.88082C28.1437 6.88082 27.8539 7.17494 27.8539 7.55179C27.8539 7.92863 28.1437 8.22275 28.4951 8.22275H28.5214C28.4336 9.10512 28.2843 10.4654 28.293 10.3919C28.293 10.3919 27.0195 9.68418 26.3432 9.28895C26.4135 9.18784 26.4486 9.05917 26.4486 8.9213C26.4486 8.55364 26.1588 8.25033 25.8075 8.25033C25.4562 8.25033 25.1663 8.54445 25.1663 8.9213C25.1663 9.29814 25.4562 9.59226 25.8075 9.59226C25.9392 9.59226 26.0622 9.54631 26.1588 9.48197C26.2905 10.2724 26.5189 11.7798 26.5189 11.7798C26.5189 11.7798 25.3508 11.5684 24.2178 11.3662C24.2441 11.2927 24.2441 11.2559 24.2529 11.2007C24.2529 11.1732 24.2529 11.1548 24.2529 11.1272C24.2529 10.7596 23.9631 10.4562 23.6117 10.4562C23.2604 10.4562 22.9706 10.7504 22.9706 11.1272C22.9706 11.5041 23.2604 11.7982 23.6117 11.7982C23.7523 11.7982 23.8928 11.7522 23.9982 11.6603C24.8677 12.5611 26.2291 13.9949 26.5716 14.3442C27.8715 13.085 29.6544 12.3129 31.613 12.3129C33.5716 12.3129 35.3545 13.085 36.6544 14.3442C36.997 13.9949 38.3583 12.5611 39.2278 11.6603C39.3332 11.743 39.465 11.7982 39.6143 11.7982C39.9656 11.7982 40.2554 11.5041 40.2554 11.1272C40.2554 10.7504 39.9656 10.4562 39.6143 10.4562L39.6406 10.4654Z" fill="white"/>
<path fill-rule="evenodd" clip-rule="evenodd" d="M30.7962 58.1777H32.4298V60.0803H34.1601V61.7807H32.4298V66.1925H30.7962V61.7807H29.1011V60.0803H30.7962V58.1777Z" fill="white"/>
<path fill-rule="evenodd" clip-rule="evenodd" d="M21.4687 7.34958C21.6883 5.80544 23.7699 6.19147 24.6657 6.5867C25.7372 7.05546 26.8 7.13818 27.933 6.66023C31.4813 5.25396 28.6532 1.63257 26.9581 1.33845C26.6067 1.27411 26.9229 0.888071 27.5992 1.21896C28.1965 1.51308 28.6356 1.77044 28.6005 1.69691C27.608 -0.178125 26.2993 -0.343569 25.6494 0.446886C25.4035 0.7502 25.4913 1.08109 26.0271 1.57742C28.5566 3.90283 26.0359 4.72086 23.9367 4.68409C21.2052 4.92307 19.273 6.24662 19.6419 10.4838C18.1751 7.63451 11.4474 6.32015 9.91914 12.1475C9.71714 13.3975 9.58539 14.3718 9.95428 16.3847C10.1826 17.0464 9.38338 17.7909 8.45239 17.9104C9.08476 18.5906 9.7874 18.4987 10.4198 17.6715C10.2178 19.0593 10.49 20.7689 8.52266 21.1734C4.08727 21.7248 7.35452 25.1624 11.2893 22.7359C12.6243 21.8903 14.0471 19.9877 13.3269 17.5979C17.6921 18.2229 17.4198 12.9839 16.4888 13.8203C15.3909 14.8313 13.0547 14.9416 12.6243 13.4434C16.6996 15.5299 16.7962 10.9342 15.5841 12.2669C13.8188 14.2063 11.5176 11.2191 13.9242 9.94154C12.9932 11.2191 13.406 11.9453 14.091 12.2302C14.8288 12.5335 15.9882 11.9544 15.3207 11.0813C14.3897 9.89558 16.2429 9.59227 17.288 10.1437C18.0873 10.6677 18.4562 11.118 19.554 13.0942C20.1688 11.6327 21.1965 11.2375 22.549 11.2927C20.9857 8.93049 22.9179 8.24114 23.5151 9.06836C23.9894 9.69337 24.5955 9.31653 24.5428 8.61799C24.5779 6.53155 22.6456 6.29258 21.4775 7.36796L21.4687 7.34958Z" fill="white"/>
<path fill-rule="evenodd" clip-rule="evenodd" d="M22.3733 21.4307C23.7698 20.4564 25.1663 19.5189 26.5716 18.5538C24.2704 16.8902 22.5753 15.4288 21.0734 13.9765C20.8714 13.7284 21.0032 13.5262 21.3018 13.7008C22.6017 14.7394 23.6644 15.6494 24.9643 16.688H25.7635C25.7284 16.0997 25.7635 15.4747 25.7635 15.0243C24.7974 14.9232 23.1023 14.5004 22.5929 13.8754C22.0923 13.2596 23.9367 13.4618 23.357 12.6989C21.7761 10.6952 19.027 13.085 20.2918 14.3993C21.0998 15.199 21.7849 15.7505 22.5578 16.4122C20.8539 15.5391 19.1236 14.5372 17.4197 13.2137C17.49 13.8019 17.5866 14.4269 17.6569 15.0519C19.2202 15.8516 20.8187 16.5409 22.4172 17.2027C22.6544 17.2395 22.6192 17.6898 22.4172 17.6898C20.8802 16.6145 19.2202 16.2652 18.1839 16.5777C16.9455 16.927 17.1123 18.3148 18.0872 18.7652C18.1839 19.1513 17.6217 19.0042 16.9806 18.802C17.2177 20.291 18.8162 19.7763 18.7196 20.052C18.6494 20.291 17.5866 20.1899 17.4197 20.1164C17.8501 21.4031 19.2202 21.0171 19.2202 21.2285C19.2202 21.4767 18.8162 21.541 18.5527 21.5778C18.8162 21.8903 19.2554 22.2396 20.081 22.0373C20.1512 22.0006 20.3445 22.0373 20.2127 22.1384C20.1512 22.2396 19.9844 22.3498 19.7121 22.3866C20.4411 22.6624 21.1086 22.451 21.5126 22.1384C21.9166 21.8259 21.9781 21.2745 21.943 21.302C21.5741 21.6513 21.214 21.6881 21.2403 21.6513C21.7673 21.2377 22.3031 20.1255 21.0383 19.3627C21.0032 19.4638 20.9066 19.8866 20.7046 20.0152C20.5377 20.1164 20.4674 20.1531 20.5377 19.9509C20.6431 19.5005 20.7397 18.7744 20.0371 18.4895C20.0985 18.6641 19.9404 19.2248 19.7384 19.2891C19.6418 19.3259 19.5364 19.3259 19.5716 19.2616C19.6682 18.9766 20.1425 17.9748 19.3696 17.8001C19.2642 17.9748 19.2993 18.3884 18.702 18.4251C17.1299 16.5501 20.968 16.5869 20.766 17.5244C20.5992 17.5979 20.4323 17.6715 20.2654 17.7358C20.7309 18.2597 21.2315 18.8479 21.697 19.3994C22.4348 19.1237 23.1374 18.7744 23.8576 18.4987C23.9279 18.5998 24.1914 18.8847 24.2968 18.9858C23.6908 19.3351 22.9969 19.7119 22.3645 20.0612C22.3997 20.5851 22.3294 20.9344 22.3294 21.4491L22.3733 21.4307Z" fill="white"/>
<path fill-rule="evenodd" clip-rule="evenodd" d="M17.209 31.6974C17.4725 30.2728 17.7448 28.7838 18.342 27.5981C18.0082 27.3224 17.5691 27.0834 17.2441 26.7985C17.7448 26.872 18.14 26.9271 18.6406 26.9915C18.9744 25.9896 19.6331 24.951 20.6168 23.7837C20.6168 23.7469 19.0973 23.5631 15.3207 24.5466C17.8501 23.5723 17.8062 21.9087 17.2178 21.1826C16.2341 19.9693 14.5565 21.3572 14.5565 21.3572C14.5565 21.3572 14.4863 20.9436 14.9079 20.6586C15.5929 20.1807 16.357 20.5483 16.2604 20.484C15.4261 19.7211 14.1613 19.9693 13.6256 21.0447C13.1249 22.0833 13.9505 23.7929 15.4612 22.8094C14.9518 21.9087 15.5841 21.5042 16.0584 21.5962C16.5678 21.6881 16.884 22.2396 16.3922 22.9197C15.5929 24.0962 13.5114 24.1697 11.7284 24.3719C6.93294 25.0337 4.63181 33.1864 12.1324 33.9493C9.83132 32.6993 9.83132 28.8849 12.3345 28.8114C13.7046 28.7838 14.5741 30.6496 12.9668 31.2103C13.5114 30.6864 13.3621 29.657 12.6594 29.611C9.91915 29.5375 11.3244 34.8685 14.4248 32.9107C19.352 29.1331 11.3859 23.1955 9.35704 29.4456C8.99694 25.9896 16.4537 23.1679 17.2178 31.6974H17.209Z" fill="white"/>
<path fill-rule="evenodd" clip-rule="evenodd" d="M3.0157 45.7142C2.14618 44.262 2.77856 41.863 4.37705 41.863C5.98433 41.8906 5.87015 44.2528 4.7108 44.0873C3.77103 43.9495 2.68194 44.6756 3.0157 45.7142Z" fill="white"/>
<path fill-rule="evenodd" clip-rule="evenodd" d="M3.87646 38.8115C4.57909 37.0744 5.73844 36.385 7.17006 36.385C8.36455 36.385 8.97057 36.9457 9.33945 37.4972C10.9292 40.0615 7.91662 42.534 6.03706 38.7748C5.57157 37.9935 4.70206 38.3244 3.86768 38.8115H3.87646Z" fill="white"/>
<path fill-rule="evenodd" clip-rule="evenodd" d="M2.77854 41.5229C2.74341 39.9972 3.68319 39.1975 4.4473 39.0597C5.21142 38.931 5.61544 39.2251 5.85258 39.5376C6.88018 40.9255 5.08846 42.6259 4.14868 40.7141C3.87641 40.1626 3.14743 40.613 2.77854 41.5138V41.5229Z" fill="white"/>
<path fill-rule="evenodd" clip-rule="evenodd" d="M13.3445 38.9862C12.7824 37.9108 12.0007 37.5431 11.3156 37.6626C10.8501 37.7637 10.5164 37.92 10.3144 38.4255C9.88401 39.8501 11.4825 40.2638 11.8777 39.0597C12.0446 38.5082 12.8175 38.4623 13.3445 38.9862Z" fill="white"/>
<path fill-rule="evenodd" clip-rule="evenodd" d="M27.8363 60.0251C29.5666 50.7235 21.3018 53.389 18.2717 43.9219C17.9028 45.4109 17.9731 46.7712 18.5352 47.9109C18.3683 47.7363 18.2717 47.8006 18.0697 47.387C17.3056 45.5855 16.7083 42.6351 16.3658 39.7582C16.032 39.3446 14.3633 38.931 14.495 39.795C14.9957 42.9568 15.2679 44.6756 15.3821 45.7877C15.426 46.1921 14.5214 42.6167 13.9856 40.3465C13.6167 38.9402 11.3595 39.0597 11.8514 40.7693C12.352 42.295 12.7209 42.9476 13.2215 44.4458C12.475 43.1866 11.6581 42.0652 11.2893 40.5211C10.815 40.7049 10.288 40.567 10.0245 40.42C9.8752 40.3373 9.95424 40.8336 10.1738 41.5229C10.6569 42.9568 11.4473 43.7105 12.3871 44.887C11.2893 44.0873 9.89276 42.488 9.55901 41.0358C8.7949 41.5229 7.92538 41.4862 7.091 41.3115C7.81999 43.2601 9.26039 44.2803 10.9994 45.5947C11.298 45.8337 12.0973 46.4863 12.3608 46.7528C10.1299 45.6407 7.8639 44.3539 6.46741 41.0266C6.30054 41.4127 6.09853 41.9641 5.56277 42.1388C5.99314 42.8005 5.89652 43.7013 5.72965 44.5285C6.80117 46.2289 10.5251 47.0929 12.1324 47.4422C12.2378 47.4789 7.89904 47.4789 5.26415 44.7399C4.38586 43.9035 2.83127 45.2454 3.63052 46.4771C4.66691 48.1039 7.17005 48.3705 11.8338 48.2418C11.8514 48.4165 1.20643 48.8484 0.301784 48.8301C-0.392069 48.8301 0.117343 51.4864 1.75975 51.275C5.92287 50.7878 6.28297 50.4845 7.63555 50.1812C8.33818 50.0249 5.29928 51.2198 2.49752 51.7713C2.56779 52.7088 4.50003 53.4073 6.19514 52.7456C8.32062 51.9459 11.4034 49.2988 12.8614 50.0433C13.0634 50.1444 11.9919 49.8595 10.2968 51.0084C8.51384 52.2217 6.39715 53.5452 6.26541 53.6463C8.30305 56.946 10.2002 52.8099 13.5289 51.1463C14.3633 50.7143 15.0835 50.5764 14.6619 50.7602C5.56277 55.4846 13.5289 61.9369 16.0233 56.4129C12.9317 57.8651 11.7635 55.4111 13.1952 53.3246C12.3256 56.6519 15.1098 56.9092 16.2165 55.696C12.8878 54.1702 15.8125 50.9257 18.3771 50.7694C20.5114 50.7051 21.3545 52.9937 20.0019 54.0691C19.8175 54.2621 21.0559 52.4974 19.6331 51.8356C18.4034 51.2841 17.8413 51.5783 17.1826 52.1757C15.3909 53.8026 17.4022 58.481 20.362 56.8633C22.224 55.7787 23.5327 55.1261 25.1575 55.9625C22.83 55.8614 21.3457 56.7714 20.5289 57.5618C19.6243 58.481 20.5553 60.3192 22.3646 58.8854C23.3746 58.0306 27.687 55.4846 26.8263 58.9497C26.6594 59.6483 25.0873 60.1722 26.554 60.8891C27.4762 61.2843 27.7222 60.6225 27.8188 59.9975L27.8363 60.0251Z" fill="white"/>
<path fill-rule="evenodd" clip-rule="evenodd" d="M29.4348 18.8296C29.9003 18.8296 30.2692 19.2156 30.2692 19.6935C30.2692 20.1715 29.9003 20.5575 29.4348 20.5575C28.9693 20.5575 28.5653 20.1807 28.5653 19.6935C28.5653 19.2064 28.9693 18.8296 29.4348 18.8296Z" fill="white"/>
<path fill-rule="evenodd" clip-rule="evenodd" d="M27.2742 19.5281C27.7397 19.5281 28.1086 19.9417 28.1086 20.4289C28.1086 20.916 27.7397 21.2928 27.2742 21.2928C26.8087 21.2928 26.4047 20.916 26.4047 20.4289C26.4047 19.9417 26.8087 19.5281 27.2742 19.5281Z" fill="white"/>
<path fill-rule="evenodd" clip-rule="evenodd" d="M25.2717 20.6678C25.7021 20.6678 26.1061 21.0539 26.1061 21.5318C26.1061 22.0098 25.7021 22.4326 25.2717 22.4326C24.8062 22.4326 24.4022 22.019 24.4022 21.5318C24.4022 21.0447 24.7975 20.6678 25.2717 20.6678Z" fill="white"/>
<path fill-rule="evenodd" clip-rule="evenodd" d="M23.5064 22.1292C23.9718 22.1292 24.3407 22.552 24.3407 23.03C24.3407 23.5079 23.9718 23.894 23.5064 23.894C23.0409 23.894 22.6368 23.5171 22.6368 23.03C22.6368 22.5429 23.0409 22.1292 23.5064 22.1292Z" fill="white"/>
<path fill-rule="evenodd" clip-rule="evenodd" d="M22.0044 23.8572C22.4699 23.8572 22.8652 24.2709 22.8652 24.758C22.8652 25.2451 22.4699 25.622 22.0044 25.622C21.5389 25.622 21.17 25.2451 21.17 24.758C21.17 24.2709 21.5389 23.8572 22.0044 23.8572Z" fill="white"/>
<path fill-rule="evenodd" clip-rule="evenodd" d="M20.7748 25.8701C21.2052 25.8701 21.6092 26.2929 21.6092 26.7709C21.6092 27.2212 21.2139 27.6349 20.7748 27.6349C20.3093 27.6349 19.9141 27.2212 19.9141 26.7709C19.9141 26.2837 20.3181 25.8701 20.7748 25.8701Z" fill="white"/>
<path fill-rule="evenodd" clip-rule="evenodd" d="M19.8087 27.9933C20.2742 27.9933 20.6783 28.4069 20.6783 28.8941C20.6783 29.3812 20.2742 29.7581 19.8087 29.7581C19.3432 29.7581 18.9744 29.3812 18.9744 28.8941C18.9744 28.4069 19.3432 27.9933 19.8087 27.9933Z" fill="white"/>
<path fill-rule="evenodd" clip-rule="evenodd" d="M19.1061 30.2452C19.5716 30.2452 19.9405 30.6588 19.9405 31.146C19.9405 31.6331 19.5716 32.0099 19.1061 32.0099C18.6406 32.0099 18.2366 31.6239 18.2366 31.146C18.2366 30.668 18.6406 30.2452 19.1061 30.2452Z" fill="white"/>
<path fill-rule="evenodd" clip-rule="evenodd" d="M18.7108 32.5982C19.1763 32.5982 19.5452 32.9842 19.5452 33.4714C19.5452 33.9585 19.1763 34.3353 18.7108 34.3353C18.2453 34.3353 17.8765 33.9585 17.8765 33.4714C17.8765 32.9842 18.2453 32.5982 18.7108 32.5982Z" fill="white"/>
<path fill-rule="evenodd" clip-rule="evenodd" d="M29.4348 51.2014C29.9003 51.2014 30.2692 51.5875 30.2692 52.0654C30.2692 52.5434 29.9003 52.9662 29.4348 52.9662C28.9693 52.9662 28.5653 52.5526 28.5653 52.0654C28.5653 51.5783 28.9693 51.2014 29.4348 51.2014Z" fill="white"/>
<path fill-rule="evenodd" clip-rule="evenodd" d="M27.2742 50.4753C27.7397 50.4753 28.1086 50.8522 28.1086 51.3393C28.1086 51.8265 27.7397 52.2033 27.2742 52.2033C26.8087 52.2033 26.4047 51.8265 26.4047 51.3393C26.4047 50.8522 26.8087 50.4753 27.2742 50.4753Z" fill="white"/>
<path fill-rule="evenodd" clip-rule="evenodd" d="M25.2717 49.3264C25.7021 49.3264 26.1061 49.7401 26.1061 50.2272C26.1061 50.7143 25.7021 51.0912 25.2717 51.0912C24.8062 51.0912 24.4022 50.7143 24.4022 50.2272C24.4022 49.7401 24.7975 49.3264 25.2717 49.3264Z" fill="white"/>
<path fill-rule="evenodd" clip-rule="evenodd" d="M23.5064 47.8374C23.9718 47.8374 24.3407 48.2143 24.3407 48.7014C24.3407 49.1886 23.9718 49.6022 23.5064 49.6022C23.0409 49.6022 22.6368 49.1886 22.6368 48.7014C22.6368 48.2143 23.0409 47.8374 23.5064 47.8374Z" fill="white"/>
<path fill-rule="evenodd" clip-rule="evenodd" d="M22.0044 45.9624C22.4699 45.9624 22.8388 46.376 22.8388 46.8632C22.8388 47.3503 22.4787 47.7271 22.0044 47.7271C21.5301 47.7271 21.1349 47.3503 21.1349 46.8632C21.1349 46.376 21.5301 45.9624 22.0044 45.9624Z" fill="white"/>
<path fill-rule="evenodd" clip-rule="evenodd" d="M20.7748 43.9863C21.2052 43.9863 21.6092 44.3631 21.6092 44.8503C21.6092 45.3374 21.2139 45.7142 20.7748 45.7142C20.3093 45.7142 19.9141 45.3282 19.9141 44.8503C19.9141 44.3723 20.3181 43.9863 20.7748 43.9863Z" fill="white"/>
<path fill-rule="evenodd" clip-rule="evenodd" d="M19.8087 41.9734C20.2742 41.9734 20.6783 42.3594 20.6783 42.8373C20.6783 43.3153 20.2742 43.6738 19.8087 43.6738C19.3432 43.6738 18.9744 43.3245 18.9744 42.8373C18.9744 42.3502 19.3432 41.9734 19.8087 41.9734Z" fill="white"/>
<path fill-rule="evenodd" clip-rule="evenodd" d="M19.1061 39.6847C19.5716 39.6847 19.9405 40.0708 19.9405 40.5579C19.9405 41.045 19.5716 41.4587 19.1061 41.4587C18.6406 41.4587 18.2366 41.045 18.2366 40.5579C18.2366 40.0708 18.6406 39.6847 19.1061 39.6847Z" fill="white"/>
<path fill-rule="evenodd" clip-rule="evenodd" d="M18.7108 37.3225C19.1763 37.3225 19.5452 37.7362 19.5452 38.2233C19.5452 38.7104 19.1763 39.0873 18.7108 39.0873C18.2453 39.0873 17.8765 38.7104 17.8765 38.2233C17.8765 37.7362 18.2453 37.3225 18.7108 37.3225Z" fill="white"/>
<path fill-rule="evenodd" clip-rule="evenodd" d="M33.7033 18.8296C33.2378 18.8296 32.8777 19.2156 32.8777 19.6935C32.8777 20.1715 33.2378 20.5575 33.7033 20.5575C34.1688 20.5575 34.5377 20.1807 34.5377 19.6935C34.5377 19.2064 34.1688 18.8296 33.7033 18.8296Z" fill="white"/>
<path fill-rule="evenodd" clip-rule="evenodd" d="M35.8727 19.5281C35.4072 19.5281 35.0383 19.9417 35.0383 20.4289C35.0383 20.916 35.4072 21.2928 35.8727 21.2928C36.3382 21.2928 36.7071 20.916 36.7071 20.4289C36.7071 19.9417 36.3382 19.5281 35.8727 19.5281Z" fill="white"/>
<path fill-rule="evenodd" clip-rule="evenodd" d="M37.8664 20.6678C37.4009 20.6678 37.032 21.0539 37.032 21.5318C37.032 22.0098 37.4009 22.4326 37.8664 22.4326C38.3319 22.4326 38.7007 22.019 38.7007 21.5318C38.7007 21.0447 38.3319 20.6678 37.8664 20.6678Z" fill="white"/>
<path fill-rule="evenodd" clip-rule="evenodd" d="M39.6317 22.1292C39.1662 22.1292 38.7974 22.552 38.7974 23.03C38.7974 23.5079 39.1662 23.894 39.6317 23.894C40.0972 23.894 40.4661 23.5171 40.4661 23.03C40.4661 22.5429 40.0972 22.1292 39.6317 22.1292Z" fill="white"/>
<path fill-rule="evenodd" clip-rule="evenodd" d="M41.0985 23.8572C40.633 23.8572 40.2642 24.2709 40.2642 24.758C40.2642 25.2451 40.633 25.622 41.0985 25.622C41.564 25.622 41.9593 25.2451 41.9593 24.758C41.9593 24.2709 41.5553 23.8572 41.0985 23.8572Z" fill="white"/>
<path fill-rule="evenodd" clip-rule="evenodd" d="M42.3633 25.8701C41.8978 25.8701 41.5289 26.2929 41.5289 26.7709C41.5289 27.2212 41.8978 27.6349 42.3633 27.6349C42.8288 27.6349 43.1977 27.2212 43.1977 26.7709C43.1977 26.2837 42.8288 25.8701 42.3633 25.8701Z" fill="white"/>
<path fill-rule="evenodd" clip-rule="evenodd" d="M43.2942 27.9933C42.8287 27.9933 42.4598 28.4069 42.4598 28.8941C42.4598 29.3812 42.8287 29.7581 43.2942 29.7581C43.7597 29.7581 44.1637 29.3812 44.1637 28.8941C44.1637 28.4069 43.7685 27.9933 43.2942 27.9933Z" fill="white"/>
<path fill-rule="evenodd" clip-rule="evenodd" d="M44.032 30.2452C43.5665 30.2452 43.1976 30.6588 43.1976 31.146C43.1976 31.6331 43.5665 32.0099 44.032 32.0099C44.4975 32.0099 44.8664 31.6239 44.8664 31.146C44.8664 30.668 44.4975 30.2452 44.032 30.2452Z" fill="white"/>
<path fill-rule="evenodd" clip-rule="evenodd" d="M44.436 32.5982C43.9705 32.5982 43.5665 32.9842 43.5665 33.4714C43.5665 33.9585 43.9705 34.3353 44.436 34.3353C44.9015 34.3353 45.2704 33.9585 45.2704 33.4714C45.2704 32.9842 44.9015 32.5982 44.436 32.5982Z" fill="white"/>
<path fill-rule="evenodd" clip-rule="evenodd" d="M33.7033 51.2014C33.2378 51.2014 32.8777 51.5875 32.8777 52.0654C32.8777 52.5434 33.2378 52.9662 33.7033 52.9662C34.1688 52.9662 34.5377 52.5526 34.5377 52.0654C34.5377 51.5783 34.1688 51.2014 33.7033 51.2014Z" fill="white"/>
<path fill-rule="evenodd" clip-rule="evenodd" d="M35.8727 50.4753C35.4072 50.4753 35.0383 50.8522 35.0383 51.3393C35.0383 51.8265 35.4072 52.2033 35.8727 52.2033C36.3382 52.2033 36.7071 51.8265 36.7071 51.3393C36.7071 50.8522 36.3382 50.4753 35.8727 50.4753Z" fill="white"/>
<path fill-rule="evenodd" clip-rule="evenodd" d="M37.8664 49.3264C37.4009 49.3264 37.032 49.7401 37.032 50.2272C37.032 50.7143 37.4009 51.0912 37.8664 51.0912C38.3319 51.0912 38.7007 50.7143 38.7007 50.2272C38.7007 49.7401 38.3319 49.3264 37.8664 49.3264Z" fill="white"/>
<path fill-rule="evenodd" clip-rule="evenodd" d="M39.6317 47.8374C39.1662 47.8374 38.7974 48.2143 38.7974 48.7014C38.7974 49.1886 39.1662 49.6022 39.6317 49.6022C40.0972 49.6022 40.4661 49.1886 40.4661 48.7014C40.4661 48.2143 40.0972 47.8374 39.6317 47.8374Z" fill="white"/>
<path fill-rule="evenodd" clip-rule="evenodd" d="M41.1337 45.9624C40.6682 45.9624 40.2993 46.376 40.2993 46.8632C40.2993 47.3503 40.6682 47.7271 41.1337 47.7271C41.5992 47.7271 41.9681 47.3503 41.9681 46.8632C41.9681 46.376 41.5992 45.9624 41.1337 45.9624Z" fill="white"/>
<path fill-rule="evenodd" clip-rule="evenodd" d="M42.3633 43.9863C41.8978 43.9863 41.5289 44.3631 41.5289 44.8503C41.5289 45.3374 41.8978 45.7142 42.3633 45.7142C42.8288 45.7142 43.1977 45.3282 43.1977 44.8503C43.1977 44.3723 42.8288 43.9863 42.3633 43.9863Z" fill="white"/>
<path fill-rule="evenodd" clip-rule="evenodd" d="M43.2942 41.9734C42.8287 41.9734 42.4598 42.3594 42.4598 42.8373C42.4598 43.3153 42.8287 43.6738 43.2942 43.6738C43.7597 43.6738 44.1637 43.3245 44.1637 42.8373C44.1637 42.3502 43.7685 41.9734 43.2942 41.9734Z" fill="white"/>
<path fill-rule="evenodd" clip-rule="evenodd" d="M44.032 39.6847C43.5665 39.6847 43.1976 40.0708 43.1976 40.5579C43.1976 41.045 43.5665 41.4587 44.032 41.4587C44.4975 41.4587 44.8664 41.045 44.8664 40.5579C44.8664 40.0708 44.4975 39.6847 44.032 39.6847Z" fill="white"/>
<path fill-rule="evenodd" clip-rule="evenodd" d="M44.436 37.3225C43.9705 37.3225 43.5665 37.7362 43.5665 38.2233C43.5665 38.7104 43.9705 39.0873 44.436 39.0873C44.9015 39.0873 45.2704 38.7104 45.2704 38.2233C45.2704 37.7362 44.9015 37.3225 44.436 37.3225Z" fill="white"/>
<path d="M30.928 30.3647C30.8051 29.6845 30.3308 29.5283 30.12 29.5191C29.2153 29.4639 29.4876 30.8978 28.987 29.7581C28.46 28.554 28.785 26.4492 30.7699 26.9455V26.9179C29.3295 24.5925 30.1902 22.3039 31.534 21.1366C31.5604 21.109 31.5955 21.0814 31.6306 21.0539C27.529 21.0906 24.9995 23.6918 23.4362 25.7047L30.9631 35.0982V30.8518C30.9631 30.7232 30.9456 30.5577 30.9368 30.3647H30.928Z" fill="white"/>
<path fill-rule="evenodd" clip-rule="evenodd" d="M30.9631 35.0982H27.6959C25.9481 35.0982 26.6068 33.2324 27.3006 32.8464C26.7649 31.771 24.3935 31.9824 24.9644 34.8225C22.9004 32.7728 20.8364 34.2986 20.2391 35.7968H30.9719V35.0982H30.9631Z" fill="white"/>
<path d="M27.3006 38.7564C26.7649 39.8318 24.3935 39.6204 24.9644 36.7802C22.9004 38.8299 20.8364 37.3042 20.2391 35.806C20.0371 39.6571 22.0396 44.455 23.4976 45.9808L30.9631 36.5045H27.6959C25.9481 36.5045 26.6068 38.3704 27.3006 38.7564Z" fill="white"/>
<path fill-rule="evenodd" clip-rule="evenodd" d="M32.2981 35.7968V30.6864C32.2981 29.7305 32.8954 29.5191 33.1325 29.5099C34.0371 29.4547 33.7649 30.8886 34.2655 29.7489C34.8013 28.5356 34.4675 26.4216 32.465 26.9455C33.9669 24.5466 33.0271 22.1936 31.6306 21.0539V35.806H32.3069L32.2981 35.7968Z" fill="white"/>
<path d="M32.3333 41.2381C32.4562 41.9182 32.9305 42.0745 33.1413 42.0837C34.0459 42.1388 33.7737 40.705 34.2743 41.8447C34.8013 43.0488 34.4763 45.1536 32.4913 44.6572V44.6848C33.9317 47.0102 33.071 49.2989 31.7272 50.4662C31.7009 50.4937 31.6657 50.5213 31.6306 50.5489C35.7323 50.5121 38.2617 47.911 39.8251 45.8981L32.2981 36.5045V40.7509C32.2981 40.8796 32.3157 41.045 32.3245 41.2381H32.3333Z" fill="white"/>
<path fill-rule="evenodd" clip-rule="evenodd" d="M32.2981 36.4953H35.5653C37.3132 36.4953 36.6544 38.3612 35.9606 38.7472C36.4963 39.8226 38.8677 39.6112 38.2968 36.7711C40.3608 38.8207 42.4248 37.295 43.0221 35.7968H32.2893V36.4953H32.2981Z" fill="white"/>
<path d="M35.9694 32.8463C36.5051 31.771 38.8765 31.9824 38.3056 34.8225C40.3696 32.7728 42.4336 34.2986 43.0309 35.7968C43.2329 31.9456 41.2304 27.1477 39.7724 25.6219L32.3069 35.0982H35.5741C37.3219 35.0982 36.6632 33.2324 35.9694 32.8463Z" fill="white"/>
<path fill-rule="evenodd" clip-rule="evenodd" d="M30.9631 35.7968V40.9071C30.9631 41.863 30.3658 42.0744 30.1287 42.0836C29.2241 42.1388 29.4963 40.7049 28.9957 41.8447C28.4599 43.0579 28.7937 45.1719 30.7962 44.648C29.2943 47.047 30.2341 49.3999 31.6306 50.5397V35.7876H30.9543L30.9631 35.7968Z" fill="white"/>
<path d="M32.5176 15.8975C32.544 14.8957 32.2278 14.1512 31.6305 13.8846C31.0333 14.1512 30.7259 14.8957 30.7435 15.8975C29.6807 15.8608 28.5038 16.9545 29.3645 18.4619C29.9266 17.506 30.7435 17.7358 30.7435 18.5538C30.7435 19.3535 30.7435 19.6752 30.7435 20.4013H32.5088C32.5088 19.6752 32.5088 19.3627 32.5088 18.5538C32.5088 17.7358 33.3256 17.506 33.8877 18.4619C34.7397 16.9545 33.5716 15.8608 32.5088 15.8975H32.5176Z" fill="white"/>
<path d="M14.7761 34.9144C13.81 34.8868 13.1074 35.2085 12.8439 35.8335C13.1074 36.4585 13.81 36.7802 14.7761 36.7527C14.741 37.8648 15.7862 39.0873 17.2353 38.1957C16.3219 37.6075 16.5415 36.7343 17.3232 36.7343C18.0961 36.7343 18.6758 36.7343 19.3696 36.7343V34.9052C18.6758 34.9052 18.0873 34.9052 17.3232 34.9052C16.5327 34.9052 16.3131 34.0504 17.2353 33.4622C15.7862 32.5706 14.741 33.7931 14.7761 34.9052V34.9144Z" fill="white"/>
<path d="M48.3358 36.7618C49.3019 36.7894 50.0046 36.4677 50.268 35.8427C50.0046 35.2177 49.3019 34.896 48.3358 34.9236C48.3709 33.8114 47.317 32.589 45.8766 33.4805C46.79 34.0688 46.5704 34.942 45.7887 34.942C45.0158 34.942 44.4362 34.942 43.7423 34.942V36.771C44.4362 36.771 45.0246 36.771 45.7887 36.771C46.5792 36.771 46.7988 37.6258 45.8766 38.2141C47.3258 39.1056 48.3709 37.8832 48.3358 36.771V36.7618Z" fill="white"/>
<path d="M30.7435 55.8431C30.7171 56.8449 31.0333 57.5894 31.6305 57.856C32.2278 57.5894 32.5352 56.8449 32.5176 55.8431C33.5803 55.8798 34.7573 54.7861 33.8965 53.2787C33.3344 54.2346 32.5 54.0048 32.5 53.1868C32.5 52.3871 32.5 52.0654 32.5 51.3393H30.7435C30.7435 52.0654 30.7435 52.3779 30.7435 53.1868C30.7435 54.0048 29.9266 54.2346 29.3645 53.2787C28.5126 54.7861 29.6807 55.8798 30.7435 55.8431Z" fill="white"/>
<path fill-rule="evenodd" clip-rule="evenodd" d="M31.6394 13.4802C33.2906 13.4802 34.7837 14.1328 35.8728 15.1898L36.3734 14.6751C35.1526 13.4986 33.4838 12.7633 31.6394 12.7633C29.795 12.7633 28.1262 13.4894 26.9054 14.6659L27.406 15.1806C28.4951 14.1236 29.997 13.471 31.6394 13.471V13.4802Z" fill="white"/>
<path fill-rule="evenodd" clip-rule="evenodd" d="M31.6305 13.4802C29.9793 13.4802 28.4862 14.1328 27.3971 15.1898L26.8965 14.6751C28.1173 13.4986 29.7861 12.7633 31.6305 12.7633C33.4749 12.7633 35.1437 13.4894 36.3645 14.6659L35.8639 15.1806C34.7748 14.1236 33.2729 13.471 31.6305 13.471V13.4802Z" fill="white"/>
<path fill-rule="evenodd" clip-rule="evenodd" d="M41.8012 7.34958C41.5816 5.80544 39.5 6.19147 38.6042 6.5867C37.5327 7.05546 36.4699 7.13818 35.3369 6.66023C31.7886 5.25396 34.6167 1.63257 36.3118 1.33845C36.6632 1.27411 36.347 0.888071 35.6707 1.21896C35.0734 1.51308 34.6343 1.77044 34.6694 1.69691C35.6619 -0.178125 36.9706 -0.343569 37.6205 0.446886C37.8664 0.7502 37.7786 1.08109 37.2428 1.57742C34.7133 3.90283 37.234 4.72086 39.3332 4.68409C42.0647 4.92307 43.9969 6.24662 43.628 10.4838C45.0948 7.63451 51.8225 6.32015 53.3508 12.1475C53.5528 13.3975 53.6845 14.3718 53.3156 16.3847C53.0873 17.0464 53.8865 17.7909 54.8175 17.9104C54.1851 18.5906 53.4825 18.4987 52.8501 17.6715C53.0521 19.0593 52.7799 20.7689 54.7472 21.1734C59.1826 21.7248 55.9154 25.1624 51.9806 22.7359C50.6456 21.8903 49.2228 19.9877 49.943 17.5979C45.5778 18.2229 45.8501 12.9839 46.7811 13.8203C47.879 14.8313 50.2152 14.9416 50.6456 13.4434C46.5703 15.5299 46.4737 10.9342 47.6858 12.2669C49.4511 14.2063 51.7523 11.2191 49.3457 9.94154C50.2767 11.2191 49.8639 11.9453 49.1789 12.2302C48.4411 12.5335 47.2817 11.9544 47.9492 11.0813C48.8802 9.89558 47.027 9.59227 45.9819 10.1437C45.1826 10.6677 44.8137 11.118 43.7159 13.0942C43.1011 11.6327 42.0735 11.2375 40.7209 11.2927C42.2842 8.93049 40.352 8.24114 39.7548 9.06836C39.2805 9.69337 38.6745 9.31653 38.7271 8.61799C38.692 6.53155 40.6243 6.29258 41.7924 7.36796L41.8012 7.34958Z" fill="white"/>
<path fill-rule="evenodd" clip-rule="evenodd" d="M40.8965 21.4307C39.5 20.4564 38.1035 19.5189 36.6982 18.5538C38.9994 16.8902 40.6945 15.4288 42.1964 13.9765C42.3984 13.7284 42.2666 13.5262 41.968 13.7008C40.6681 14.7394 39.6054 15.6494 38.3055 16.688H37.5063C37.5414 16.0997 37.5063 15.4747 37.5063 15.0243C38.4724 14.9232 40.1675 14.5004 40.6769 13.8754C41.1775 13.2596 39.3331 13.4618 39.9128 12.6989C41.4937 10.6952 44.2428 13.085 42.978 14.3993C42.17 15.199 41.4849 15.7505 40.712 16.4122C42.4159 15.5391 44.1462 14.5372 45.8501 13.2137C45.7798 13.8019 45.6832 14.4269 45.6129 15.0519C44.0496 15.8516 42.4511 16.5409 40.8526 17.2027C40.6154 17.2395 40.6506 17.6898 40.8526 17.6898C42.3896 16.6145 44.0496 16.2652 45.086 16.5777C46.3244 16.927 46.1575 18.3148 45.1826 18.7652C45.086 19.1513 45.6481 19.0042 46.2892 18.802C46.0521 20.291 44.4536 19.7763 44.5502 20.052C44.6205 20.291 45.6832 20.1899 45.8501 20.1164C45.4197 21.4031 44.0496 21.0171 44.0496 21.2285C44.0496 21.4767 44.4536 21.541 44.7171 21.5778C44.4536 21.8903 44.0144 22.2396 43.1888 22.0373C43.1186 22.0006 42.9254 22.0373 43.0571 22.1384C43.1186 22.2396 43.2855 22.3498 43.5577 22.3866C42.8287 22.6624 42.1612 22.451 41.7572 22.1384C41.3532 21.8259 41.2917 21.2745 41.3269 21.302C41.6957 21.6513 42.0558 21.6881 42.0295 21.6513C41.5025 21.2377 40.9668 20.1255 42.2315 19.3627C42.2666 19.4638 42.3632 19.8866 42.5653 20.0152C42.7321 20.1164 42.8024 20.1531 42.7321 19.9509C42.6267 19.5005 42.5301 18.7744 43.2328 18.4895C43.1713 18.6641 43.3294 19.2248 43.5314 19.2891C43.628 19.3259 43.7334 19.3259 43.6983 19.2616C43.6016 18.9766 43.1274 17.9748 43.8915 17.8001C43.9969 17.9748 43.9617 18.3884 44.559 18.4251C46.1311 16.5501 42.293 16.5869 42.495 17.5244C42.6619 17.5979 42.8287 17.6715 42.9956 17.7358C42.5301 18.2597 42.0295 18.8479 41.564 19.3994C40.8262 19.1237 40.1236 18.7744 39.4034 18.4987C39.3331 18.5998 39.0696 18.8847 38.9642 18.9858C39.5703 19.3351 40.2641 19.7119 40.8965 20.0612C40.8614 20.5851 40.9316 20.9344 40.9316 21.4491L40.8965 21.4307Z" fill="white"/>
<path fill-rule="evenodd" clip-rule="evenodd" d="M46.0609 31.6974C45.7974 30.2728 45.5251 28.7838 44.9279 27.5981C45.2616 27.3224 45.7008 27.0834 46.0257 26.7985C45.5251 26.872 45.1299 26.9271 44.6292 26.9915C44.2955 25.9896 43.6368 24.951 42.6531 23.7837C42.6531 23.7469 44.1725 23.5631 47.9492 24.5466C45.4197 23.5723 45.4636 21.9087 46.0521 21.1826C47.0358 19.9693 48.7133 21.3572 48.7133 21.3572C48.7133 21.3572 48.7836 20.9436 48.362 20.6586C47.6769 20.1807 46.9128 20.5483 47.0094 20.484C47.8438 19.7211 49.1085 19.9693 49.6443 21.0447C50.1449 22.0833 49.3193 23.7929 47.8087 22.8094C48.3181 21.9087 47.6857 21.5042 47.2114 21.5962C46.702 21.6881 46.3858 22.2396 46.8777 22.9197C47.6769 24.0962 49.7585 24.1697 51.5414 24.3719C56.3369 25.0337 58.638 33.1864 51.1374 33.9493C53.4385 32.6993 53.4385 28.8849 50.9354 28.8114C49.5653 28.7838 48.6957 30.6496 50.303 31.2103C49.7585 30.6864 49.9078 29.657 50.6104 29.611C53.3507 29.5375 51.9454 34.8685 48.8451 32.9107C43.9178 29.1331 51.884 23.1955 53.9128 29.4456C54.2729 25.9896 46.8162 23.1679 46.0521 31.6974H46.0609Z" fill="white"/>
<path fill-rule="evenodd" clip-rule="evenodd" d="M60.2541 45.7142C61.1236 44.262 60.4913 41.863 58.8928 41.863C57.2855 41.8906 57.3997 44.2528 58.559 44.0873C59.4988 43.9495 60.5879 44.6756 60.2541 45.7142Z" fill="white"/>
<path fill-rule="evenodd" clip-rule="evenodd" d="M59.3934 38.8115C58.6908 37.0744 57.5315 36.385 56.0998 36.385C54.9054 36.385 54.2993 36.9457 53.9305 37.4972C52.3407 40.0615 55.3533 42.534 57.2328 38.7748C57.6983 37.9935 58.5679 38.3244 59.4022 38.8115H59.3934Z" fill="white"/>
<path fill-rule="evenodd" clip-rule="evenodd" d="M60.4912 41.5229C60.5263 39.9972 59.5866 39.1975 58.8224 39.0597C58.0583 38.931 57.6543 39.2251 57.4172 39.5376C56.3896 40.9255 58.1813 42.6259 59.1211 40.7141C59.3933 40.1626 60.1223 40.613 60.4912 41.5138V41.5229Z" fill="white"/>
<path fill-rule="evenodd" clip-rule="evenodd" d="M49.9254 38.9862C50.4875 37.9108 51.2692 37.5431 51.9543 37.6626C52.4198 37.7637 52.7535 37.92 52.9555 38.4255C53.3859 39.8501 51.7874 40.2638 51.3922 39.0597C51.2253 38.5082 50.4524 38.4623 49.9254 38.9862Z" fill="white"/>
<path fill-rule="evenodd" clip-rule="evenodd" d="M35.4335 60.0251C33.7033 50.7235 41.968 53.389 44.9982 43.9219C45.367 45.4109 45.2968 46.7712 44.7347 47.9109C44.9015 47.7363 44.9982 47.8006 45.2002 47.387C45.9643 45.5855 46.5615 42.6351 46.9041 39.7582C47.2378 39.3446 48.9066 38.931 48.7748 39.795C48.2742 42.9568 48.0019 44.6756 47.8877 45.7877C47.8438 46.1921 48.7485 42.6167 49.2842 40.3465C49.6531 38.9402 51.9103 39.0597 51.4185 40.7693C50.9179 42.295 50.549 42.9476 50.0483 44.4458C50.7949 43.1866 51.6117 42.0652 51.9806 40.5211C52.4549 40.7049 52.9819 40.567 53.2453 40.42C53.3947 40.3373 53.3156 40.8336 53.096 41.5229C52.613 42.9568 51.8225 43.7105 50.8827 44.887C51.9806 44.0873 53.3771 42.488 53.7108 41.0358C54.475 41.5229 55.3445 41.4862 56.1788 41.3115C55.4499 43.2601 54.0095 44.2803 52.2704 45.5947C51.9718 45.8337 51.1726 46.4863 50.9091 46.7528C53.1399 45.6407 55.406 44.3539 56.8024 41.0266C56.9693 41.4127 57.1713 41.9641 57.7071 42.1388C57.2767 42.8005 57.3733 43.7013 57.5402 44.5285C56.4687 46.2289 52.7447 47.0929 51.1374 47.4422C51.032 47.4789 55.3708 47.4789 58.0057 44.7399C58.884 43.9035 60.4386 45.2454 59.6393 46.4771C58.6029 48.1039 56.0998 48.3705 51.4361 48.2418C51.4185 48.4165 62.0634 48.8484 62.9681 48.8301C63.6619 48.8301 63.1525 51.4864 61.5101 51.275C57.347 50.7878 56.9869 50.4845 55.6343 50.1812C54.9317 50.0249 57.9706 51.2198 60.7723 51.7713C60.7021 52.7088 58.7698 53.4073 57.0747 52.7456C54.9492 51.9459 51.8664 49.2988 50.4085 50.0433C50.2064 50.1444 51.278 49.8595 52.9731 51.0084C54.756 52.2217 56.8727 53.5452 57.0044 53.6463C54.9668 56.946 53.0697 52.8099 49.7409 51.1463C48.9066 50.7143 48.1864 50.5764 48.6079 50.7602C57.7071 55.4846 49.7409 61.9369 47.2466 56.4129C50.3382 57.8651 51.5063 55.4111 50.0747 53.3246C50.9442 56.6519 48.16 56.9092 47.0534 55.696C50.3821 54.1702 47.4574 50.9257 44.8928 50.7694C42.7585 50.7051 41.9153 52.9937 43.2679 54.0691C43.4524 54.2621 42.214 52.4974 43.6368 51.8356C44.8664 51.2841 45.4285 51.5783 46.0872 52.1757C47.879 53.8026 45.8677 58.481 42.9078 56.8633C41.0458 55.7787 39.7372 55.1261 38.1123 55.9625C40.4398 55.8614 41.9241 56.7714 42.7409 57.5618C43.6456 58.481 42.7146 60.3192 40.9053 58.8854C39.8953 58.0306 35.5828 55.4846 36.4436 58.9497C36.6104 59.6483 38.1826 60.1722 36.7158 60.8891C35.7936 61.2843 35.5477 60.6225 35.4511 59.9975L35.4335 60.0251Z" fill="white"/>
<path d="M74.9305 24.8775C71.8301 24.8775 71.1274 23.1127 71.1274 21.155V14.4545H73.0246V21.0263C73.0246 22.3131 73.4286 23.2322 75.0622 23.2322C76.5202 23.2322 77.1262 22.598 77.1262 20.8517V14.4545H79.0057V20.723C79.0057 23.5355 77.5214 24.8683 74.9305 24.8683V24.8775Z" fill="white"/>
<path d="M85.1801 24.7028V19.8774C85.1801 19.0869 84.9781 18.6182 84.2931 18.6182C83.3445 18.6182 82.6067 19.7395 82.6067 21.0631V24.712H80.7448V17.1659H82.5101C82.5101 17.5152 82.4838 18.1034 82.4047 18.4987L82.4223 18.5171C82.8614 17.6163 83.7046 17.0005 84.8815 17.0005C86.5151 17.0005 87.0333 18.0943 87.0333 19.4178V24.7212H85.1801V24.7028Z" fill="white"/>
<path d="M89.6946 16.1825C89.0535 16.1825 88.5441 15.6494 88.5441 14.9968C88.5441 14.3442 89.0535 13.8295 89.6946 13.8295C90.3358 13.8295 90.8628 14.3442 90.8628 14.9968C90.8628 15.6494 90.3358 16.1825 89.6946 16.1825ZM88.7636 24.7028V17.1567H90.6256V24.7028H88.7636Z" fill="white"/>
<path d="M95.9568 24.7028H94.0684L91.3896 17.1567H93.4273L94.5779 20.5575C94.7535 21.0722 94.9292 21.6789 95.0609 22.2304H95.0873C95.2014 21.7156 95.3508 21.1366 95.5264 20.6219L96.6946 17.1567H98.6707L95.9656 24.7028H95.9568Z" fill="white"/>
<path d="M105.021 21.2469H100.533C100.515 22.6624 101.191 23.3425 102.526 23.3425C103.238 23.3425 104.011 23.1771 104.634 22.8738L104.81 24.3811C104.037 24.7028 103.124 24.8683 102.219 24.8683C99.9179 24.8683 98.6356 23.6734 98.6356 21.0079C98.6356 18.7009 99.8565 17.0005 102.026 17.0005C104.195 17.0005 105.065 18.5079 105.065 20.3737C105.065 20.6311 105.047 20.9344 105.003 21.2561L105.021 21.2469ZM101.982 18.4251C101.209 18.4251 100.673 19.0134 100.568 19.9325H103.229C103.255 18.995 102.764 18.4251 101.973 18.4251H101.982Z" fill="white"/>
<path d="M110.22 18.9031C108.877 18.6182 108.209 19.5281 108.209 21.6237V24.7028H106.347V17.1567H108.112C108.112 17.5336 108.069 18.1402 107.981 18.6733H108.007C108.358 17.7174 109.052 16.881 110.308 16.9913L110.22 18.9031Z" fill="white"/>
<path d="M112.469 24.8591C111.942 24.8591 111.424 24.7947 110.958 24.7212L111.002 23.1219C111.45 23.2414 112.003 23.3517 112.557 23.3517C113.268 23.3517 113.734 23.0484 113.734 22.5428C113.734 21.2101 110.809 21.9638 110.809 19.3994C110.809 18.0759 111.845 16.9821 113.883 16.9821C114.304 16.9821 114.77 17.0464 115.209 17.12L115.148 18.6549C114.744 18.5354 114.261 18.4527 113.804 18.4527C113.075 18.4527 112.724 18.756 112.724 19.2248C112.724 20.4564 115.692 19.9049 115.692 22.3498C115.692 23.8388 114.436 24.8407 112.46 24.8407L112.469 24.8591Z" fill="white"/>
<path d="M117.932 16.1825C117.291 16.1825 116.781 15.6494 116.781 14.9968C116.781 14.3442 117.291 13.8295 117.932 13.8295C118.573 13.8295 119.1 14.3442 119.1 14.9968C119.1 15.6494 118.573 16.1825 117.932 16.1825ZM117.001 24.7028V17.1567H118.863V24.7028H117.001Z" fill="white"/>
<path d="M124.949 24.7028C124.949 24.3352 124.976 23.848 125.037 23.4436H125.011C124.633 24.28 123.834 24.8683 122.727 24.8683C120.962 24.8683 120.092 23.4896 120.092 21.3296C120.092 18.7744 121.515 17.0189 123.922 17.0189C124.229 17.0189 124.519 17.0373 124.835 17.0832V13.6181H126.688V24.7028H124.958H124.949ZM124.835 18.6733C124.501 18.5998 124.176 18.5538 123.86 18.5538C122.797 18.5538 122.042 19.2524 122.042 21.1182C122.042 22.5337 122.437 23.2598 123.28 23.2598C124.255 23.2598 124.835 22.0741 124.835 20.7873V18.6733Z" fill="white"/>
<path d="M132.283 24.7028C132.283 24.2616 132.301 23.8204 132.353 23.4252L132.336 23.4068C131.985 24.2616 131.097 24.8499 130.017 24.8499C128.708 24.8499 127.953 24.0778 127.953 22.8645C127.953 21.0538 129.675 20.0979 132.134 20.0979V19.6843C132.134 18.8939 131.774 18.4895 130.72 18.4895C130.061 18.4895 129.192 18.7192 128.577 19.0777L128.419 17.4508C129.148 17.1751 130.079 16.9821 131.01 16.9821C133.337 16.9821 133.996 17.9656 133.996 19.6108V22.7542C133.996 23.3609 134.013 24.0778 134.04 24.6936H132.274L132.283 24.7028ZM132.134 21.3572C130.166 21.3572 129.727 21.9454 129.727 22.5612C129.727 23.0484 130.043 23.3701 130.588 23.3701C131.501 23.3701 132.134 22.4601 132.134 21.5502V21.3664V21.3572Z" fill="white"/>
<path d="M140.117 24.7028C140.117 24.3352 140.144 23.848 140.205 23.4436H140.179C139.801 24.28 139.002 24.8683 137.895 24.8683C136.13 24.8683 135.26 23.4896 135.26 21.3296C135.26 18.7744 136.683 17.0189 139.09 17.0189C139.397 17.0189 139.687 17.0373 140.003 17.0832V13.6181H141.856V24.7028H140.126H140.117ZM140.003 18.6733C139.67 18.5998 139.345 18.5538 139.028 18.5538C137.966 18.5538 137.21 19.2524 137.21 21.1182C137.21 22.5337 137.606 23.2598 138.449 23.2598C139.424 23.2598 140.003 22.0741 140.003 20.7873V18.6733Z" fill="white"/>
<path d="M152.027 24.7028C152.027 24.3352 152.053 23.848 152.115 23.4436H152.089C151.711 24.28 150.912 24.8683 149.805 24.8683C148.04 24.8683 147.17 23.4896 147.17 21.3296C147.17 18.7744 148.593 17.0189 151 17.0189C151.307 17.0189 151.597 17.0373 151.913 17.0832V13.6181H153.766V24.7028H152.036H152.027ZM151.913 18.6733C151.579 18.5998 151.254 18.5538 150.938 18.5538C149.875 18.5538 149.12 19.2524 149.12 21.1182C149.12 22.5337 149.515 23.2598 150.358 23.2598C151.333 23.2598 151.913 22.0741 151.913 20.7873V18.6733Z" fill="white"/>
<path d="M161.513 21.2469H157.025C157.007 22.6624 157.683 23.3425 159.018 23.3425C159.73 23.3425 160.503 23.1771 161.126 22.8738L161.302 24.3811C160.529 24.7028 159.616 24.8683 158.711 24.8683C156.41 24.8683 155.128 23.6734 155.128 21.0079C155.128 18.7009 156.348 17.0005 158.518 17.0005C160.687 17.0005 161.557 18.5079 161.557 20.3737C161.557 20.6311 161.539 20.9344 161.495 21.2561L161.513 21.2469ZM158.465 18.4251C157.692 18.4251 157.156 19.0134 157.051 19.9325H159.712C159.739 18.995 159.247 18.4251 158.456 18.4251H158.465Z" fill="white"/>
<path d="M162.839 24.7028V13.6181H164.701V24.7028H162.839Z" fill="white"/>
<path d="M81.2366 52.2309L75.352 43.1315H75.1939V52.2309H71.1274V30.2085C72.7874 30.1073 74.7548 30.0798 77.1965 30.0798C81.8602 30.0798 84.8552 31.7802 84.8552 36.2747C84.8552 39.5377 82.6682 41.8815 79.4712 42.4054C80.0685 43.2234 80.6569 44.069 81.1927 44.8227L86.2605 52.2309H81.2278H81.2366ZM76.7924 33.5357C76.1952 33.5357 75.6067 33.5725 75.1939 33.6368V39.9972C75.475 40.034 76.0371 40.0616 76.6607 40.0616C79.1024 40.0616 80.6042 38.7564 80.6042 36.6975C80.6042 34.6387 79.3483 33.5357 76.7924 33.5357Z" fill="white"/>
<path d="M93.7435 52.5526C89.3344 52.5526 86.4888 50.172 86.4888 44.3999C86.4888 39.3446 89.7121 35.6865 94.4373 35.6865C98.8464 35.6865 101.692 38.2325 101.692 43.8116C101.692 48.9036 98.4072 52.5526 93.7435 52.5526ZM94.1475 39.2067C92.3646 39.2067 90.6168 40.6406 90.6168 43.9679C90.6168 47.2951 91.7761 48.9955 94.086 48.9955C96.0534 48.9955 97.5553 47.3319 97.5553 44.0322C97.5553 40.7325 96.4925 39.2067 94.1475 39.2067Z" fill="white"/>
<path d="M106.971 52.5526C105.846 52.5526 104.722 52.4239 103.721 52.2585L103.818 48.8301C104.784 49.0875 105.978 49.3172 107.164 49.3172C108.692 49.3172 109.693 48.6647 109.693 47.5893C109.693 44.7124 103.405 46.3484 103.405 40.8336C103.405 37.9935 105.627 35.6497 110.001 35.6497C110.905 35.6497 111.907 35.7784 112.846 35.9438L112.723 39.2435C111.845 38.9862 110.818 38.8207 109.843 38.8207C108.279 38.8207 107.524 39.4733 107.524 40.4844C107.524 43.1315 113.909 41.955 113.909 47.2032C113.909 50.4018 111.222 52.5526 106.962 52.5526H106.971Z" fill="white"/>
<path d="M125.02 52.2309C125.02 51.2842 125.055 50.3375 125.178 49.4919L125.143 49.4551C124.387 51.2842 122.481 52.5526 120.171 52.5526C117.352 52.5526 115.727 50.889 115.727 48.2786C115.727 44.3907 119.416 42.341 124.703 42.341V41.4586C124.703 39.7582 123.922 38.8851 121.673 38.8851C120.268 38.8851 118.389 39.3722 117.071 40.1535L116.729 36.6608C118.292 36.0725 120.294 35.6497 122.297 35.6497C127.303 35.6497 128.708 37.7729 128.708 41.2932V48.0488C128.708 49.354 128.744 50.889 128.805 52.2217H125.02V52.2309ZM124.703 45.0525C120.479 45.0525 119.539 46.3209 119.539 47.6352C119.539 48.683 120.224 49.3632 121.384 49.3632C123.351 49.3632 124.703 47.4054 124.703 45.4477V45.0525Z" fill="white"/>
<path d="M140.776 39.7674C137.895 39.1516 136.464 41.1094 136.464 45.6039V52.2309H132.459V36.0174H136.244C136.244 36.8354 136.148 38.1406 135.963 39.2803H136.025C136.78 37.2214 138.273 35.4291 140.969 35.6589L140.785 39.7674H140.776Z" fill="white"/>
<path d="M144.931 33.9218C143.552 33.9218 142.463 32.782 142.463 31.3758C142.463 29.9695 143.56 28.8665 144.931 28.8665C146.301 28.8665 147.434 29.9787 147.434 31.3758C147.434 32.7728 146.309 33.9218 144.931 33.9218ZM142.928 52.2217V36.0082H146.933V52.2217H142.928Z" fill="white"/>
<path d="M156.752 52.5526C152.343 52.5526 149.498 50.172 149.498 44.3999C149.498 39.3446 152.721 35.6865 157.446 35.6865C161.855 35.6865 164.701 38.2325 164.701 43.8116C164.701 48.9036 161.416 52.5526 156.752 52.5526ZM157.156 39.2067C155.373 39.2067 153.626 40.6406 153.626 43.9679C153.626 47.2951 154.785 48.9955 157.095 48.9955C159.062 48.9955 160.564 47.3319 160.564 44.0322C160.564 40.7325 159.501 39.2067 157.156 39.2067Z" fill="white"/>
<path d="M203.434 21.3572H197.742V26.8628H204.084V28.5172H195.854V13.2504H203.759V14.9049H197.742V19.7303H203.434V21.3572Z" fill="white"/>
<path d="M206.218 26.4767C206.78 26.8628 207.781 27.2672 208.739 27.2672C210.126 27.2672 210.776 26.5411 210.776 25.6403C210.776 24.6844 210.232 24.1697 208.827 23.6274C206.938 22.9289 206.051 21.8351 206.051 20.5207C206.051 18.756 207.421 17.3038 209.679 17.3038C210.741 17.3038 211.681 17.6163 212.261 17.9839L211.786 19.4362C211.374 19.1604 210.618 18.802 209.635 18.802C208.502 18.802 207.878 19.4821 207.878 20.3001C207.878 21.2101 208.51 21.6145 209.872 22.1568C211.699 22.8829 212.63 23.8296 212.63 25.4657C212.63 27.3867 211.198 28.747 208.704 28.747C207.553 28.747 206.49 28.4529 205.753 28.0025L206.227 26.4859L206.218 26.4767Z" fill="white"/>
<path d="M222.572 28.1036C222.071 28.3794 220.965 28.7378 219.551 28.7378C216.38 28.7378 214.316 26.4951 214.316 23.1403C214.316 19.7855 216.529 17.3222 219.963 17.3222C221.096 17.3222 222.089 17.6163 222.616 17.892L222.185 19.4362C221.729 19.1604 221.009 18.9123 219.972 18.9123C217.566 18.9123 216.257 20.7689 216.257 23.0576C216.257 25.5944 217.82 27.1569 219.902 27.1569C220.991 27.1569 221.702 26.8628 222.247 26.6146L222.572 28.1128V28.1036Z" fill="white"/>
<path d="M233.603 25.53C233.603 26.6606 233.621 27.6624 233.691 28.5172H231.996L231.891 26.7249H231.847C231.346 27.6073 230.239 28.7654 228.369 28.7654C226.717 28.7654 224.741 27.8095 224.741 23.9675V17.5611H226.647V23.6274C226.647 25.7138 227.253 27.1109 228.992 27.1109C230.274 27.1109 231.162 26.1826 231.513 25.3002C231.618 25.0061 231.689 24.6477 231.689 24.28V17.5519H233.594V25.5208L233.603 25.53Z" fill="white"/>
<path d="M237.837 23.3976C237.881 26.0907 239.532 27.2028 241.438 27.2028C242.808 27.2028 243.633 26.9547 244.345 26.633L244.67 28.0576C243.993 28.3793 242.843 28.7378 241.174 28.7378C237.942 28.7378 236.01 26.5135 236.01 23.2138C236.01 19.9141 237.881 17.3038 240.937 17.3038C244.371 17.3038 245.276 20.4564 245.276 22.4693C245.276 22.8737 245.232 23.1954 245.214 23.3976H237.828H237.837ZM243.44 21.973C243.458 20.7046 242.94 18.7376 240.788 18.7376C238.855 18.7376 238.012 20.5943 237.854 21.973H243.431H243.44Z" fill="white"/>
<path d="M247.656 12.4324H249.562V28.5172H247.656V12.4324Z" fill="white"/>
<path d="M258.6 28.5172L258.45 27.1385H258.389C257.8 28.0025 256.676 28.7654 255.174 28.7654C253.049 28.7654 251.96 27.2028 251.96 25.6127C251.96 22.9656 254.217 21.5134 258.275 21.5318V21.302C258.275 20.3921 258.037 18.7652 255.886 18.7652C254.911 18.7652 253.892 19.0869 253.154 19.5832L252.724 18.2689C253.593 17.6806 254.849 17.2946 256.175 17.2946C259.39 17.2946 260.172 19.5832 260.172 21.78V25.8793C260.172 26.8352 260.216 27.7543 260.347 28.508H258.608L258.6 28.5172ZM258.318 22.9197C256.237 22.8737 253.866 23.2598 253.866 25.3922C253.866 26.6789 254.691 27.2948 255.666 27.2948C257.036 27.2948 257.897 26.3848 258.204 25.4565C258.266 25.2543 258.31 25.0245 258.31 24.8223V22.9197H258.318Z" fill="white"/>
<path d="M276.921 12.4324V25.6863C276.921 26.6606 276.938 27.7727 277.009 28.5172H275.296L275.208 26.6146H275.164C274.576 27.8371 273.302 28.7654 271.581 28.7654C269.042 28.7654 267.084 26.5227 267.084 23.1954C267.066 19.5465 269.236 17.3038 271.792 17.3038C273.399 17.3038 274.488 18.0942 274.962 18.9766H275.006V12.4324H276.912H276.921ZM275.015 22.0097C275.015 21.7616 274.989 21.4215 274.927 21.1733C274.646 19.9049 273.601 18.8663 272.169 18.8663C270.193 18.8663 269.025 20.677 269.025 23.1035C269.025 25.3278 270.07 27.1569 272.134 27.1569C273.416 27.1569 274.584 26.2745 274.936 24.7763C274.997 24.5098 275.024 24.2341 275.024 23.9124V22.0097H275.015Z" fill="white"/>
<path d="M281.163 23.3976C281.207 26.0907 282.858 27.2028 284.764 27.2028C286.134 27.2028 286.96 26.9547 287.671 26.633L287.996 28.0576C287.32 28.3793 286.169 28.7378 284.5 28.7378C281.268 28.7378 279.336 26.5135 279.336 23.2138C279.336 19.9141 281.207 17.3038 284.263 17.3038C287.697 17.3038 288.602 20.4564 288.602 22.4693C288.602 22.8737 288.558 23.1954 288.541 23.3976H281.154H281.163ZM286.766 21.973C286.784 20.7046 286.266 18.7376 284.114 18.7376C282.182 18.7376 281.339 20.5943 281.18 21.973H286.758H286.766Z" fill="white"/>
<path d="M297.534 13.2504V28.5172H295.646V13.2504H297.534Z" fill="white"/>
<path d="M300.986 20.5207C300.986 19.3902 300.96 18.4619 300.898 17.5519H302.593L302.699 19.3626H302.743C303.261 18.324 304.482 17.3038 306.221 17.3038C307.679 17.3038 309.936 18.2137 309.936 21.973V28.5172H308.021V22.1936C308.021 20.4288 307.389 18.9582 305.588 18.9582C304.332 18.9582 303.349 19.8865 303.024 20.9987C302.936 21.2469 302.892 21.5869 302.892 21.927V28.5172H300.986V20.5207Z" fill="white"/>
<path d="M322.091 17.5519C322.048 18.3424 322.004 19.2248 322.004 20.5667V26.9271C322.004 29.4455 321.529 30.9805 320.502 31.9364C319.483 32.929 318.007 33.2507 316.681 33.2507C315.355 33.2507 314.029 32.9382 313.186 32.3408L313.66 30.8242C314.354 31.2746 315.443 31.6882 316.743 31.6882C318.692 31.6882 320.133 30.622 320.133 27.8554V26.633H320.089C319.5 27.6532 318.376 28.4712 316.743 28.4712C314.134 28.4712 312.272 26.1642 312.272 23.1219C312.272 19.4086 314.591 17.3038 317.006 17.3038C318.833 17.3038 319.825 18.2964 320.282 19.2064H320.326L320.414 17.5519H322.083H322.091ZM320.115 21.8811C320.115 21.541 320.098 21.2469 320.01 20.9711C319.667 19.813 318.728 18.8663 317.34 18.8663C315.513 18.8663 314.213 20.4748 314.213 23.0116C314.213 25.1624 315.258 26.9547 317.322 26.9547C318.49 26.9547 319.562 26.1826 319.975 24.9142C320.08 24.5741 320.124 24.1881 320.124 23.848V21.8811H320.115Z" fill="white"/>
<path d="M326.246 23.3976C326.29 26.0907 327.941 27.2028 329.847 27.2028C331.217 27.2028 332.043 26.9547 332.754 26.633L333.079 28.0576C332.403 28.3793 331.252 28.7378 329.583 28.7378C326.351 28.7378 324.419 26.5135 324.419 23.2138C324.419 19.9141 326.29 17.3038 329.346 17.3038C332.78 17.3038 333.685 20.4564 333.685 22.4693C333.685 22.8737 333.641 23.1954 333.623 23.3976H326.237H326.246ZM331.849 21.973C331.867 20.7046 331.349 18.7376 329.197 18.7376C327.265 18.7376 326.421 20.5943 326.263 21.973H331.841H331.849Z" fill="white"/>
<path d="M336.056 20.5207C336.056 19.3902 336.03 18.4619 335.969 17.5519H337.664L337.769 19.3626H337.813C338.331 18.324 339.552 17.3038 341.291 17.3038C342.749 17.3038 345.006 18.2137 345.006 21.973V28.5172H343.1V22.1936C343.1 20.4288 342.468 18.9582 340.667 18.9582C339.411 18.9582 338.428 19.8865 338.103 20.9987C338.015 21.2469 337.971 21.5869 337.971 21.927V28.5172H336.056V20.5207Z" fill="white"/>
<path d="M350.241 14.4728C350.258 15.153 349.784 15.6953 349.029 15.6953C348.352 15.6953 347.878 15.153 347.878 14.4728C347.878 13.7927 348.379 13.2228 349.073 13.2228C349.766 13.2228 350.241 13.7651 350.241 14.4728ZM348.115 28.5172V17.5519H350.03V28.5172H348.115Z" fill="white"/>
<path d="M354.255 23.3976C354.298 26.0907 355.95 27.2028 357.856 27.2028C359.226 27.2028 360.051 26.9547 360.763 26.633L361.088 28.0576C360.411 28.3793 359.261 28.7378 357.592 28.7378C354.36 28.7378 352.428 26.5135 352.428 23.2138C352.428 19.9141 354.298 17.3038 357.355 17.3038C360.789 17.3038 361.694 20.4564 361.694 22.4693C361.694 22.8737 361.65 23.1954 361.632 23.3976H354.246H354.255ZM359.858 21.973C359.876 20.7046 359.357 18.7376 357.206 18.7376C355.273 18.7376 354.43 20.5943 354.272 21.973H359.849H359.858Z" fill="white"/>
<path d="M364.074 20.9711C364.074 19.6843 364.048 18.5722 363.986 17.5519H365.655L365.716 19.7027H365.804C366.278 18.2321 367.429 17.3038 368.711 17.3038C368.931 17.3038 369.08 17.3222 369.256 17.3681V19.2431C369.063 19.1972 368.861 19.1788 368.606 19.1788C367.262 19.1788 366.305 20.245 366.041 21.7432C365.997 22.0189 365.953 22.3314 365.953 22.6715V28.5172H364.065V20.9711H364.074Z" fill="white"/>
<path d="M375.149 12.8184L372.497 16.0538H371.127L373.041 12.8184H375.149ZM371.258 28.5172V17.5519H373.173V28.5172H371.258Z" fill="white"/>
<path d="M382.167 28.5172L382.017 27.1385H381.956C381.368 28.0025 380.243 28.7654 378.741 28.7654C376.616 28.7654 375.527 27.2028 375.527 25.6127C375.527 22.9656 377.784 21.5134 381.842 21.5318V21.302C381.842 20.3921 381.605 18.7652 379.453 18.7652C378.478 18.7652 377.459 19.0869 376.721 19.5832L376.291 18.2689C377.161 17.6806 378.416 17.2946 379.743 17.2946C382.957 17.2946 383.739 19.5832 383.739 21.78V25.8793C383.739 26.8352 383.783 27.7543 383.915 28.508H382.176L382.167 28.5172ZM381.886 22.9197C379.804 22.8737 377.433 23.2598 377.433 25.3922C377.433 26.6789 378.258 27.2948 379.233 27.2948C380.603 27.2948 381.473 26.3848 381.772 25.4565C381.833 25.2543 381.877 25.0245 381.877 24.8223V22.9197H381.886Z" fill="white"/>
<path d="M385.575 31.3022C386.049 29.9694 386.637 27.5429 386.875 25.8885L389 25.6587C388.499 27.5797 387.542 30.0981 386.936 31.1643L385.566 31.3022H385.575Z" fill="white"/>
<path d="M206.086 51.275C205.392 51.6335 204.005 52.0011 202.222 52.0011C198.094 52.0011 194.993 49.2805 194.993 44.2804C194.993 39.2803 198.103 36.2655 202.635 36.2655C204.461 36.2655 205.612 36.67 206.113 36.9457L205.656 38.5542C204.944 38.1957 203.917 37.92 202.705 37.92C199.271 37.92 196.996 40.2086 196.996 44.216C196.996 47.9569 199.06 50.3559 202.617 50.3559C203.768 50.3559 204.944 50.1077 205.7 49.7217L206.086 51.2842V51.275Z" fill="white"/>
<path d="M210.451 37.727C210.469 38.4071 209.995 38.9494 209.239 38.9494C208.563 38.9494 208.089 38.4071 208.089 37.727C208.089 37.0468 208.589 36.4769 209.283 36.4769C209.977 36.4769 210.451 37.0192 210.451 37.727ZM208.326 51.7713V40.806H210.241V51.7713H208.326Z" fill="white"/>
<path d="M214.465 46.6517C214.509 49.3448 216.16 50.4569 218.066 50.4569C219.436 50.4569 220.262 50.2088 220.973 49.8871L221.298 51.3117C220.622 51.6334 219.472 51.9919 217.803 51.9919C214.571 51.9919 212.638 49.7676 212.638 46.4679C212.638 43.1682 214.509 40.5579 217.566 40.5579C221 40.5579 221.904 43.7105 221.904 45.7234C221.904 46.1278 221.861 46.4495 221.843 46.6517H214.457H214.465ZM220.069 45.2271C220.086 43.9587 219.568 41.9917 217.416 41.9917C215.484 41.9917 214.641 43.8484 214.483 45.2271H220.06H220.069Z" fill="white"/>
<path d="M224.285 43.7748C224.285 42.6443 224.258 41.716 224.197 40.806H225.892L225.997 42.6167H226.041C226.559 41.5781 227.78 40.5579 229.519 40.5579C230.977 40.5579 233.234 41.4678 233.234 45.2271V51.7713H231.329V45.4477C231.329 43.6829 230.696 42.2123 228.896 42.2123C227.64 42.2123 226.656 43.1406 226.331 44.2528C226.243 44.5009 226.199 44.841 226.199 45.1811V51.7713H224.285V43.7748Z" fill="white"/>
<path d="M243.827 51.3669C243.326 51.6426 242.219 52.0011 240.805 52.0011C237.635 52.0011 235.571 49.7584 235.571 46.4036C235.571 43.0487 237.784 40.5854 241.218 40.5854C242.351 40.5854 243.344 40.8796 243.871 41.1553L243.431 42.6995C242.975 42.4237 242.263 42.1756 241.218 42.1756C238.812 42.1756 237.503 44.0322 237.503 46.3208C237.503 48.8577 239.066 50.4202 241.148 50.4202C242.237 50.4202 242.948 50.1261 243.493 49.8779L243.818 51.3761L243.827 51.3669Z" fill="white"/>
<path d="M248.192 37.727C248.218 38.4071 247.735 38.9494 246.98 38.9494C246.303 38.9494 245.829 38.4071 245.829 37.727C245.829 37.0468 246.33 36.4769 247.024 36.4769C247.717 36.4769 248.192 37.0192 248.192 37.727ZM246.066 51.7713V40.806H247.972V51.7713H246.066Z" fill="white"/>
<path d="M256.966 51.7713L256.817 50.3926H256.755C256.167 51.2566 255.042 52.0195 253.541 52.0195C251.415 52.0195 250.326 50.4569 250.326 48.8668C250.326 46.2197 252.583 44.7675 256.641 44.7859V44.5561C256.641 43.6462 256.404 42.0193 254.252 42.0193C253.277 42.0193 252.25 42.3318 251.512 42.8373L251.081 41.523C251.951 40.9347 253.207 40.5487 254.533 40.5487C257.748 40.5487 258.529 42.8373 258.529 45.034V49.1334C258.529 50.0893 258.573 51.0084 258.705 51.7621H256.966V51.7713ZM256.685 46.1738C254.603 46.1278 252.232 46.5139 252.232 48.6462C252.232 49.933 253.058 50.5488 254.032 50.5488C255.403 50.5488 256.272 49.6389 256.571 48.7106C256.632 48.5084 256.676 48.2786 256.676 48.0764V46.1738H256.685Z" fill="white"/>
<path d="M266.917 40.8152L269.218 47.2951C269.455 48.0212 269.719 48.876 269.894 49.5378H269.938C270.132 48.8852 270.351 48.0396 270.615 47.2492L272.696 40.8152H274.716L271.853 48.6279C270.483 52.3871 269.552 54.3173 268.252 55.4938C267.321 56.3578 266.381 56.6979 265.907 56.7898L265.433 55.1169C265.907 54.9607 266.539 54.639 267.101 54.1427C267.62 53.7107 268.27 52.9386 268.709 51.9184C268.797 51.7161 268.858 51.5599 268.858 51.4404C268.858 51.3209 268.814 51.1739 268.726 50.9165L264.844 40.8152H266.926H266.917Z" fill="white"/>
<path d="M283.007 38.1865H278.554V36.5137H289.384V38.1865H284.913V51.7805H282.999V38.1865H283.007Z" fill="white"/>
<path d="M290.482 46.6517C290.526 49.3448 292.177 50.4569 294.083 50.4569C295.453 50.4569 296.278 50.2088 296.99 49.8871L297.315 51.3117C296.638 51.6334 295.488 51.9919 293.819 51.9919C290.587 51.9919 288.655 49.7676 288.655 46.4679C288.655 43.1682 290.526 40.5579 293.582 40.5579C297.016 40.5579 297.921 43.7105 297.921 45.7234C297.921 46.1278 297.877 46.4495 297.859 46.6517H290.473H290.482ZM296.085 45.2271C296.103 43.9587 295.585 41.9917 293.433 41.9917C291.5 41.9917 290.657 43.8484 290.499 45.2271H296.076H296.085Z" fill="white"/>
<path d="M307.784 51.3669C307.283 51.6426 306.177 52.0011 304.763 52.0011C301.592 52.0011 299.528 49.7584 299.528 46.4036C299.528 43.0487 301.741 40.5854 305.176 40.5854C306.309 40.5854 307.301 40.8796 307.828 41.1553L307.398 42.6995C306.941 42.4237 306.229 42.1756 305.184 42.1756C302.778 42.1756 301.469 44.0322 301.469 46.3208C301.469 48.8577 303.032 50.4202 305.114 50.4202C306.203 50.4202 306.915 50.1261 307.459 49.8779L307.784 51.3761V51.3669Z" fill="white"/>
<path d="M310.024 43.7748C310.024 42.6443 310.006 41.716 309.936 40.806H311.631L311.736 42.6167H311.78C312.299 41.5781 313.519 40.5579 315.258 40.5579C316.716 40.5579 318.974 41.4678 318.974 45.2271V51.7713H317.059V45.4477C317.059 43.6829 316.427 42.2123 314.626 42.2123C313.37 42.2123 312.386 43.1406 312.061 44.2528C311.974 44.5009 311.93 44.841 311.93 45.1811V51.7713H310.024V43.7748Z" fill="white"/>
<path d="M331.586 46.2013C331.586 50.2547 328.889 52.0195 326.351 52.0195C323.506 52.0195 321.31 49.8411 321.31 46.376C321.31 42.7086 323.611 40.5579 326.518 40.5579C329.425 40.5579 331.577 42.8465 331.577 46.2013H331.586ZM323.251 46.3116C323.251 48.7106 324.577 50.5213 326.439 50.5213C328.301 50.5213 329.627 48.729 329.627 46.2657C329.627 44.409 328.74 42.0561 326.483 42.0561C324.226 42.0561 323.251 44.2344 323.251 46.3116Z" fill="white"/>
<path d="M334.001 35.6956H335.907V51.7805H334.001V35.6956Z" fill="white"/>
<path d="M348.633 46.2013C348.633 50.2547 345.937 52.0195 343.399 52.0195C340.553 52.0195 338.357 49.8411 338.357 46.376C338.357 42.7086 340.659 40.5579 343.566 40.5579C346.473 40.5579 348.625 42.8465 348.625 46.2013H348.633ZM340.298 46.3116C340.298 48.7106 341.625 50.5213 343.487 50.5213C345.349 50.5213 346.675 48.729 346.675 46.2657C346.675 44.409 345.788 42.0561 343.531 42.0561C341.273 42.0561 340.298 44.2344 340.298 46.3116Z" fill="white"/>
<path d="M360.095 40.8152C360.051 41.6057 360.007 42.4881 360.007 43.83V50.1904C360.007 52.7088 359.533 54.2438 358.506 55.1997C357.487 56.1924 356.011 56.5141 354.685 56.5141C353.359 56.5141 352.032 56.2015 351.189 55.6041L351.664 54.0875C352.357 54.5379 353.447 54.9515 354.746 54.9515C356.696 54.9515 358.137 53.8853 358.137 51.1187V49.8963H358.093C357.504 50.9165 356.38 51.7346 354.746 51.7346C352.138 51.7346 350.276 49.4275 350.276 46.3852C350.276 42.6719 352.603 40.5671 355.01 40.5671C356.837 40.5671 357.829 41.5597 358.286 42.4697H358.33L358.418 40.8152H360.086H360.095ZM358.119 45.1444C358.119 44.8043 358.101 44.5102 358.014 44.2344C357.662 43.0763 356.731 42.1296 355.344 42.1296C353.517 42.1296 352.217 43.7381 352.217 46.2749C352.217 48.4257 353.262 50.218 355.326 50.218C356.494 50.218 357.557 49.4459 357.979 48.1775C358.084 47.8374 358.128 47.4514 358.128 47.1113V45.1444H358.119Z" fill="white"/>
<path d="M366.937 36.0725L364.285 39.3078H362.915L364.82 36.0725H366.928H366.937ZM363.055 51.7713V40.806H364.961V51.7713H363.055Z" fill="white"/>
<path d="M373.955 51.7713L373.806 50.3926H373.744C373.156 51.2566 372.031 52.0195 370.529 52.0195C368.404 52.0195 367.315 50.4569 367.315 48.8668C367.315 46.2197 369.572 44.7675 373.63 44.7859V44.5561C373.63 43.6462 373.393 42.0193 371.241 42.0193C370.266 42.0193 369.247 42.3318 368.509 42.8373L368.079 41.523C368.949 40.9347 370.205 40.5487 371.531 40.5487C374.745 40.5487 375.527 42.8373 375.527 45.034V49.1334C375.527 50.0893 375.571 51.0084 375.703 51.7621H373.964L373.955 51.7713ZM373.674 46.1738C371.592 46.1278 369.221 46.5139 369.221 48.6462C369.221 49.933 370.046 50.5488 371.021 50.5488C372.391 50.5488 373.261 49.6389 373.56 48.7106C373.621 48.5084 373.665 48.2786 373.665 48.0764V46.1738H373.674Z" fill="white"/>
</svg>
