<svg width="142" height="151" viewBox="0 0 142 151" fill="none" xmlns="http://www.w3.org/2000/svg">
<path d="M79.1023 10.5654C78.751 10.5654 78.4611 10.8595 78.4611 11.2364C78.4611 11.264 78.4611 11.2823 78.4611 11.3099C78.4611 11.3651 78.4611 11.4018 78.4963 11.4754C77.3633 11.6776 76.1951 11.889 76.1951 11.889C76.1951 11.889 76.4235 10.3724 76.5552 9.59113C76.6606 9.66467 76.7748 9.70143 76.9066 9.70143C77.2579 9.70143 77.5477 9.40731 77.5477 9.03046C77.5477 8.65362 77.2579 8.3595 76.9066 8.3595C76.5552 8.3595 76.2654 8.65362 76.2654 9.03046C76.2654 9.16833 76.3005 9.29701 76.3708 9.39812C75.6945 9.79334 74.421 10.5011 74.421 10.5011C74.421 10.5746 74.2804 9.21429 74.1926 8.32273H74.219C74.5703 8.32273 74.8601 8.02861 74.8601 7.66095C74.8601 7.2933 74.5703 6.98999 74.219 6.98999C74.1575 6.98999 74.096 6.98999 74.0433 7.01756C73.8589 7.06352 73.7183 7.1922 73.6481 7.35764C73.6042 7.44955 73.5778 7.55066 73.5778 7.65176C73.5778 7.88155 73.692 8.08376 73.8589 8.20324C73.2792 8.86502 72.4536 9.76577 72.4536 9.76577C72.4536 9.76577 71.8037 8.63524 71.3382 7.85397C71.5665 7.75287 71.7334 7.51389 71.7334 7.23815C71.7334 6.8705 71.4436 6.56718 71.0922 6.56718C70.7409 6.56718 70.4511 6.86131 70.4511 7.23815C70.4511 7.51389 70.6092 7.74368 70.8375 7.84478C70.372 8.62604 69.7221 9.75658 69.7221 9.75658C69.7221 9.75658 68.8965 8.85583 68.3168 8.19405C68.4837 8.07456 68.5979 7.87235 68.5979 7.64257C68.5979 7.53228 68.5715 7.43117 68.5276 7.34845C68.4486 7.17381 68.308 7.05433 68.1324 7.00837C68.0797 6.98999 68.0182 6.98079 67.9567 6.98079C67.6054 6.98079 67.3156 7.27492 67.3156 7.65176C67.3156 8.02861 67.6054 8.32273 67.9567 8.32273H67.9831C67.8952 9.2051 67.7459 10.5654 67.7547 10.4919C67.7547 10.4919 66.4812 9.78415 65.8049 9.38893C65.8752 9.28782 65.9103 9.15914 65.9103 9.02127C65.9103 8.65362 65.6205 8.3503 65.2691 8.3503C64.9178 8.3503 64.628 8.64443 64.628 9.02127C64.628 9.39812 64.9178 9.69224 65.2691 9.69224C65.4009 9.69224 65.5238 9.64628 65.6205 9.58194C65.7522 10.3724 65.9806 11.8798 65.9806 11.8798C65.9806 11.8798 64.8124 11.6684 63.6794 11.4662C63.7058 11.3926 63.7058 11.3559 63.7146 11.3007C63.7146 11.2731 63.7146 11.2548 63.7146 11.2272C63.7146 10.8595 63.4247 10.5562 63.0734 10.5562C62.7221 10.5562 62.4323 10.8503 62.4323 11.2272C62.4323 11.604 62.7221 11.8982 63.0734 11.8982C63.2139 11.8982 63.3545 11.8522 63.4599 11.7603C64.3294 12.661 65.6907 14.0949 66.0333 14.4442C67.3331 13.1849 69.1161 12.4129 71.0747 12.4129C73.0333 12.4129 74.8162 13.1849 76.1161 14.4442C76.4586 14.0949 77.82 12.661 78.6895 11.7603C78.7949 11.843 78.9266 11.8982 79.0759 11.8982C79.4273 11.8982 79.7171 11.604 79.7171 11.2272C79.7171 10.8503 79.4273 10.5562 79.0759 10.5562L79.1023 10.5654Z" fill="black"/>
<path fill-rule="evenodd" clip-rule="evenodd" d="M70.2579 58.2776H71.8915V60.1803H73.6217V61.8807H71.8915V66.2925H70.2579V61.8807H68.5627V60.1803H70.2579V58.2776Z" fill="black"/>
<path fill-rule="evenodd" clip-rule="evenodd" d="M60.9304 7.44957C61.15 5.90543 63.2315 6.29146 64.1274 6.68669C65.1989 7.15545 66.2616 7.23817 67.3946 6.76022C70.943 5.35395 68.1148 1.73256 66.4197 1.43844C66.0684 1.3741 66.3846 0.988061 67.0609 1.31895C67.6581 1.61307 68.0973 1.87043 68.0621 1.7969C67.0697 -0.0781339 65.761 -0.243578 65.1111 0.546877C64.8652 0.850191 64.953 1.18108 65.4887 1.67741C68.0182 4.00282 65.4975 4.82085 63.3984 4.78408C60.6669 5.02306 58.7347 6.34661 59.1035 10.5838C57.6368 7.7345 50.909 6.42014 49.3808 12.2475C49.1788 13.4975 49.0471 14.4718 49.4159 16.4847C49.6443 17.1464 48.8451 17.8909 47.9141 18.0104C48.5464 18.6906 49.2491 18.5987 49.8814 17.7714C49.6794 19.1593 49.9517 20.8689 47.9843 21.2733C43.5489 21.8248 46.8162 25.2624 50.751 22.8359C52.086 21.9903 53.5088 20.0877 52.7886 17.6979C57.1537 18.3229 56.8815 13.0839 55.9505 13.9203C54.8526 14.9313 52.5163 15.0416 52.086 13.5434C56.1613 15.6299 56.2579 11.0342 55.0458 12.3669C53.2804 14.3063 50.9793 11.3191 53.3858 10.0415C52.4548 11.3191 52.8676 12.0452 53.5527 12.3302C54.2905 12.6335 55.4498 12.0544 54.7823 11.1813C53.8513 9.99557 55.7045 9.69226 56.7497 10.2437C57.549 10.7676 57.9178 11.218 59.0157 13.1942C59.6305 11.7327 60.6581 11.3375 62.0107 11.3927C60.4473 9.03048 62.3796 8.34113 62.9768 9.16835C63.4511 9.79336 64.0571 9.41652 64.0044 8.71798C64.0396 6.63154 62.1073 6.39257 60.9392 7.46796L60.9304 7.44957Z" fill="black"/>
<path fill-rule="evenodd" clip-rule="evenodd" d="M61.835 21.5307C63.2315 20.5564 64.628 19.6189 66.0332 18.6538C63.7321 16.9902 62.037 15.5287 60.5351 14.0765C60.3331 13.8283 60.4649 13.6261 60.7635 13.8008C62.0633 14.8394 63.1261 15.7493 64.426 16.788H65.2252C65.1901 16.1997 65.2252 15.5747 65.2252 15.1243C64.2591 15.0232 62.564 14.6004 62.0546 13.9754C61.5539 13.3596 63.3984 13.5618 62.8187 12.7989C61.2378 10.7952 58.4887 13.185 59.7534 14.4993C60.5615 15.299 61.2465 15.8504 62.0194 16.5122C60.3155 15.639 58.5853 14.6372 56.8814 13.3136C56.9517 13.9019 57.0483 14.5269 57.1185 15.1519C58.6819 15.9515 60.2804 16.6409 61.8789 17.3027C62.116 17.3394 62.0809 17.7898 61.8789 17.7898C60.3419 16.7144 58.6819 16.3652 57.6455 16.6777C56.4071 17.0269 56.574 18.4148 57.5489 18.8652C57.6455 19.2512 57.0834 19.1042 56.4423 18.902C56.6794 20.391 58.2779 19.8762 58.1813 20.152C58.111 20.391 57.0483 20.2899 56.8814 20.2163C57.3118 21.5031 58.6819 21.1171 58.6819 21.3285C58.6819 21.5766 58.2779 21.641 58.0144 21.6777C58.2779 21.9903 58.717 22.3395 59.5426 22.1373C59.6129 22.1006 59.8061 22.1373 59.6744 22.2384C59.6129 22.3395 59.446 22.4498 59.1738 22.4866C59.9027 22.7623 60.5702 22.5509 60.9743 22.2384C61.3783 21.9259 61.4398 21.3744 61.4046 21.402C61.0357 21.7513 60.6756 21.788 60.702 21.7513C61.229 21.3377 61.7647 20.2255 60.5 19.4626C60.4649 19.5637 60.3682 19.9865 60.1662 20.1152C59.9994 20.2163 59.9291 20.2531 59.9994 20.0509C60.1048 19.6005 60.2014 18.8744 59.4987 18.5895C59.5602 18.7641 59.4021 19.3248 59.2001 19.3891C59.1035 19.4259 58.9981 19.4259 59.0332 19.3615C59.1298 19.0766 59.6041 18.0747 58.8312 17.9001C58.7258 18.0747 58.761 18.4884 58.1637 18.5251C56.5916 16.6501 60.4297 16.6869 60.2277 17.6244C60.0608 17.6979 59.894 17.7714 59.7271 17.8358C60.1926 18.3597 60.6932 18.9479 61.1587 19.4994C61.8965 19.2237 62.5991 18.8744 63.3193 18.5987C63.3896 18.6998 63.6531 18.9847 63.7585 19.0858C63.1524 19.4351 62.4586 19.8119 61.8262 20.1612C61.8613 20.6851 61.7911 21.0344 61.7911 21.5491L61.835 21.5307Z" fill="black"/>
<path fill-rule="evenodd" clip-rule="evenodd" d="M56.6707 31.7974C56.9342 30.3727 57.2064 28.8837 57.8037 27.6981C57.4699 27.4223 57.0308 27.1834 56.7058 26.8984C57.2064 26.972 57.6017 27.0271 58.1023 27.0914C58.436 26.0896 59.0948 25.051 60.0784 23.8837C60.0784 23.8469 58.559 23.6631 54.7823 24.6465C57.3118 23.6723 57.2679 22.0086 56.6794 21.2825C55.6958 20.0693 54.0182 21.4571 54.0182 21.4571C54.0182 21.4571 53.9479 21.0435 54.3695 20.7586C55.0546 20.2807 55.8187 20.6483 55.7221 20.584C54.8877 19.8211 53.623 20.0693 53.0872 21.1446C52.5866 22.1833 53.4122 23.8929 54.9229 22.9094C54.4134 22.0086 55.0458 21.6042 55.5201 21.6961C56.0295 21.788 56.3457 22.3395 55.8538 23.0197C55.0546 24.1962 52.973 24.2697 51.1901 24.4719C46.3946 25.1337 44.0935 33.2864 51.5941 34.0493C49.293 32.7993 49.293 28.9849 51.7961 28.9113C53.1663 28.8837 54.0358 30.7496 52.4285 31.3103C52.973 30.7864 52.8237 29.7569 52.1211 29.711C49.3808 29.6374 50.7861 34.9684 53.8865 33.0107C58.8137 29.233 50.8476 23.2954 48.8187 29.5455C48.4586 26.0896 55.9153 23.2678 56.6794 31.7974H56.6707Z" fill="black"/>
<path fill-rule="evenodd" clip-rule="evenodd" d="M42.4774 45.8142C41.6079 44.362 42.2402 41.963 43.8387 41.963C45.446 41.9906 45.3318 44.3528 44.1725 44.1873C43.2327 44.0495 42.1436 44.7756 42.4774 45.8142Z" fill="black"/>
<path fill-rule="evenodd" clip-rule="evenodd" d="M43.3381 38.9115C44.0408 37.1743 45.2001 36.485 46.6317 36.485C47.8262 36.485 48.4322 37.0456 48.8011 37.5971C50.3908 40.1615 47.3783 42.634 45.4987 38.8747C45.0332 38.0934 44.1637 38.4243 43.3293 38.9115H43.3381Z" fill="black"/>
<path fill-rule="evenodd" clip-rule="evenodd" d="M42.2402 41.6229C42.2051 40.0972 43.1449 39.2975 43.909 39.1597C44.6731 39.031 45.0771 39.3251 45.3142 39.6376C46.3419 41.0255 44.5501 42.7259 43.6104 40.8141C43.3381 40.2626 42.6091 40.713 42.2402 41.6137V41.6229Z" fill="black"/>
<path fill-rule="evenodd" clip-rule="evenodd" d="M52.8062 39.0861C52.244 38.0107 51.4624 37.6431 50.7773 37.7626C50.3118 37.8637 49.978 38.0199 49.776 38.5255C49.3457 39.9501 50.9442 40.3637 51.3394 39.1597C51.5063 38.6082 52.2792 38.5622 52.8062 39.0861Z" fill="black"/>
<path fill-rule="evenodd" clip-rule="evenodd" d="M67.298 60.1251C69.0282 50.8235 60.7635 53.4889 57.7334 44.0219C57.3645 45.5109 57.4347 46.8712 57.9969 48.0109C57.83 47.8363 57.7334 47.9006 57.5314 47.487C56.7672 45.6855 56.17 42.7351 55.8275 39.8582C55.4937 39.4446 53.825 39.031 53.9567 39.895C54.4573 43.0568 54.7296 44.7756 54.8438 45.8877C54.8877 46.2921 53.983 42.7167 53.4473 40.4464C53.0784 39.0402 50.8212 39.1596 51.313 40.8692C51.8137 42.395 52.1825 43.0476 52.6832 44.5458C51.9366 43.2866 51.1198 42.1652 50.7509 40.6211C50.2766 40.8049 49.7497 40.667 49.4862 40.52C49.3369 40.4372 49.4159 40.9336 49.6355 41.6229C50.1186 43.0568 50.909 43.8105 51.8488 44.987C50.7509 44.1873 49.3544 42.588 49.0207 41.1358C48.2566 41.6229 47.3871 41.5862 46.5527 41.4115C47.2817 43.3601 48.7221 44.3803 50.4611 45.6947C50.7597 45.9337 51.559 46.5862 51.8224 46.8528C49.5916 45.7406 47.3256 44.4539 45.9291 41.1266C45.7622 41.5126 45.5602 42.0641 45.0244 42.2387C45.4548 42.9005 45.3582 43.8013 45.1913 44.6285C46.2628 46.3289 49.9868 47.1929 51.5941 47.5421C51.6995 47.5789 47.3607 47.5789 44.7258 44.8399C43.8475 44.0035 42.2929 45.3454 43.0922 46.5771C44.1286 48.2039 46.6317 48.4705 51.2955 48.3418C51.313 48.5164 40.6681 48.9484 39.7635 48.93C39.0696 48.93 39.579 51.5863 41.2214 51.3749C45.3845 50.8878 45.7446 50.5845 47.0972 50.2812C47.7999 50.1249 44.761 51.3198 41.9592 51.8713C42.0295 52.8088 43.9617 53.5073 45.6568 52.8455C47.7823 52.0459 50.8651 49.3988 52.3231 50.1433C52.5251 50.2444 51.4536 49.9595 49.7584 51.1084C47.9755 52.3216 45.8588 53.6452 45.7271 53.7463C47.7647 57.046 49.6618 52.9099 52.9906 51.2463C53.825 50.8143 54.5452 50.6764 54.1236 50.8602C45.0244 55.5846 52.9906 62.0369 55.4849 56.5129C52.3933 57.9651 51.2252 55.511 52.6568 53.4246C51.7873 56.7519 54.5715 57.0092 55.6782 55.796C52.3494 54.2702 55.2741 51.0257 57.8388 50.8694C59.973 50.8051 60.8162 53.0937 59.4636 54.1691C59.2792 54.3621 60.5176 52.5974 59.0947 51.9356C57.8651 51.3841 57.303 51.6782 56.6443 52.2757C54.8526 53.9026 56.8639 58.5809 59.8237 56.9633C61.6857 55.8787 62.9944 55.2261 64.6192 56.0625C62.2917 55.9614 60.8074 56.8714 59.9906 57.6618C59.0859 58.5809 60.0169 60.4192 61.8262 58.9854C62.8363 58.1306 67.1487 55.5846 66.288 59.0497C66.1211 59.7482 64.5489 60.2722 66.0157 60.9891C66.9379 61.3843 67.1838 60.7225 67.2804 60.0975L67.298 60.1251Z" fill="black"/>
<path fill-rule="evenodd" clip-rule="evenodd" d="M68.8965 18.9295C69.362 18.9295 69.7309 19.3156 69.7309 19.7935C69.7309 20.2715 69.362 20.6575 68.8965 20.6575C68.431 20.6575 68.027 20.2806 68.027 19.7935C68.027 19.3064 68.431 18.9295 68.8965 18.9295Z" fill="black"/>
<path fill-rule="evenodd" clip-rule="evenodd" d="M66.7358 19.6281C67.2013 19.6281 67.5702 20.0417 67.5702 20.5288C67.5702 21.016 67.2013 21.3928 66.7358 21.3928C66.2704 21.3928 65.8663 21.016 65.8663 20.5288C65.8663 20.0417 66.2704 19.6281 66.7358 19.6281Z" fill="black"/>
<path fill-rule="evenodd" clip-rule="evenodd" d="M64.7334 20.7678C65.1638 20.7678 65.5678 21.1538 65.5678 21.6318C65.5678 22.1097 65.1638 22.5325 64.7334 22.5325C64.2679 22.5325 63.8639 22.1189 63.8639 21.6318C63.8639 21.1447 64.2591 20.7678 64.7334 20.7678Z" fill="black"/>
<path fill-rule="evenodd" clip-rule="evenodd" d="M62.968 22.2292C63.4335 22.2292 63.8024 22.652 63.8024 23.13C63.8024 23.6079 63.4335 23.994 62.968 23.994C62.5025 23.994 62.0985 23.6171 62.0985 23.13C62.0985 22.6428 62.5025 22.2292 62.968 22.2292Z" fill="black"/>
<path fill-rule="evenodd" clip-rule="evenodd" d="M61.4661 23.9572C61.9316 23.9572 62.3268 24.3708 62.3268 24.858C62.3268 25.3451 61.9316 25.7219 61.4661 25.7219C61.0006 25.7219 60.6317 25.3451 60.6317 24.858C60.6317 24.3708 61.0006 23.9572 61.4661 23.9572Z" fill="black"/>
<path fill-rule="evenodd" clip-rule="evenodd" d="M60.2365 25.9701C60.6668 25.9701 61.0708 26.3929 61.0708 26.8708C61.0708 27.3212 60.6756 27.7348 60.2365 27.7348C59.771 27.7348 59.3757 27.3212 59.3757 26.8708C59.3757 26.3837 59.7797 25.9701 60.2365 25.9701Z" fill="black"/>
<path fill-rule="evenodd" clip-rule="evenodd" d="M59.2704 28.0933C59.7359 28.0933 60.1399 28.5069 60.1399 28.994C60.1399 29.4812 59.7359 29.858 59.2704 29.858C58.8049 29.858 58.436 29.4812 58.436 28.994C58.436 28.5069 58.8049 28.0933 59.2704 28.0933Z" fill="black"/>
<path fill-rule="evenodd" clip-rule="evenodd" d="M58.5678 30.3452C59.0333 30.3452 59.4021 30.7588 59.4021 31.2459C59.4021 31.733 59.0333 32.1099 58.5678 32.1099C58.1023 32.1099 57.6982 31.7239 57.6982 31.2459C57.6982 30.768 58.1023 30.3452 58.5678 30.3452Z" fill="black"/>
<path fill-rule="evenodd" clip-rule="evenodd" d="M58.1725 32.6982C58.638 32.6982 59.0069 33.0842 59.0069 33.5713C59.0069 34.0585 58.638 34.4353 58.1725 34.4353C57.707 34.4353 57.3381 34.0585 57.3381 33.5713C57.3381 33.0842 57.707 32.6982 58.1725 32.6982Z" fill="black"/>
<path fill-rule="evenodd" clip-rule="evenodd" d="M68.8965 51.3014C69.362 51.3014 69.7309 51.6875 69.7309 52.1654C69.7309 52.6434 69.362 53.0662 68.8965 53.0662C68.431 53.0662 68.027 52.6526 68.027 52.1654C68.027 51.6783 68.431 51.3014 68.8965 51.3014Z" fill="black"/>
<path fill-rule="evenodd" clip-rule="evenodd" d="M66.7358 50.5753C67.2013 50.5753 67.5702 50.9522 67.5702 51.4393C67.5702 51.9265 67.2013 52.3033 66.7358 52.3033C66.2704 52.3033 65.8663 51.9265 65.8663 51.4393C65.8663 50.9522 66.2704 50.5753 66.7358 50.5753Z" fill="black"/>
<path fill-rule="evenodd" clip-rule="evenodd" d="M64.7334 49.4264C65.1638 49.4264 65.5678 49.84 65.5678 50.3272C65.5678 50.8143 65.1638 51.1911 64.7334 51.1911C64.2679 51.1911 63.8639 50.8143 63.8639 50.3272C63.8639 49.84 64.2591 49.4264 64.7334 49.4264Z" fill="black"/>
<path fill-rule="evenodd" clip-rule="evenodd" d="M62.968 47.9374C63.4335 47.9374 63.8024 48.3142 63.8024 48.8014C63.8024 49.2885 63.4335 49.7021 62.968 49.7021C62.5025 49.7021 62.0985 49.2885 62.0985 48.8014C62.0985 48.3142 62.5025 47.9374 62.968 47.9374Z" fill="black"/>
<path fill-rule="evenodd" clip-rule="evenodd" d="M61.4661 46.0624C61.9316 46.0624 62.3005 46.476 62.3005 46.9631C62.3005 47.4503 61.9404 47.8271 61.4661 47.8271C60.9918 47.8271 60.5966 47.4503 60.5966 46.9631C60.5966 46.476 60.9918 46.0624 61.4661 46.0624Z" fill="black"/>
<path fill-rule="evenodd" clip-rule="evenodd" d="M60.2365 44.0862C60.6668 44.0862 61.0708 44.4631 61.0708 44.9502C61.0708 45.4374 60.6756 45.8142 60.2365 45.8142C59.771 45.8142 59.3757 45.4282 59.3757 44.9502C59.3757 44.4723 59.7797 44.0862 60.2365 44.0862Z" fill="black"/>
<path fill-rule="evenodd" clip-rule="evenodd" d="M59.2704 42.0733C59.7359 42.0733 60.1399 42.4594 60.1399 42.9373C60.1399 43.4153 59.7359 43.7737 59.2704 43.7737C58.8049 43.7737 58.436 43.4244 58.436 42.9373C58.436 42.4502 58.8049 42.0733 59.2704 42.0733Z" fill="black"/>
<path fill-rule="evenodd" clip-rule="evenodd" d="M58.5678 39.7847C59.0333 39.7847 59.4021 40.1707 59.4021 40.6579C59.4021 41.145 59.0333 41.5586 58.5678 41.5586C58.1023 41.5586 57.6982 41.145 57.6982 40.6579C57.6982 40.1707 58.1023 39.7847 58.5678 39.7847Z" fill="black"/>
<path fill-rule="evenodd" clip-rule="evenodd" d="M58.1725 37.4225C58.638 37.4225 59.0069 37.8361 59.0069 38.3233C59.0069 38.8104 58.638 39.1873 58.1725 39.1873C57.707 39.1873 57.3381 38.8104 57.3381 38.3233C57.3381 37.8361 57.707 37.4225 58.1725 37.4225Z" fill="black"/>
<path fill-rule="evenodd" clip-rule="evenodd" d="M73.1651 18.9295C72.6996 18.9295 72.3395 19.3156 72.3395 19.7935C72.3395 20.2715 72.6996 20.6575 73.1651 20.6575C73.6306 20.6575 73.9995 20.2807 73.9995 19.7935C73.9995 19.3064 73.6306 18.9295 73.1651 18.9295Z" fill="black"/>
<path fill-rule="evenodd" clip-rule="evenodd" d="M75.3345 19.6281C74.869 19.6281 74.5001 20.0417 74.5001 20.5288C74.5001 21.016 74.869 21.3928 75.3345 21.3928C75.8 21.3928 76.1689 21.016 76.1689 20.5288C76.1689 20.0417 75.8 19.6281 75.3345 19.6281Z" fill="black"/>
<path fill-rule="evenodd" clip-rule="evenodd" d="M77.3283 20.7678C76.8628 20.7678 76.4939 21.1538 76.4939 21.6318C76.4939 22.1097 76.8628 22.5325 77.3283 22.5325C77.7938 22.5325 78.1627 22.1189 78.1627 21.6318C78.1627 21.1447 77.7938 20.7678 77.3283 20.7678Z" fill="black"/>
<path fill-rule="evenodd" clip-rule="evenodd" d="M79.0937 22.2292C78.6282 22.2292 78.2593 22.652 78.2593 23.13C78.2593 23.6079 78.6282 23.994 79.0937 23.994C79.5592 23.994 79.928 23.6171 79.928 23.13C79.928 22.6428 79.5592 22.2292 79.0937 22.2292Z" fill="black"/>
<path fill-rule="evenodd" clip-rule="evenodd" d="M80.5603 23.9572C80.0948 23.9572 79.726 24.3708 79.726 24.858C79.726 25.3451 80.0948 25.7219 80.5603 25.7219C81.0258 25.7219 81.4211 25.3451 81.4211 24.858C81.4211 24.3708 81.017 23.9572 80.5603 23.9572Z" fill="black"/>
<path fill-rule="evenodd" clip-rule="evenodd" d="M81.8251 25.9701C81.3596 25.9701 80.9907 26.3929 80.9907 26.8708C80.9907 27.3212 81.3596 27.7348 81.8251 27.7348C82.2906 27.7348 82.6595 27.3212 82.6595 26.8708C82.6595 26.3837 82.2906 25.9701 81.8251 25.9701Z" fill="black"/>
<path fill-rule="evenodd" clip-rule="evenodd" d="M82.7561 28.0933C82.2906 28.0933 81.9218 28.5069 81.9218 28.994C81.9218 29.4812 82.2906 29.858 82.7561 29.858C83.2216 29.858 83.6256 29.4812 83.6256 28.994C83.6256 28.5069 83.2304 28.0933 82.7561 28.0933Z" fill="black"/>
<path fill-rule="evenodd" clip-rule="evenodd" d="M83.4938 30.3452C83.0283 30.3452 82.6594 30.7588 82.6594 31.2459C82.6594 31.733 83.0283 32.1099 83.4938 32.1099C83.9593 32.1099 84.3282 31.7239 84.3282 31.2459C84.3282 30.768 83.9593 30.3452 83.4938 30.3452Z" fill="black"/>
<path fill-rule="evenodd" clip-rule="evenodd" d="M83.8978 32.6982C83.4323 32.6982 83.0283 33.0842 83.0283 33.5713C83.0283 34.0585 83.4323 34.4353 83.8978 34.4353C84.3633 34.4353 84.7322 34.0585 84.7322 33.5713C84.7322 33.0842 84.3633 32.6982 83.8978 32.6982Z" fill="black"/>
<path fill-rule="evenodd" clip-rule="evenodd" d="M73.1651 51.3014C72.6996 51.3014 72.3395 51.6875 72.3395 52.1654C72.3395 52.6434 72.6996 53.0662 73.1651 53.0662C73.6306 53.0662 73.9995 52.6526 73.9995 52.1654C73.9995 51.6783 73.6306 51.3014 73.1651 51.3014Z" fill="black"/>
<path fill-rule="evenodd" clip-rule="evenodd" d="M75.3345 50.5753C74.869 50.5753 74.5001 50.9522 74.5001 51.4393C74.5001 51.9265 74.869 52.3033 75.3345 52.3033C75.8 52.3033 76.1689 51.9265 76.1689 51.4393C76.1689 50.9522 75.8 50.5753 75.3345 50.5753Z" fill="black"/>
<path fill-rule="evenodd" clip-rule="evenodd" d="M77.3283 49.4264C76.8628 49.4264 76.4939 49.84 76.4939 50.3272C76.4939 50.8143 76.8628 51.1911 77.3283 51.1911C77.7938 51.1911 78.1627 50.8143 78.1627 50.3272C78.1627 49.84 77.7938 49.4264 77.3283 49.4264Z" fill="black"/>
<path fill-rule="evenodd" clip-rule="evenodd" d="M79.0937 47.9374C78.6282 47.9374 78.2593 48.3142 78.2593 48.8014C78.2593 49.2885 78.6282 49.7021 79.0937 49.7021C79.5592 49.7021 79.928 49.2885 79.928 48.8014C79.928 48.3142 79.5592 47.9374 79.0937 47.9374Z" fill="black"/>
<path fill-rule="evenodd" clip-rule="evenodd" d="M80.5955 46.0624C80.13 46.0624 79.7611 46.476 79.7611 46.9631C79.7611 47.4503 80.13 47.8271 80.5955 47.8271C81.061 47.8271 81.4299 47.4503 81.4299 46.9631C81.4299 46.476 81.061 46.0624 80.5955 46.0624Z" fill="black"/>
<path fill-rule="evenodd" clip-rule="evenodd" d="M81.8251 44.0862C81.3596 44.0862 80.9907 44.4631 80.9907 44.9502C80.9907 45.4374 81.3596 45.8142 81.8251 45.8142C82.2906 45.8142 82.6595 45.4282 82.6595 44.9502C82.6595 44.4723 82.2906 44.0862 81.8251 44.0862Z" fill="black"/>
<path fill-rule="evenodd" clip-rule="evenodd" d="M82.7561 42.0733C82.2906 42.0733 81.9218 42.4594 81.9218 42.9373C81.9218 43.4153 82.2906 43.7737 82.7561 43.7737C83.2216 43.7737 83.6256 43.4244 83.6256 42.9373C83.6256 42.4502 83.2304 42.0733 82.7561 42.0733Z" fill="black"/>
<path fill-rule="evenodd" clip-rule="evenodd" d="M83.4938 39.7847C83.0283 39.7847 82.6594 40.1707 82.6594 40.6579C82.6594 41.145 83.0283 41.5586 83.4938 41.5586C83.9593 41.5586 84.3282 41.145 84.3282 40.6579C84.3282 40.1707 83.9593 39.7847 83.4938 39.7847Z" fill="black"/>
<path fill-rule="evenodd" clip-rule="evenodd" d="M83.8978 37.4225C83.4323 37.4225 83.0283 37.8361 83.0283 38.3233C83.0283 38.8104 83.4323 39.1872 83.8978 39.1872C84.3633 39.1872 84.7322 38.8104 84.7322 38.3233C84.7322 37.8361 84.3633 37.4225 83.8978 37.4225Z" fill="black"/>
<path d="M70.3897 30.4647C70.2667 29.7845 69.7924 29.6283 69.5817 29.6191C68.677 29.5639 68.9493 30.9978 68.4487 29.8581C67.9217 28.654 68.2466 26.5492 70.2316 27.0455V27.0179C68.7912 24.6925 69.6519 22.4039 70.9957 21.2366C71.0221 21.209 71.0572 21.1814 71.0923 21.1539C66.9907 21.1906 64.4612 23.7918 62.8978 25.8047L70.4248 35.1982V30.9518C70.4248 30.8231 70.4072 30.6577 70.3985 30.4647H70.3897Z" fill="black"/>
<path fill-rule="evenodd" clip-rule="evenodd" d="M70.4248 35.1982H67.1575C65.4097 35.1982 66.0684 33.3324 66.7623 32.9463C66.2265 31.8709 63.8551 32.0824 64.426 34.9225C62.362 32.8728 60.298 34.3986 59.7008 35.8968H70.4336V35.1982H70.4248Z" fill="black"/>
<path d="M66.7623 38.8564C66.2265 39.9318 63.8551 39.7203 64.426 36.8802C62.362 38.9299 60.298 37.4041 59.7008 35.9059C59.4988 39.7571 61.5013 44.555 62.9593 46.0808L70.4248 36.6045H67.1575C65.4097 36.6045 66.0684 38.4703 66.7623 38.8564Z" fill="black"/>
<path fill-rule="evenodd" clip-rule="evenodd" d="M71.7598 35.8968V30.7864C71.7598 29.8305 72.357 29.6191 72.5942 29.6099C73.4988 29.5547 73.2265 30.9886 73.7272 29.8489C74.2629 28.6356 73.9292 26.5216 71.9267 27.0455C73.4286 24.6466 72.4888 22.2936 71.0923 21.1539V35.906H71.7686L71.7598 35.8968Z" fill="black"/>
<path d="M71.7949 41.338C71.9179 42.0182 72.3922 42.1744 72.603 42.1836C73.5076 42.2388 73.2353 40.8049 73.736 41.9446C74.2629 43.1487 73.938 45.2535 71.953 44.7572V44.7848C73.3934 47.1102 72.5327 49.3988 71.1889 50.5661C71.1625 50.5937 71.1274 50.6213 71.0923 50.6488C75.1939 50.6121 77.7234 48.0109 79.2868 45.998L71.7598 36.6045V40.8509C71.7598 40.9796 71.7774 41.145 71.7861 41.338H71.7949Z" fill="black"/>
<path fill-rule="evenodd" clip-rule="evenodd" d="M71.7598 36.5953H75.027C76.7748 36.5953 76.1161 38.4611 75.4222 38.8472C75.958 39.9225 78.3294 39.7112 77.7585 36.871C79.8225 38.9207 81.8865 37.3949 82.4837 35.8967H71.751V36.5953H71.7598Z" fill="black"/>
<path d="M75.431 32.9463C75.9668 31.8709 78.3382 32.0823 77.7673 34.9225C79.8313 32.8728 81.8953 34.3986 82.4925 35.8968C82.6945 32.0456 80.692 27.2477 79.2341 25.7219L71.7686 35.1982H75.0358C76.7836 35.1982 76.1249 33.3324 75.431 32.9463Z" fill="black"/>
<path fill-rule="evenodd" clip-rule="evenodd" d="M70.4247 35.8968V41.0071C70.4247 41.963 69.8275 42.1744 69.5904 42.1836C68.6857 42.2388 68.958 40.8049 68.4574 41.9447C67.9216 43.1579 68.2554 45.2719 70.2579 44.748C68.756 47.147 69.6958 49.4999 71.0922 50.6397V35.8876H70.416L70.4247 35.8968Z" fill="black"/>
<path d="M71.9794 15.9975C72.0057 14.9956 71.6896 14.2511 71.0923 13.9846C70.4951 14.2511 70.1877 14.9956 70.2052 15.9975C69.1425 15.9607 67.9656 17.0545 68.8263 18.5619C69.3884 17.606 70.2052 17.8357 70.2052 18.6538C70.2052 19.4534 70.2052 19.7751 70.2052 20.5012H71.9706C71.9706 19.7751 71.9706 19.4626 71.9706 18.6538C71.9706 17.8357 72.7874 17.606 73.3495 18.5619C74.2015 17.0545 73.0334 15.9607 71.9706 15.9975H71.9794Z" fill="black"/>
<path d="M54.2378 35.0144C53.2717 34.9868 52.569 35.3085 52.3055 35.9335C52.569 36.5585 53.2717 36.8802 54.2378 36.8526C54.2027 37.9648 55.2478 39.1872 56.697 38.2957C55.7836 37.7074 56.0032 36.8342 56.7848 36.8342C57.5577 36.8342 58.1374 36.8342 58.8313 36.8342V35.0052C58.1374 35.0052 57.549 35.0052 56.7848 35.0052C55.9944 35.0052 55.7748 34.1504 56.697 33.5621C55.2478 32.6706 54.2027 33.893 54.2378 35.0052V35.0144Z" fill="black"/>
<path d="M87.7973 36.8618C88.7635 36.8894 89.4661 36.5677 89.7296 35.9427C89.4661 35.3177 88.7635 34.996 87.7973 35.0236C87.8325 33.9114 86.7785 32.689 85.3381 33.5805C86.2515 34.1688 86.032 35.0419 85.2503 35.0419C84.4774 35.0419 83.8977 35.0419 83.2039 35.0419V36.871C83.8977 36.871 84.4862 36.871 85.2503 36.871C86.0407 36.871 86.2603 37.7258 85.3381 38.3141C86.7873 39.2056 87.8325 37.9832 87.7973 36.871V36.8618Z" fill="black"/>
<path d="M70.2051 55.9431C70.1788 56.9449 70.495 57.6894 71.0922 57.956C71.6894 57.6894 71.9968 56.9449 71.9793 55.9431C73.042 55.9798 74.2189 54.8861 73.3582 53.3787C72.7961 54.3346 71.9617 54.1048 71.9617 53.2868C71.9617 52.4871 71.9617 52.1654 71.9617 51.4393H70.2051C70.2051 52.1654 70.2051 52.4779 70.2051 53.2868C70.2051 54.1048 69.3883 54.3346 68.8262 53.3787C67.9742 54.8861 69.1424 55.9798 70.2051 55.9431Z" fill="black"/>
<path fill-rule="evenodd" clip-rule="evenodd" d="M71.1011 13.5802C72.7523 13.5802 74.2454 14.2328 75.3345 15.2898L75.8351 14.775C74.6143 13.5986 72.9455 12.8633 71.1011 12.8633C69.2567 12.8633 67.5879 13.5894 66.3671 14.7659L66.8677 15.2806C67.9568 14.2236 69.4587 13.571 71.1011 13.571V13.5802Z" fill="black"/>
<path fill-rule="evenodd" clip-rule="evenodd" d="M71.0923 13.5802C69.4411 13.5802 67.948 14.2328 66.8589 15.2898L66.3583 14.775C67.5791 13.5986 69.2479 12.8633 71.0923 12.8633C72.9367 12.8633 74.6055 13.5894 75.8263 14.7659L75.3257 15.2806C74.2366 14.2236 72.7347 13.571 71.0923 13.571V13.5802Z" fill="black"/>
<path fill-rule="evenodd" clip-rule="evenodd" d="M81.263 7.44957C81.0434 5.90543 78.9618 6.29146 78.066 6.68669C76.9945 7.15545 75.9317 7.23817 74.7987 6.76022C71.2504 5.35395 74.0785 1.73256 75.7736 1.43844C76.1249 1.3741 75.8088 0.988061 75.1325 1.31895C74.5352 1.61307 74.0961 1.87043 74.1312 1.7969C75.1237 -0.0781339 76.4324 -0.243578 77.0823 0.546877C77.3282 0.850191 77.2404 1.18108 76.7046 1.67741C74.1751 4.00282 76.6958 4.82085 78.795 4.78408C81.5265 5.02306 83.4587 6.34661 83.0898 10.5838C84.5566 7.7345 91.2843 6.42014 92.8125 12.2475C93.0146 13.4975 93.1463 14.4718 92.7774 16.4847C92.5491 17.1464 93.3483 17.8909 94.2793 18.0104C93.6469 18.6906 92.9443 18.5987 92.3119 17.7714C92.5139 19.1593 92.2417 20.8689 94.209 21.2733C98.6444 21.8248 95.3772 25.2624 91.4424 22.8359C90.1074 21.9903 88.6846 20.0877 89.4048 17.6979C85.0396 18.3229 85.3119 13.0839 86.2429 13.9203C87.3408 14.9313 89.677 15.0416 90.1074 13.5434C86.0321 15.6299 85.9355 11.0342 87.1475 12.3669C88.9129 14.3063 91.2141 11.3191 88.8075 10.0415C89.7385 11.3191 89.3257 12.0452 88.6406 12.3302C87.9029 12.6335 86.7435 12.0544 87.411 11.1813C88.342 9.99557 86.4888 9.69226 85.4437 10.2437C84.6444 10.7676 84.2755 11.218 83.1777 13.1942C82.5628 11.7327 81.5352 11.3375 80.1827 11.3927C81.746 9.03048 79.8138 8.34113 79.2165 9.16835C78.7423 9.79336 78.1362 9.41652 78.1889 8.71798C78.1538 6.63154 80.0861 6.39257 81.2542 7.46796L81.263 7.44957Z" fill="black"/>
<path fill-rule="evenodd" clip-rule="evenodd" d="M80.3583 21.5307C78.9618 20.5564 77.5653 19.6189 76.16 18.6538C78.4612 16.9902 80.1563 15.5287 81.6582 14.0765C81.8602 13.8283 81.7284 13.6261 81.4298 13.8008C80.1299 14.8394 79.0672 15.7493 77.7673 16.788H76.9681C77.0032 16.1997 76.9681 15.5747 76.9681 15.1243C77.9342 15.0232 79.6293 14.6004 80.1387 13.9754C80.6393 13.3596 78.7949 13.5618 79.3746 12.7989C80.9555 10.7952 83.7046 13.185 82.4398 14.4993C81.6318 15.299 80.9467 15.8504 80.1738 16.5122C81.8777 15.639 83.608 14.6372 85.3119 13.3136C85.2416 13.9019 85.145 14.5269 85.0747 15.1519C83.5114 15.9515 81.9129 16.6409 80.3144 17.3027C80.0772 17.3394 80.1124 17.7898 80.3144 17.7898C81.8514 16.7144 83.5114 16.3652 84.5477 16.6777C85.7861 17.0269 85.6193 18.4148 84.6444 18.8652C84.5478 19.2512 85.1099 19.1042 85.751 18.902C85.5139 20.391 83.9154 19.8762 84.012 20.152C84.0823 20.391 85.145 20.2899 85.3119 20.2163C84.8815 21.5031 83.5114 21.1171 83.5114 21.3285C83.5114 21.5766 83.9154 21.641 84.1789 21.6777C83.9154 21.9903 83.4762 22.3395 82.6506 22.1373C82.5804 22.1006 82.3871 22.1373 82.5189 22.2384C82.5804 22.3395 82.7472 22.4498 83.0195 22.4866C82.2905 22.7623 81.623 22.5509 81.219 22.2384C80.815 21.9259 80.7535 21.3744 80.7886 21.402C81.1575 21.7513 81.5176 21.788 81.4913 21.7513C80.9643 21.3377 80.4285 20.2255 81.6933 19.4626C81.7284 19.5637 81.825 19.9865 82.027 20.1152C82.1939 20.2163 82.2642 20.2531 82.1939 20.0509C82.0885 19.6005 81.9919 18.8744 82.6945 18.5895C82.6331 18.7641 82.7912 19.3248 82.9932 19.3891C83.0898 19.4259 83.1952 19.4259 83.16 19.3615C83.0634 19.0766 82.5892 18.0747 83.3533 17.9001C83.4587 18.0747 83.4235 18.4884 84.0208 18.5251C85.5929 16.6501 81.7548 16.6869 81.9568 17.6244C82.1237 17.6979 82.2905 17.7714 82.4574 17.8358C81.9919 18.3597 81.4913 18.9479 81.0258 19.4994C80.288 19.2237 79.5854 18.8744 78.8652 18.5987C78.7949 18.6998 78.5314 18.9847 78.426 19.0858C79.0321 19.4351 79.7259 19.8119 80.3583 20.1612C80.3232 20.6851 80.3934 21.0344 80.3934 21.5491L80.3583 21.5307Z" fill="black"/>
<path fill-rule="evenodd" clip-rule="evenodd" d="M85.5228 31.7974C85.2593 30.3727 84.987 28.8837 84.3898 27.6981C84.7235 27.4223 85.1627 27.1834 85.4876 26.8984C84.987 26.972 84.5918 27.0271 84.0912 27.0914C83.7574 26.0896 83.0987 25.051 82.115 23.8837C82.115 23.8469 83.6344 23.6631 87.4111 24.6465C84.8816 23.6723 84.9255 22.0086 85.514 21.2825C86.4977 20.0693 88.1752 21.4571 88.1752 21.4571C88.1752 21.4571 88.2455 21.0435 87.8239 20.7586C87.1388 20.2807 86.3747 20.6483 86.4713 20.584C87.3057 19.8211 88.5705 20.0693 89.1062 21.1446C89.6068 22.1833 88.7812 23.8929 87.2706 22.9094C87.78 22.0086 87.1476 21.6042 86.6733 21.6961C86.1639 21.788 85.8477 22.3395 86.3396 23.0197C87.1388 24.1962 89.2204 24.2697 91.0033 24.4719C95.7988 25.1337 98.1 33.2864 90.5993 34.0493C92.9005 32.7993 92.9005 28.9849 90.3973 28.9113C89.0272 28.8837 88.1577 30.7496 89.7649 31.3103C89.2204 30.7864 89.3697 29.7569 90.0723 29.711C92.8126 29.6374 91.4073 34.9684 88.307 33.0107C83.3797 29.233 91.3459 23.2954 93.3747 29.5455C93.7348 26.0896 86.2781 23.2678 85.514 31.7974H85.5228Z" fill="black"/>
<path fill-rule="evenodd" clip-rule="evenodd" d="M99.7159 45.8142C100.585 44.362 99.9531 41.963 98.3546 41.963C96.7473 41.9906 96.8615 44.3528 98.0208 44.1873C98.9606 44.0495 100.05 44.7756 99.7159 45.8142Z" fill="black"/>
<path fill-rule="evenodd" clip-rule="evenodd" d="M98.8551 38.9115C98.1525 37.1743 96.9931 36.485 95.5615 36.485C94.367 36.485 93.761 37.0456 93.3921 37.5971C91.8024 40.1615 94.815 42.634 96.6945 38.8747C97.16 38.0934 98.0295 38.4243 98.8639 38.9115H98.8551Z" fill="black"/>
<path fill-rule="evenodd" clip-rule="evenodd" d="M99.953 41.6229C99.9881 40.0972 99.0483 39.2975 98.2842 39.1597C97.5201 39.031 97.1161 39.3251 96.879 39.6376C95.8514 41.0255 97.6431 42.7259 98.5829 40.8141C98.8551 40.2626 99.5841 40.713 99.953 41.6137V41.6229Z" fill="black"/>
<path fill-rule="evenodd" clip-rule="evenodd" d="M89.3872 39.0861C89.9493 38.0107 90.731 37.6431 91.4161 37.7626C91.8816 37.8637 92.2153 38.0199 92.4173 38.5255C92.8477 39.9501 91.2492 40.3637 90.854 39.1597C90.6871 38.6082 89.9142 38.5622 89.3872 39.0861Z" fill="black"/>
<path fill-rule="evenodd" clip-rule="evenodd" d="M74.8953 60.1251C73.1651 50.8235 81.4298 53.4889 84.4599 44.0219C84.8288 45.5109 84.7586 46.8712 84.1965 48.0109C84.3633 47.8363 84.4599 47.9006 84.662 47.487C85.4261 45.6855 86.0233 42.7351 86.3658 39.8582C86.6996 39.4446 88.3684 39.031 88.2366 39.895C87.736 43.0568 87.4637 44.7756 87.3495 45.8877C87.3056 46.2921 88.2103 42.7167 88.746 40.4464C89.1149 39.0402 91.3721 39.1596 90.8803 40.8692C90.3797 42.395 90.0108 43.0476 89.5101 44.5458C90.2567 43.2866 91.0735 42.1652 91.4424 40.6211C91.9167 40.8049 92.4436 40.667 92.7071 40.52C92.8564 40.4372 92.7774 40.9336 92.5578 41.6229C92.0748 43.0568 91.2843 43.8105 90.3445 44.987C91.4424 44.1873 92.8389 42.588 93.1726 41.1358C93.9367 41.6229 94.8063 41.5862 95.6406 41.4115C94.9117 43.3601 93.4713 44.3803 91.7322 45.6947C91.4336 45.9337 90.6344 46.5862 90.3709 46.8528C92.6017 45.7406 94.8677 44.4539 96.2642 41.1266C96.4311 41.5126 96.6331 42.0641 97.1689 42.2387C96.7385 42.9005 96.8351 43.8013 97.002 44.6285C95.9305 46.3289 92.2065 47.1929 90.5992 47.5421C90.4938 47.5789 94.8326 47.5789 97.4675 44.8399C98.3458 44.0035 99.9004 45.3454 99.1011 46.5771C98.0647 48.2039 95.5616 48.4705 90.8978 48.3418C90.8803 48.5164 101.525 48.9484 102.43 48.93C103.124 48.93 102.614 51.5863 100.972 51.3749C96.8088 50.8878 96.4487 50.5845 95.0961 50.2812C94.3935 50.1249 97.4324 51.3198 100.234 51.8713C100.164 52.8088 98.2316 53.5073 96.5365 52.8455C94.411 52.0459 91.3282 49.3988 89.8702 50.1433C89.6682 50.2444 90.7398 49.9595 92.4349 51.1084C94.2178 52.3216 96.3345 53.6452 96.4662 53.7463C94.4286 57.046 92.5315 52.9099 89.2027 51.2463C88.3684 50.8143 87.6482 50.6764 88.0697 50.8602C97.1689 55.5846 89.2027 62.0369 86.7084 56.5129C89.8 57.9651 90.9681 55.511 89.5365 53.4246C90.406 56.7519 87.6218 57.0092 86.5152 55.796C89.8439 54.2702 86.9192 51.0257 84.3545 50.8694C82.2203 50.8051 81.3771 53.0937 82.7297 54.1691C82.9141 54.3621 81.6757 52.5974 83.0986 51.9356C84.3282 51.3841 84.8903 51.6782 85.549 52.2757C87.3408 53.9026 85.3295 58.5809 82.3696 56.9633C80.5076 55.8787 79.199 55.2261 77.5741 56.0625C79.9016 55.9614 81.3859 56.8714 82.2027 57.6618C83.1074 58.5809 82.1764 60.4192 80.3671 58.9854C79.3571 58.1306 75.0446 55.5846 75.9054 59.0497C76.0722 59.7482 77.6444 60.2722 76.1776 60.9891C75.2554 61.3843 75.0095 60.7225 74.9129 60.0975L74.8953 60.1251Z" fill="black"/>
<path d="M29.2237 81.2426C26.1233 81.2426 25.4207 79.4779 25.4207 77.5201V70.8196H27.3178V77.3915C27.3178 78.6782 27.7218 79.5974 29.3554 79.5974C30.8134 79.5974 31.4194 78.9632 31.4194 77.2168V70.8196H33.299V77.0881C33.299 79.9007 31.8146 81.2334 29.2237 81.2334V81.2426Z" fill="black"/>
<path d="M39.4734 81.068V76.2425C39.4734 75.4521 39.2713 74.9833 38.5863 74.9833C37.6377 74.9833 36.9 76.1047 36.9 77.4282V81.0772H35.038V73.5311H36.8033C36.8033 73.8804 36.777 74.4686 36.6979 74.8638L36.7155 74.8822C37.1547 73.9815 37.9978 73.3657 39.1747 73.3657C40.8084 73.3657 41.3266 74.4594 41.3266 75.783V81.0864H39.4734V81.068Z" fill="black"/>
<path d="M43.9878 72.5476C43.3467 72.5476 42.8373 72.0145 42.8373 71.3619C42.8373 70.7094 43.3467 70.1946 43.9878 70.1946C44.629 70.1946 45.156 70.7094 45.156 71.3619C45.156 72.0145 44.629 72.5476 43.9878 72.5476ZM43.0569 81.068V73.5219H44.9188V81.068H43.0569Z" fill="black"/>
<path d="M50.25 81.068H48.3617L45.6829 73.5219H47.7205L48.8711 76.9227C49.0467 77.4374 49.2224 78.0441 49.3541 78.5955H49.3805C49.4947 78.0808 49.644 77.5018 49.8196 76.9871L50.9878 73.5219H52.9639L50.2588 81.068H50.25Z" fill="black"/>
<path d="M59.314 77.6121H54.8259C54.8084 79.0275 55.4847 79.7077 56.8197 79.7077C57.5311 79.7077 58.304 79.5422 58.9276 79.2389L59.1032 80.7463C58.3303 81.068 57.4169 81.2334 56.5123 81.2334C54.2111 81.2334 52.9288 80.0386 52.9288 77.3731C52.9288 75.0661 54.1497 73.3657 56.3191 73.3657C58.4884 73.3657 59.358 74.873 59.358 76.7389C59.358 76.9962 59.3404 77.2995 59.2965 77.6212L59.314 77.6121ZM56.2751 74.7903C55.5022 74.7903 54.9665 75.3786 54.8611 76.2977H57.5223C57.5487 75.3602 57.0568 74.7903 56.2663 74.7903H56.2751Z" fill="black"/>
<path d="M64.5135 75.2683C63.1698 74.9833 62.5022 75.8933 62.5022 77.9889V81.068H60.6403V73.5219H62.4056C62.4056 73.8987 62.3617 74.5054 62.2739 75.0385H62.3002C62.6516 74.0826 63.3454 73.2462 64.6014 73.3565L64.5135 75.2683Z" fill="black"/>
<path d="M66.762 81.2243C66.235 81.2243 65.7169 81.1599 65.2514 81.0864L65.2953 79.4871C65.7432 79.6066 66.2965 79.7169 66.8499 79.7169C67.5613 79.7169 68.0268 79.4136 68.0268 78.908C68.0268 77.5753 65.1021 78.329 65.1021 75.7646C65.1021 74.441 66.1384 73.3473 68.1761 73.3473C68.5977 73.3473 69.0632 73.4116 69.5023 73.4851L69.4408 75.0201C69.0368 74.9006 68.5537 74.8179 68.097 74.8179C67.368 74.8179 67.0167 75.1212 67.0167 75.59C67.0167 76.8216 69.9854 76.2701 69.9854 78.715C69.9854 80.204 68.7294 81.2059 66.7532 81.2059L66.762 81.2243Z" fill="black"/>
<path d="M72.225 72.5476C71.5839 72.5476 71.0745 72.0145 71.0745 71.3619C71.0745 70.7094 71.5839 70.1946 72.225 70.1946C72.8662 70.1946 73.3932 70.7094 73.3932 71.3619C73.3932 72.0145 72.8662 72.5476 72.225 72.5476ZM71.294 81.068V73.5219H73.156V81.068H71.294Z" fill="black"/>
<path d="M79.2426 81.068C79.2426 80.7003 79.2689 80.2132 79.3304 79.8087H79.3041C78.9264 80.6452 78.1272 81.2334 77.0205 81.2334C75.2551 81.2334 74.3856 79.8547 74.3856 77.6947C74.3856 75.1395 75.8085 73.384 78.215 73.384C78.5224 73.384 78.8122 73.4024 79.1284 73.4483V69.9832H80.9816V81.068H79.2514H79.2426ZM79.1284 75.0384C78.7947 74.9649 78.4697 74.919 78.1535 74.919C77.0908 74.919 76.3354 75.6175 76.3354 77.4833C76.3354 78.8988 76.7307 79.6249 77.5738 79.6249C78.5487 79.6249 79.1284 78.4392 79.1284 77.1525V75.0384Z" fill="black"/>
<path d="M86.5763 81.068C86.5763 80.6268 86.5939 80.1856 86.6466 79.7904L86.629 79.772C86.2777 80.6268 85.3906 81.2151 84.3103 81.2151C83.0017 81.2151 82.2463 80.443 82.2463 79.2297C82.2463 77.419 83.9678 76.4631 86.427 76.4631V76.0495C86.427 75.2591 86.0669 74.8547 85.013 74.8547C84.3543 74.8547 83.4847 75.0844 82.8699 75.4429L82.7118 73.816C83.4408 73.5403 84.3718 73.3473 85.3028 73.3473C87.6303 73.3473 88.289 74.3307 88.289 75.976V79.1194C88.289 79.7261 88.3066 80.443 88.3329 81.0588H86.5675L86.5763 81.068ZM86.427 77.7224C84.4596 77.7224 84.0205 78.3106 84.0205 78.9264C84.0205 79.4136 84.3367 79.7353 84.8812 79.7353C85.7946 79.7353 86.427 78.8253 86.427 77.9154V77.7315V77.7224Z" fill="black"/>
<path d="M94.4108 81.068C94.4108 80.7003 94.4371 80.2132 94.4986 79.8087H94.4723C94.0946 80.6452 93.2954 81.2334 92.1887 81.2334C90.4233 81.2334 89.5538 79.8547 89.5538 77.6947C89.5538 75.1395 90.9767 73.384 93.3832 73.384C93.6906 73.384 93.9804 73.4024 94.2966 73.4483V69.9832H96.1498V81.068H94.4196H94.4108ZM94.2966 75.0384C93.9629 74.9649 93.6379 74.919 93.3217 74.919C92.259 74.919 91.5036 75.6175 91.5036 77.4833C91.5036 78.8988 91.8989 79.6249 92.742 79.6249C93.7169 79.6249 94.2966 78.4392 94.2966 77.1525V75.0384Z" fill="black"/>
<path d="M106.32 81.068C106.32 80.7003 106.347 80.2132 106.408 79.8087H106.382C106.004 80.6452 105.205 81.2334 104.098 81.2334C102.333 81.2334 101.463 79.8547 101.463 77.6947C101.463 75.1395 102.886 73.384 105.293 73.384C105.6 73.384 105.89 73.4024 106.206 73.4483V69.9832H108.059V81.068H106.329H106.32ZM106.206 75.0384C105.872 74.9649 105.547 74.919 105.231 74.919C104.169 74.919 103.413 75.6175 103.413 77.4833C103.413 78.8988 103.808 79.6249 104.652 79.6249C105.626 79.6249 106.206 78.4392 106.206 77.1525V75.0384Z" fill="black"/>
<path d="M115.806 77.6121H111.318C111.3 79.0275 111.977 79.7077 113.312 79.7077C114.023 79.7077 114.796 79.5422 115.42 79.2389L115.595 80.7463C114.822 81.068 113.909 81.2334 113.004 81.2334C110.703 81.2334 109.421 80.0386 109.421 77.3731C109.421 75.0661 110.642 73.3657 112.811 73.3657C114.98 73.3657 115.85 74.873 115.85 76.7389C115.85 76.9962 115.832 77.2995 115.788 77.6212L115.806 77.6121ZM112.758 74.7903C111.985 74.7903 111.45 75.3786 111.344 76.2977H114.005C114.032 75.3602 113.54 74.7903 112.75 74.7903H112.758Z" fill="black"/>
<path d="M117.132 81.068V69.9832H118.994V81.068H117.132Z" fill="black"/>
<path d="M35.5298 108.596L29.6453 99.4966H29.4872V108.596H25.4207V86.5736C27.0806 86.4725 29.048 86.4449 31.4897 86.4449C36.1534 86.4449 39.1484 88.1453 39.1484 92.6399C39.1484 95.9028 36.9614 98.2466 33.7645 98.7705C34.3617 99.5886 34.9502 100.434 35.4859 101.188L40.5537 108.596H35.521H35.5298ZM31.0857 89.9009C30.4884 89.9009 29.9 89.9376 29.4872 90.002V96.3624C29.7682 96.3992 30.3303 96.4267 30.9539 96.4267C33.3956 96.4267 34.8975 95.1216 34.8975 93.0627C34.8975 91.0038 33.6415 89.9009 31.0857 89.9009Z" fill="black"/>
<path d="M48.0367 108.918C43.6277 108.918 40.782 106.537 40.782 100.765C40.782 95.7098 44.0053 92.0516 48.7306 92.0516C53.1396 92.0516 55.9853 94.5976 55.9853 100.177C55.9853 105.269 52.7004 108.918 48.0367 108.918ZM48.4407 95.5719C46.6578 95.5719 44.91 97.0058 44.91 100.333C44.91 103.66 46.0693 105.361 48.3792 105.361C50.3466 105.361 51.8485 103.697 51.8485 100.397C51.8485 97.0977 50.7858 95.5719 48.4407 95.5719Z" fill="black"/>
<path d="M61.2639 108.918C60.1397 108.918 59.0154 108.789 58.0142 108.624L58.1108 105.195C59.0769 105.453 60.2714 105.682 61.4571 105.682C62.9853 105.682 63.9866 105.03 63.9866 103.954C63.9866 101.078 57.698 102.714 57.698 97.1988C57.698 94.3587 59.9201 92.0149 64.294 92.0149C65.1986 92.0149 66.1999 92.1435 67.1397 92.309L67.0167 95.6087C66.1384 95.3513 65.1108 95.1859 64.1359 95.1859C62.5725 95.1859 61.8172 95.8385 61.8172 96.8495C61.8172 99.4966 68.2024 98.3201 68.2024 103.568C68.2024 106.767 65.5148 108.918 61.2551 108.918H61.2639Z" fill="black"/>
<path d="M79.3129 108.596C79.3129 107.649 79.348 106.703 79.471 105.857L79.4358 105.82C78.6805 107.649 76.7746 108.918 74.4647 108.918C71.6454 108.918 70.0205 107.254 70.0205 104.644C70.0205 100.756 73.7093 98.7062 78.9967 98.7062V97.8238C78.9967 96.1234 78.215 95.2502 75.9666 95.2502C74.5613 95.2502 72.6817 95.7374 71.3643 96.5186L71.0218 93.0259C72.5851 92.4377 74.5876 92.0149 76.5901 92.0149C81.5964 92.0149 83.0017 94.1381 83.0017 97.6584V104.414C83.0017 105.719 83.0368 107.254 83.0983 108.587H79.3129V108.596ZM78.9967 101.418C74.7721 101.418 73.8323 102.686 73.8323 104C73.8323 105.048 74.5174 105.728 75.6767 105.728C77.6441 105.728 78.9967 103.771 78.9967 101.813V101.418Z" fill="black"/>
<path d="M95.0694 96.1326C92.1886 95.5168 90.757 97.4745 90.757 101.969V108.596H86.752V92.3825H90.5374C90.5374 93.2006 90.4408 94.5057 90.2563 95.6455H90.3178C91.0732 93.5866 92.5663 91.7943 95.2626 92.0241L95.0782 96.1326H95.0694Z" fill="black"/>
<path d="M99.2237 90.2869C97.8448 90.2869 96.7557 89.1472 96.7557 87.7409C96.7557 86.3346 97.8536 85.2317 99.2237 85.2317C100.594 85.2317 101.727 86.3438 101.727 87.7409C101.727 89.138 100.603 90.2869 99.2237 90.2869ZM97.2212 108.587V92.3733H101.226V108.587H97.2212Z" fill="black"/>
<path d="M111.046 108.918C106.637 108.918 103.791 106.537 103.791 100.765C103.791 95.7098 107.014 92.0516 111.739 92.0516C116.149 92.0516 118.994 94.5976 118.994 100.177C118.994 105.269 115.709 108.918 111.046 108.918ZM111.45 95.5719C109.667 95.5719 107.919 97.0058 107.919 100.333C107.919 103.66 109.078 105.361 111.388 105.361C113.356 105.361 114.857 103.697 114.857 100.397C114.857 97.0977 113.795 95.5719 111.45 95.5719Z" fill="black"/>
<path d="M141.259 118.202L141.259 117.283L0.84903 117.283L0.84903 118.202L141.259 118.202Z" fill="black"/>
<path d="M17.7496 128.867H14.2846V132.291H18.1453V133.32H13.1349V123.824H17.9475V124.853H14.2846V127.849H17.7496V128.861V128.867Z" fill="black"/>
<path d="M19.4393 132.051C19.7815 132.291 20.3911 132.543 20.974 132.543C21.8189 132.543 22.2146 132.091 22.2146 131.531C22.2146 130.936 21.883 130.616 21.0274 130.279C19.8778 129.844 19.3377 129.164 19.3377 128.346C19.3377 127.249 20.1719 126.345 21.5461 126.345C22.1932 126.345 22.76 126.54 23.1183 126.768L22.8295 127.672C22.5782 127.5 22.1183 127.277 21.5194 127.277C20.8296 127.277 20.4499 127.7 20.4499 128.209C20.4499 128.775 20.8349 129.027 21.6638 129.364C22.776 129.816 23.3428 130.405 23.3428 131.422C23.3428 132.617 22.4712 133.463 20.9526 133.463C20.2521 133.463 19.6051 133.28 19.1559 133L19.4446 132.057L19.4393 132.051Z" fill="black"/>
<path d="M29.3961 133.063C29.0913 133.235 28.4176 133.458 27.5566 133.458C25.6263 133.458 24.3696 132.063 24.3696 129.976C24.3696 127.889 25.7172 126.357 27.808 126.357C28.4978 126.357 29.102 126.54 29.4229 126.711L29.1555 127.672C28.8774 127.5 28.4443 127.346 27.808 127.346C26.3428 127.346 25.546 128.501 25.546 129.924C25.546 131.502 26.4979 132.474 27.7652 132.474C28.4283 132.474 28.8614 132.291 29.1929 132.137L29.3908 133.069L29.3961 133.063Z" fill="black"/>
<path d="M36.1124 131.457C36.1124 132.16 36.1231 132.783 36.1658 133.315H35.1338L35.0696 132.2H35.0429C34.7381 132.749 34.0643 133.469 32.9254 133.469C31.9201 133.469 30.7169 132.874 30.7169 130.485V126.5H31.8826V130.273C31.8826 131.571 32.2516 132.44 33.3104 132.44C34.0911 132.44 34.6312 131.862 34.8451 131.314C34.9092 131.131 34.952 130.908 34.952 130.679V126.5H36.1177V131.457H36.1124Z" fill="black"/>
<path d="M38.6898 130.136C38.7165 131.811 39.7218 132.503 40.8822 132.503C41.7163 132.503 42.219 132.348 42.6521 132.148L42.85 133.034C42.4382 133.235 41.7377 133.458 40.7217 133.458C38.7539 133.458 37.5775 132.074 37.5775 130.021C37.5775 127.969 38.7111 126.345 40.5774 126.345C42.6628 126.345 43.2189 128.306 43.2189 129.558C43.2189 129.81 43.1922 130.01 43.1815 130.136H38.6898ZM42.1014 129.25C42.1174 128.461 41.7966 127.237 40.4865 127.237C39.3101 127.237 38.7967 128.392 38.7005 129.25H42.096H42.1014Z" fill="black"/>
<path d="M44.6681 123.315H45.8338V133.32H44.6681V123.315Z" fill="black"/>
<path d="M51.3309 133.32L51.24 132.463H51.2026C50.8443 133 50.1598 133.475 49.2455 133.475C47.9514 133.475 47.2883 132.503 47.2883 131.514C47.2883 129.867 48.6626 128.964 51.1331 128.975V128.832C51.1331 128.266 50.9887 127.254 49.6786 127.254C49.085 127.254 48.4647 127.454 48.0102 127.763L47.7482 126.946C48.2776 126.58 49.0423 126.34 49.8497 126.34C51.8068 126.34 52.2827 127.763 52.2827 129.13V131.679C52.2827 132.274 52.3095 132.846 52.3897 133.315H51.3309V133.32ZM51.1598 129.839C49.8925 129.81 48.4487 130.05 48.4487 131.376C48.4487 132.177 48.9513 132.56 49.5449 132.56C50.3791 132.56 50.9085 131.994 51.0903 131.416C51.1277 131.291 51.1545 131.148 51.1545 131.022V129.839H51.1598Z" fill="black"/>
<path d="M62.4907 123.315V131.559C62.4907 132.165 62.5014 132.857 62.5442 133.32H61.5015L61.448 132.137H61.4213C61.063 132.897 60.2823 133.475 59.2396 133.475C57.6942 133.475 56.5017 132.08 56.5017 130.01C56.4857 127.74 57.8118 126.345 59.3679 126.345C60.3465 126.345 61.0095 126.837 61.2983 127.386H61.325V123.315H62.4907ZM61.325 129.273C61.325 129.118 61.3143 128.907 61.2715 128.752C61.1004 127.963 60.4641 127.317 59.5925 127.317C58.3893 127.317 57.6781 128.444 57.6781 129.953C57.6781 131.336 58.3145 132.474 59.5711 132.474C60.3518 132.474 61.063 131.925 61.2769 130.993C61.3143 130.828 61.3304 130.656 61.3304 130.456V129.273H61.325Z" fill="black"/>
<path d="M65.0682 130.136C65.0949 131.811 66.1002 132.503 67.2606 132.503C68.0948 132.503 68.5974 132.348 69.0305 132.148L69.2284 133.034C68.8167 133.235 68.1162 133.458 67.1002 133.458C65.1323 133.458 63.9559 132.074 63.9559 130.021C63.9559 127.969 65.0896 126.345 66.9558 126.345C69.0412 126.345 69.5974 128.306 69.5974 129.558C69.5974 129.81 69.5706 130.01 69.5599 130.136H65.0682ZM68.4798 129.25C68.4958 128.461 68.175 127.237 66.8649 127.237C65.6885 127.237 65.1751 128.392 65.0789 129.25H68.4744H68.4798Z" fill="black"/>
<path d="M75.0409 123.824V133.32H73.8912V123.824H75.0409Z" fill="black"/>
<path d="M77.1423 128.346C77.1423 127.643 77.1316 127.066 77.0889 126.5H78.1209L78.1851 127.626H78.2118C78.5273 126.98 79.2706 126.345 80.3294 126.345C81.217 126.345 82.5913 126.911 82.5913 129.25V133.32H81.4309V129.387C81.4309 128.289 81.0459 127.374 79.9497 127.374C79.185 127.374 78.5915 127.952 78.3883 128.644C78.3348 128.798 78.3081 129.01 78.3081 129.221V133.32H77.1423V128.346Z" fill="black"/>
<path d="M89.992 126.5C89.9652 126.991 89.9385 127.54 89.9385 128.375V132.331C89.9385 133.898 89.6498 134.853 89.0241 135.447C88.4038 136.065 87.5055 136.265 86.698 136.265C85.8906 136.265 85.0831 136.07 84.5698 135.699L84.8586 134.755C85.281 135.035 85.9441 135.293 86.7355 135.293C87.9226 135.293 88.7995 134.63 88.7995 132.909V132.148H88.7728C88.4145 132.783 87.7301 133.292 86.7355 133.292C85.1473 133.292 84.0137 131.857 84.0137 129.964C84.0137 127.655 85.4307 126.345 86.8959 126.345C88.0081 126.345 88.6124 126.963 88.8904 127.529H88.9172L88.9707 126.5H89.9866H89.992ZM88.7888 129.193C88.7888 128.981 88.7781 128.798 88.7247 128.627C88.5108 127.906 87.944 127.317 87.0991 127.317C85.9868 127.317 85.1954 128.318 85.1954 129.896C85.1954 131.234 85.8318 132.348 87.0884 132.348C87.7996 132.348 88.452 131.868 88.7033 131.079C88.7675 130.868 88.7942 130.628 88.7942 130.416V129.193H88.7888Z" fill="black"/>
<path d="M92.5159 130.136C92.5427 131.811 93.548 132.503 94.7083 132.503C95.5425 132.503 96.0452 132.348 96.4783 132.148L96.6762 133.034C96.2644 133.235 95.5639 133.458 94.5479 133.458C92.5801 133.458 91.4037 132.074 91.4037 130.021C91.4037 127.969 92.5427 126.345 94.4035 126.345C96.4943 126.345 97.0451 128.306 97.0451 129.558C97.0451 129.81 97.0184 130.01 97.0077 130.136H92.5159ZM95.9275 129.25C95.9382 128.461 95.6227 127.237 94.3126 127.237C93.1362 127.237 92.6229 128.392 92.5266 129.25H95.9222H95.9275Z" fill="black"/>
<path d="M98.4943 128.346C98.4943 127.643 98.4836 127.066 98.4408 126.5H99.4728L99.537 127.626H99.5637C99.8792 126.98 100.623 126.345 101.681 126.345C102.569 126.345 103.943 126.911 103.943 129.25V133.32H102.777V129.387C102.777 128.289 102.392 127.374 101.296 127.374C100.532 127.374 99.9327 127.952 99.7348 128.644C99.6814 128.798 99.6546 129.01 99.6546 129.221V133.32H98.4943V128.346Z" fill="black"/>
<path d="M107.13 124.584C107.141 125.008 106.852 125.345 106.392 125.345C105.981 125.345 105.692 125.008 105.692 124.584C105.692 124.161 105.997 123.807 106.419 123.807C106.841 123.807 107.13 124.144 107.13 124.584ZM105.836 133.32V126.5H106.997V133.32H105.836Z" fill="black"/>
<path d="M109.574 130.136C109.601 131.811 110.606 132.503 111.766 132.503C112.601 132.503 113.103 132.348 113.536 132.148L113.734 133.034C113.322 133.235 112.622 133.458 111.606 133.458C109.638 133.458 108.462 132.074 108.462 130.021C108.462 127.969 109.601 126.345 111.462 126.345C113.552 126.345 114.103 128.306 114.103 129.558C114.103 129.81 114.076 130.01 114.066 130.136H109.574ZM112.986 129.25C112.996 128.461 112.681 127.237 111.371 127.237C110.194 127.237 109.681 128.392 109.585 129.25H112.98H112.986Z" fill="black"/>
<path d="M115.552 128.627C115.552 127.826 115.542 127.134 115.499 126.5H116.515L116.552 127.838H116.606C116.895 126.923 117.595 126.345 118.376 126.345C118.509 126.345 118.6 126.357 118.707 126.385V127.552C118.59 127.523 118.472 127.512 118.312 127.512C117.493 127.512 116.911 128.175 116.75 129.107C116.723 129.278 116.697 129.473 116.697 129.684V133.32H115.547V128.627H115.552Z" fill="black"/>
<path d="M122.29 123.555L120.675 125.568H119.841L121.001 123.555H122.285H122.29ZM119.927 133.32V126.5H121.087V133.32H119.927Z" fill="black"/>
<path d="M126.562 133.32L126.472 132.463H126.434C126.076 133 125.391 133.475 124.477 133.475C123.183 133.475 122.52 132.503 122.52 131.514C122.52 129.867 123.894 128.964 126.365 128.975V128.832C126.365 128.266 126.22 127.254 124.91 127.254C124.317 127.254 123.696 127.454 123.242 127.763L122.98 126.946C123.509 126.58 124.274 126.34 125.081 126.34C127.038 126.34 127.514 127.763 127.514 129.13V131.679C127.514 132.274 127.541 132.846 127.621 133.315H126.562V133.32ZM126.391 129.839C125.124 129.81 123.68 130.05 123.68 131.376C123.68 132.177 124.183 132.56 124.776 132.56C125.611 132.56 126.14 131.994 126.322 131.416C126.359 131.291 126.386 131.148 126.386 131.022V129.839H126.391Z" fill="black"/>
<path d="M128.637 135.053C128.926 134.224 129.284 132.714 129.429 131.685L130.723 131.542C130.418 132.737 129.835 134.304 129.466 134.967L128.632 135.053H128.637Z" fill="black"/>
<path d="M21.8242 147.476C21.4018 147.699 20.5569 147.928 19.4714 147.928C16.9582 147.928 15.0706 146.235 15.0706 143.125C15.0706 140.015 16.9635 138.14 19.7227 138.14C20.835 138.14 21.5355 138.391 21.8403 138.563L21.5622 139.563C21.1237 139.341 20.5034 139.169 19.7655 139.169C17.6747 139.169 16.2897 140.593 16.2897 143.085C16.2897 145.412 17.5464 146.904 19.712 146.904C20.4125 146.904 21.1237 146.75 21.589 146.51L21.8296 147.482L21.8242 147.476Z" fill="black"/>
<path d="M24.4873 139.049C24.498 139.472 24.2092 139.809 23.7493 139.809C23.3376 139.809 23.0488 139.472 23.0488 139.049C23.0488 138.626 23.3536 138.271 23.7761 138.271C24.1985 138.271 24.4873 138.609 24.4873 139.049ZM23.1932 147.785V140.964H24.3536V147.785H23.1932Z" fill="black"/>
<path d="M26.931 144.6C26.9577 146.275 27.963 146.967 29.1234 146.967C29.9576 146.967 30.4602 146.813 30.8933 146.613L31.0912 147.499C30.6795 147.699 29.979 147.922 28.963 147.922C26.9951 147.922 25.8187 146.538 25.8187 144.486C25.8187 142.434 26.9577 140.81 28.8186 140.81C30.9094 140.81 31.4602 142.771 31.4602 144.023C31.4602 144.274 31.4334 144.475 31.4227 144.6H26.931ZM30.3426 143.714C30.3533 142.925 30.0378 141.702 28.7277 141.702C27.5513 141.702 27.0379 142.857 26.9417 143.714H30.3372H30.3426Z" fill="black"/>
<path d="M32.9093 142.811C32.9093 142.108 32.8986 141.53 32.8558 140.964H33.8879L33.952 142.09H33.9788C34.2943 141.444 35.0375 140.81 36.0963 140.81C36.984 140.81 38.3582 141.376 38.3582 143.714V147.785H37.1925V143.851C37.1925 142.754 36.8075 141.839 35.7113 141.839C34.9466 141.839 34.3477 142.416 34.1499 143.108C34.0964 143.263 34.0697 143.474 34.0697 143.686V147.785H32.9093V142.811Z" fill="black"/>
<path d="M44.8071 147.533C44.5023 147.705 43.8286 147.928 42.9676 147.928C41.0373 147.928 39.7806 146.533 39.7806 144.446C39.7806 142.359 41.1282 140.827 43.219 140.827C43.9088 140.827 44.513 141.01 44.8339 141.181L44.5718 142.142C44.2938 141.97 43.8607 141.816 43.2243 141.816C41.7592 141.816 40.9624 142.971 40.9624 144.395C40.9624 145.972 41.9142 146.944 43.1815 146.944C43.8446 146.944 44.2777 146.761 44.6093 146.607L44.8071 147.539V147.533Z" fill="black"/>
<path d="M47.4647 139.049C47.4754 139.472 47.1866 139.809 46.7267 139.809C46.315 139.809 46.0262 139.472 46.0262 139.049C46.0262 138.626 46.331 138.271 46.7535 138.271C47.1759 138.271 47.4647 138.609 47.4647 139.049ZM46.1706 147.785V140.964H47.3363V147.785H46.1706Z" fill="black"/>
<path d="M52.8067 147.785L52.7158 146.927H52.6784C52.3201 147.465 51.6357 147.939 50.7213 147.939C49.4272 147.939 48.7642 146.967 48.7642 145.978C48.7642 144.332 50.1384 143.428 52.6089 143.44V143.297C52.6089 142.731 52.4645 141.719 51.1544 141.719C50.5609 141.719 49.9406 141.913 49.4914 142.228L49.2294 141.41C49.7588 141.044 50.5234 140.804 51.3309 140.804C53.288 140.804 53.7639 142.228 53.7639 143.594V146.144C53.7639 146.739 53.7907 147.31 53.8709 147.779H52.8121L52.8067 147.785ZM52.6356 144.303C51.3683 144.275 49.9245 144.515 49.9245 145.841C49.9245 146.641 50.4272 147.024 51.0207 147.024C51.8549 147.024 52.379 146.458 52.5661 145.881C52.6035 145.755 52.6303 145.612 52.6303 145.487V144.303H52.6356Z" fill="black"/>
<path d="M58.8599 140.964L60.2609 144.995C60.4052 145.447 60.5657 145.978 60.6726 146.39H60.6994C60.817 145.984 60.9507 145.458 61.1111 144.966L62.3784 140.964H63.6083L61.8651 145.824C61.0309 148.162 60.4641 149.363 59.6727 150.095C59.1058 150.632 58.539 150.844 58.2449 150.901L57.9562 149.86C58.2449 149.763 58.6299 149.563 58.9722 149.254C59.2877 148.985 59.6834 148.505 59.9507 147.871C60.0042 147.745 60.0416 147.648 60.0416 147.573C60.0416 147.499 60.0149 147.408 59.9614 147.247L57.5979 140.964H58.8652H58.8599Z" fill="black"/>
<path d="M68.6562 139.329H65.9451V138.289H72.5383V139.329H69.8165V147.785H68.6508V139.329H68.6562Z" fill="black"/>
<path d="M73.2068 144.6C73.2336 146.275 74.2389 146.967 75.3993 146.967C76.2334 146.967 76.7361 146.813 77.1692 146.613L77.3671 147.499C76.9553 147.699 76.2548 147.922 75.2388 147.922C73.271 147.922 72.0946 146.538 72.0946 144.486C72.0946 142.434 73.2336 140.81 75.0945 140.81C77.1853 140.81 77.736 142.771 77.736 144.023C77.736 144.274 77.7093 144.475 77.6986 144.6H73.2068ZM76.6184 143.714C76.6291 142.925 76.3136 141.702 75.0036 141.702C73.8271 141.702 73.3138 142.857 73.2175 143.714H76.6131H76.6184Z" fill="black"/>
<path d="M83.7463 147.533C83.4415 147.705 82.7678 147.928 81.9069 147.928C79.9765 147.928 78.7198 146.533 78.7198 144.446C78.7198 142.359 80.0674 140.827 82.1582 140.827C82.848 140.827 83.4522 141.01 83.7731 141.181L83.5111 142.142C83.233 141.97 82.7945 141.816 82.1635 141.816C80.6984 141.816 79.9016 142.971 79.9016 144.395C79.9016 145.972 80.8534 146.944 82.1207 146.944C82.7838 146.944 83.2169 146.761 83.5485 146.607L83.7463 147.539V147.533Z" fill="black"/>
<path d="M85.1099 142.811C85.1099 142.108 85.0938 141.53 85.0564 140.964H86.0884L86.1526 142.09H86.1793C86.4948 141.444 87.2381 140.81 88.2969 140.81C89.1845 140.81 90.5588 141.376 90.5588 143.714V147.785H89.3984V143.851C89.3984 142.754 89.0134 141.839 87.9172 141.839C87.1526 141.839 86.5536 142.416 86.3558 143.108C86.3023 143.263 86.2756 143.474 86.2756 143.686V147.785H85.1099V142.811Z" fill="black"/>
<path d="M98.2322 144.32C98.2322 146.841 96.5959 147.939 95.0452 147.939C93.3127 147.939 91.9812 146.584 91.9812 144.429C91.9812 142.148 93.3822 140.81 95.1522 140.81C96.9221 140.81 98.2322 142.233 98.2322 144.32ZM93.1576 144.389C93.1576 145.881 93.9651 147.007 95.0987 147.007C96.2323 147.007 97.0398 145.892 97.0398 144.36C97.0398 143.205 96.4997 141.742 95.1254 141.742C93.7512 141.742 93.1576 143.097 93.1576 144.389Z" fill="black"/>
<path d="M99.7029 137.78H100.869V147.785H99.7029V137.78Z" fill="black"/>
<path d="M108.612 144.32C108.612 146.841 106.975 147.939 105.424 147.939C103.692 147.939 102.36 146.584 102.36 144.429C102.36 142.148 103.761 140.81 105.531 140.81C107.301 140.81 108.612 142.233 108.612 144.32ZM103.537 144.389C103.537 145.881 104.344 147.007 105.478 147.007C106.612 147.007 107.419 145.892 107.419 144.36C107.419 143.205 106.879 141.742 105.505 141.742C104.13 141.742 103.537 143.097 103.537 144.389Z" fill="black"/>
<path d="M115.595 140.964C115.568 141.456 115.542 142.005 115.542 142.839V146.796C115.542 148.362 115.253 149.317 114.627 149.912C114.007 150.529 113.109 150.729 112.301 150.729C111.494 150.729 110.686 150.535 110.173 150.163L110.462 149.22C110.884 149.5 111.547 149.757 112.338 149.757C113.526 149.757 114.403 149.094 114.403 147.373V146.613H114.376C114.018 147.247 113.333 147.756 112.338 147.756C110.75 147.756 109.617 146.321 109.617 144.429C109.617 142.119 111.028 140.81 112.499 140.81C113.611 140.81 114.215 141.427 114.493 141.993H114.52L114.574 140.964H115.59H115.595ZM114.392 143.657C114.392 143.445 114.376 143.263 114.328 143.091C114.114 142.371 113.547 141.782 112.702 141.782C111.59 141.782 110.798 142.782 110.798 144.36C110.798 145.698 111.435 146.813 112.691 146.813C113.403 146.813 114.055 146.333 114.306 145.544C114.37 145.332 114.397 145.092 114.397 144.88V143.657H114.392Z" fill="black"/>
<path d="M119.761 138.02L118.146 140.032H117.312L118.477 138.02H119.761ZM117.397 147.785V140.964H118.563V147.785H117.397Z" fill="black"/>
<path d="M124.033 147.785L123.942 146.927H123.905C123.547 147.465 122.862 147.939 121.948 147.939C120.654 147.939 119.991 146.967 119.991 145.978C119.991 144.332 121.365 143.428 123.835 143.44V143.297C123.835 142.731 123.691 141.719 122.381 141.719C121.787 141.719 121.167 141.913 120.712 142.228L120.45 141.41C120.98 141.044 121.745 140.804 122.552 140.804C124.509 140.804 124.985 142.228 124.985 143.594V146.144C124.985 146.739 125.012 147.31 125.092 147.779H124.033V147.785ZM123.862 144.303C122.595 144.275 121.151 144.515 121.151 145.841C121.151 146.641 121.654 147.024 122.247 147.024C123.081 147.024 123.611 146.458 123.793 145.881C123.83 145.755 123.857 145.612 123.857 145.487V144.303H123.862Z" fill="black"/>
</svg>
